<?xml version="1.0" encoding="UTF-8"?>
<svg width="40px" height="40px" viewBox="0 0 40 40" version="1.1" xmlns="http://www.w3.org/2000/svg" xmlns:xlink="http://www.w3.org/1999/xlink">
    <title>形状结合</title>
    <g id="控件" stroke="none" stroke-width="1" fill="none" fill-rule="evenodd">
        <g id="编组-17" transform="translate(-451.000000, -489.000000)" fill="#00AEFF" fill-rule="nonzero">
            <g id="编组-3" transform="translate(451.000000, 489.000000)">
                <path d="M20.0688935,0.500545015 C20.8973207,0.500545015 21.5688935,1.17211789 21.5688935,2.00054502 C21.5688935,2.78024113 20.9740054,3.42099369 20.2133535,3.49367844 L20.0688935,3.50054502 L6.57422294,3.50043768 C4.37906757,3.52133221 3.55696991,4.14018754 3.50288369,5.54257501 L3.5,5.69583748 L3.5,34.21 L3.51324103,34.2785772 C3.82520741,35.7675 4.72932783,36.44694 6.59970303,36.497002 L6.82881002,36.5 L33.1594539,36.5020462 C35.5343871,36.3778702 36.4373781,35.7439742 36.4968294,34.4855681 L36.5,34.3483439 L36.5,5.853 L36.4874143,5.79271392 C36.131544,4.25002891 35.232556,3.55480684 33.4552857,3.5036103 L33.2377761,3.50054502 L27.987,3.5 L27.9875288,24.1360908 C27.9875288,24.4521099 27.8877686,24.7586413 27.7045737,25.01291 L27.6060989,25.1354912 L20.6237892,32.9503797 C20.0657508,33.5749593 19.1143654,33.6156545 18.5053047,33.0692975 L18.3952971,32.9599753 L11.2910228,25.1450868 C11.0758801,24.9084242 10.9429657,24.6103115 10.9093808,24.2949842 L10.900945,24.1360908 L10.900945,9.18704288 C10.900945,8.35861576 11.5725178,7.68704288 12.400945,7.68704288 C13.1806411,7.68704288 13.8213936,8.28193097 13.8940784,9.04258287 L13.900945,9.18704288 L13.9,23.556 L19.495,29.709 L24.987,23.562 L24.9875288,2.00054502 C24.9875288,1.2208489 25.5824169,0.580096337 26.3430688,0.507411593 L26.4875288,0.500545015 L33.2377761,0.500545015 C36.6342358,0.500545015 38.8532031,2.22237353 39.4724668,5.40975799 L39.4931008,5.55213679 L39.5,5.69583748 L39.5,34.3483439 C39.5,37.4577833 37.3165168,39.2079104 33.5251355,39.4821975 L33.2377761,39.5 L6.82881002,39.5 C3.32543045,39.5 1.06586621,37.7912661 0.521376544,34.6006784 L0.50535369,34.4749631 L0.5,34.3483439 L0.5,5.69583748 C0.5,2.34882637 2.75620682,0.546174357 6.56086527,0.500545015 L20.0688935,0.500545015 Z M19.5,8 C20.0128358,8 20.4355072,8.38604019 20.4932723,8.88337887 L20.5,9 L20.5,25 C20.5,25.5522847 20.0522847,26 19.5,26 C18.9871642,26 18.5644928,25.6139598 18.5067277,25.1166211 L18.5,25 L18.5,9 C18.5,8.44771525 18.9477153,8 19.5,8 Z" id="形状结合"></path>
            </g>
        </g>
    </g>
</svg>