<?xml version="1.0" encoding="UTF-8"?>
<svg width="42px" height="42px" viewBox="0 0 42 42" version="1.1" xmlns="http://www.w3.org/2000/svg" xmlns:xlink="http://www.w3.org/1999/xlink">
    <title>形状结合</title>
    <g id="控件" stroke="none" stroke-width="1" fill="none" fill-rule="evenodd">
        <g id="编组-17" transform="translate(-449.000000, -308.000000)" fill="#00AEFF" fill-rule="nonzero">
            <g id="编组-18" transform="translate(449.000000, 308.000000)">
                <path d="M21,0 L42,4.2 L37.8,42 L4.2,42 L0,4.2 L21,0 Z M36.794,23.883 L33.9350288,26.7426407 C26.5150673,34.1626022 14.4849327,34.1626022 7.06497116,26.7426407 L5.33,25.008 L6.885,39 L35.114,39 L36.794,23.883 Z M9.41108576,20.1581795 L9.1862915,20.3786797 L7.06497116,22.5 L9.1862915,24.6213203 C15.3602946,30.7953234 25.3246643,30.8688235 31.5889142,24.8418205 L31.8137085,24.6213203 L33.9350288,22.5 L31.8137085,20.3786797 C25.6397054,14.2046766 15.6753357,14.1311765 9.41108576,20.1581795 Z M21,18 C23.209139,18 25,19.790861 25,22 C25,24.209139 23.209139,26 21,26 C18.790861,26 17,24.209139 17,22 C17,21.7122849 17.0303767,21.4316647 17.088098,21.1611716 C17.3784071,22.2211509 18.3482486,23 19.5,23 C20.8807119,23 22,21.8807119 22,20.5 C22,19.3482486 21.2211509,18.3784071 20.1614028,18.0884255 C20.4316647,18.0303767 20.7122849,18 21,18 Z M21,3.059 L3.285,6.602 L4.829,20.493 L7.06497116,18.2573593 C7.78660584,17.5357246 8.55184676,16.8842732 9.35221201,16.3030049 L6.8,12.9 C6.30294373,12.2372583 6.4372583,11.2970563 7.1,10.8 C7.72375689,10.3321823 8.59329179,10.4236413 9.10783073,10.9885519 L9.2,11.1 L11.9247112,14.7318515 C13.0589061,14.1581454 14.2386276,13.7054781 15.4446657,13.3738494 L14.529129,8.7941742 C14.3666611,7.98183457 14.8934862,7.19159691 15.7058258,7.02912899 C16.4703807,6.876218 17.2153575,7.33389184 17.4358068,8.06551775 L17.470871,8.2058258 L18.391452,12.8090432 C20.1177106,12.6173974 21.8652109,12.6618844 23.5816077,12.9425041 L24.529129,8.2058258 L24.5641932,8.06551775 C24.7846425,7.33389184 25.5296193,6.876218 26.2941742,7.02912899 C27.0587291,7.18203998 27.5703716,7.89103765 27.4924687,8.65117286 L27.470871,8.7941742 L26.4982826,13.6596899 C27.6295754,14.0350138 28.7325752,14.5195602 29.7908153,15.113329 L29.8,15.1 L32.8,11.1 L32.8921693,10.9885519 C33.4067082,10.4236413 34.2762431,10.3321823 34.9,10.8 C35.5237569,11.2678177 35.6794261,12.1281797 35.2811827,12.780312 L35.2,12.9 L32.2848776,16.7865192 C32.8560444,17.2392516 33.4072012,17.7295316 33.9350288,18.2573593 L37.07,21.393 L38.714,6.602 L21,3.059 Z" id="形状结合"></path>
            </g>
        </g>
    </g>
</svg>