<?xml version="1.0" encoding="UTF-8"?>
<svg width="42px" height="42px" viewBox="0 0 42 42" version="1.1" xmlns="http://www.w3.org/2000/svg" xmlns:xlink="http://www.w3.org/1999/xlink">
    <title>形状结合</title>
    <g id="控件" stroke="none" stroke-width="1" fill="none" fill-rule="evenodd">
        <g id="编组-17" transform="translate(0.000000, -308.000000)" fill="#00AEFF" fill-rule="nonzero">
            <g id="编组-16" transform="translate(0.000000, 308.000000)">
                <path d="M3,42 C1.34314575,42 0,40.6568542 0,39 L0,28 C0,26.3431458 1.34314575,25 3,25 L13,25 L13,23 C13,21.3431458 14.3431458,20 16,20 L26,20 C27.6568542,20 29,21.3431458 29,23 L29,29 L29,29 L39,29 C40.6568542,29 42,30.3431458 42,32 L42,39 C42,40.6568542 40.6568542,42 39,42 L3,42 Z M13,28 L3,28 L3,39 L13,39 L13,39 L13,28 Z M26,23 L16,23 L16,39 L26,39 L26,23 Z M39,32 L29,32 L29,39 L39,39 L39,32 Z M27,0 C27.5522847,0 28,0.44771525 28,1 L28,8 C28,11.1706393 25.8919961,13.8489278 23.0010432,14.7098107 L23,17 C23,17.5522847 22.5522847,18 22,18 L20,18 C19.4477153,18 19,17.5522847 19,17 L18.9999537,14.7101075 C16.1084885,13.8495435 14,11.1710037 14,8 L14,1 C14,0.44771525 14.4477153,0 15,0 L27,0 Z M25,3 L17,3 L17,8 C17,10.1421954 18.6839685,11.8910789 20.8003597,11.9951047 L21,12 C23.1421954,12 24.8910789,10.3160315 24.9951047,8.19964034 L25,8 L25,3 Z" id="形状结合"></path>
            </g>
        </g>
    </g>
</svg>