<?xml version="1.0" encoding="UTF-8"?>
<svg width="16px" height="16px" viewBox="0 0 16 16" version="1.1" xmlns="http://www.w3.org/2000/svg" xmlns:xlink="http://www.w3.org/1999/xlink">
    <title>形状结合</title>
    <g id="Wap" stroke="none" stroke-width="1" fill="none" fill-rule="evenodd">
        <g id="画板" transform="translate(-20.000000, -68.000000)" fill="#FFFFFF">
            <g id="编组-3" transform="translate(0.000000, 44.000000)">
                <path d="M22,38 C22.5522848,38 23,38.4477153 23,39 C23,39.5522847 22.5522848,40 22,40 L21,40 C20.4477153,40 20,39.5522847 20,39 C20,38.4477153 20.4477153,38 21,38 L22,38 Z M35,38 C35.5522847,38 36,38.4477153 36,39 C36,39.5522847 35.5522847,40 35,40 L26,40 C25.4477152,40 25,39.5522847 25,39 C25,38.4477153 25.4477152,38 26,38 L35,38 Z M22,31 C22.5522848,31 23,31.4477153 23,32 C23,32.5522847 22.5522848,33 22,33 L21,33 C20.4477153,33 20,32.5522847 20,32 C20,31.4477153 20.4477153,31 21,31 L22,31 Z M35,31 C35.5522847,31 36,31.4477153 36,32 C36,32.5522847 35.5522847,33 35,33 L26,33 C25.4477152,33 25,32.5522847 25,32 C25,31.4477153 25.4477152,31 26,31 L35,31 Z M22,24 C22.5522848,24 23,24.4477153 23,25 C23,25.5522847 22.5522848,26 22,26 L21,26 C20.4477153,26 20,25.5522847 20,25 C20,24.4477153 20.4477153,24 21,24 L22,24 Z M35,24 C35.5522847,24 36,24.4477153 36,25 C36,25.5522847 35.5522847,26 35,26 L26,26 C25.4477152,26 25,25.5522847 25,25 C25,24.4477153 25.4477152,24 26,24 L35,24 Z" id="形状结合"></path>
            </g>
        </g>
    </g>
</svg>