<?xml version="1.0" encoding="UTF-8"?>
<svg width="34px" height="42px" viewBox="0 0 34 42" version="1.1" xmlns="http://www.w3.org/2000/svg" xmlns:xlink="http://www.w3.org/1999/xlink">
    <title>形状结合</title>
    <g id="控件" stroke="none" stroke-width="1" fill="none" fill-rule="evenodd">
        <g id="编组-17" transform="translate(-904.000000, -308.000000)" fill="#00AEFF" fill-rule="nonzero">
            <g id="01备份-2" transform="translate(900.000000, 308.000000)">
                <g id="编组" transform="translate(4.000000, 0.000000)">
                    <path d="M16.7468208,0 C18.9558329,1.95382667 21.3969465,3.40362073 24.0701616,4.34938218 C26.5948648,5.24260133 29.6875163,5.8139262 33.3481161,6.06335678 L34,6.10403248 L33.8796421,27.596048 C31.9776027,33.0643859 26.2666623,37.8657032 16.7468208,42 C7.11429824,37.4090076 1.55760216,32.7028609 0.0767325631,27.8815598 L0,27.6184655 L0.0452885793,5.82651908 C5.77122485,5.82651908 11.3384023,3.88434605 16.7468208,0 Z M16.588,3.727 L16.4636312,3.80759809 C12.2059704,6.49311985 7.81334186,8.11128146 3.30815941,8.63706432 L3.039,8.665 L3,27.172 L3.0234529,27.2420409 C4.22577241,30.7020809 8.54461409,34.4910846 16.1091201,38.3423724 L16.802,38.69 L17.0421542,38.5804291 C24.6310363,35.0696175 29.1826567,31.2001021 30.8490799,27.1310122 L30.882,27.047 L30.984,8.866 L30.4659206,8.80832575 C27.8905601,8.50186777 25.5929074,8.0175 23.5696595,7.34865556 L23.0695624,7.17759738 C20.9235413,6.4183528 18.9094996,5.37375619 17.0329493,4.04886878 L16.588,3.727 Z M25.1129295,14.9037605 C25.6805261,15.4338737 25.7444881,16.3012585 25.2843464,16.906475 L25.1853239,17.0238451 L16.7796734,26.0238451 C16.2425748,26.5989211 15.3610923,26.6559247 14.7564341,26.1794258 L14.6393775,26.0770081 L9.49708183,21.092044 C8.9022667,20.5154276 8.88751372,19.5657947 9.46413011,18.9709796 C10.004708,18.4133404 10.8731324,18.3655215 11.4696863,18.8368397 L11.5851945,18.9380279 L15.63,22.859 L22.9928448,14.9761549 C23.5582989,14.3707185 24.5074931,14.3383064 25.1129295,14.9037605 Z" id="形状结合"></path>
                </g>
            </g>
        </g>
    </g>
</svg>