<?xml version="1.0" encoding="UTF-8"?>
<svg width="40px" height="40px" viewBox="0 0 40 40" version="1.1" xmlns="http://www.w3.org/2000/svg" xmlns:xlink="http://www.w3.org/1999/xlink">
    <title>形状结合</title>
    <g id="控件" stroke="none" stroke-width="1" fill="none" fill-rule="evenodd">
        <g id="编组-17" transform="translate(-900.000000, -489.000000)" fill="#00AEFF" fill-rule="nonzero">
            <g id="01备份-3" transform="translate(900.000000, 489.000000)">
                <path d="M26,0 C27.1045695,0 28,0.8954305 28,2 L28,14 C28,15.1045695 27.1045695,16 26,16 L21.5,16 L21.5,21.356 L31.8569724,21.3569724 C33.7255358,21.3569724 35.2520988,22.82125 35.3517935,24.6649372 L35.3569724,24.8569724 L35.356,28 L38,28 C39.1045695,28 40,28.8954305 40,30 L40,38 C40,39.1045695 39.1045695,40 38,40 L30,40 C28.8954305,40 28,39.1045695 28,38 L28,30 C28,28.8954305 28.8954305,28 30,28 L32.356,28 L32.3569724,24.8569724 C32.3569724,24.6115125 32.1800972,24.407364 31.946848,24.3650281 L31.8569724,24.3569724 L21.5,24.356 L21.5,28 L24,28 C25.1045695,28 26,28.8954305 26,30 L26,38 C26,39.1045695 25.1045695,40 24,40 L16,40 C14.8954305,40 14,39.1045695 14,38 L14,30 C14,28.8954305 14.8954305,28 16,28 L18.5,28 L18.5,24.356 L7.85697239,24.3569724 C7.6115125,24.3569724 7.40736402,24.5338476 7.36502806,24.7670968 L7.35697239,24.8569724 L7.356,28 L10,28 C11.1045695,28 12,28.8954305 12,30 L12,38 C12,39.1045695 11.1045695,40 10,40 L2,40 C0.8954305,40 0,39.1045695 0,38 L0,30 C0,28.8954305 0.8954305,28 2,28 L4.356,28 L4.35697239,24.8569724 C4.35697239,22.988409 5.82124999,21.4618459 7.66493719,21.3621513 L7.85697239,21.3569724 L18.5,21.356 L18.5,16 L14,16 C12.8954305,16 12,15.1045695 12,14 L12,2 C12,0.8954305 12.8954305,0 14,0 L26,0 Z M9,31 L3,31 L3,37 L9,37 L9,31 Z M23,31 L17,31 L17,37 L23,37 L23,31 Z M37,31 L31,31 L31,37 L37,37 L37,31 Z M25,3 L15,3 L15,13 L25,13 L25,3 Z" id="形状结合"></path>
            </g>
        </g>
    </g>
</svg>