<?xml version="1.0" encoding="UTF-8"?>
<svg width="40px" height="39px" viewBox="0 0 40 39" version="1.1" xmlns="http://www.w3.org/2000/svg" xmlns:xlink="http://www.w3.org/1999/xlink">
    <title>形状结合</title>
    <g id="控件" stroke="none" stroke-width="1" fill="none" fill-rule="evenodd">
        <g id="编组-17" transform="translate(-2.000000, -490.000000)" fill="#00AEFF" fill-rule="nonzero">
            <g id="01备份-5" transform="translate(0.000000, 489.000000)">
                <g id="编组-2" transform="translate(2.000000, 1.000000)">
                    <g id="编组-20" transform="translate(0.000000, 0.000000)">
                        <path d="M26.5604477,-1.93982678e-06 C27.1127314,-0.00106489203 27.5613106,0.445784745 27.5623773,0.998068465 L27.5648706,10.0983538 C27.5756417,10.584246 27.468528,11.2169109 27.1321801,11.8408365 C26.5691377,12.8852802 25.5226749,13.5204688 24.0434353,13.5204688 C21.8922353,13.5204688 20.6048212,12.365596 20.5213838,10.3338166 L20.5170611,10.1205158 L20.5170611,7.84984016 L20.5246841,7.72629114 L20.5339526,7.61818254 L20.5433571,7.39035525 L20.5437799,7.26470409 L20.5437799,7.26470409 C20.5404017,6.90090936 20.4979643,6.5402278 20.4077266,6.21820129 C20.1870262,5.43059974 19.7679917,5.04722469 18.906337,5.04722469 C17.5233869,5.04722469 16.9434555,5.74132016 16.9920257,7.63424429 L17,7.84952829 L17,14.9999962 L35,15 C37.7614237,15 40,17.2385763 40,20 L40,33.9851706 C40,36.7465944 37.7614237,38.9851706 35,38.9851706 C33.6566494,38.9851706 32.3698054,38.4446176 31.4294225,37.48531 L27.0325958,33 L12.922812,33 L8.57659932,37.4489766 C6.64692421,39.4242778 3.48131539,39.4612651 1.50601413,37.53159 C0.542952275,36.5907733 0,35.3013281 0,33.9549907 L0,20 C0,17.2385763 2.23857625,15 5,15 L15,14.9999962 L15.0011709,7.89790579 C14.852852,4.83563169 16.2198427,3.04722469 18.906337,3.04722469 C20.7488685,3.04722469 21.888324,4.08971349 22.3335454,5.67855169 C22.4763804,6.18827909 22.5387965,6.71876244 22.5436937,7.24613262 C22.5448254,7.3680017 22.5427489,7.48436861 22.5381151,7.59425846 L22.517,7.894 L22.5170611,10.1205158 C22.5170611,11.1045987 22.8629484,11.4823817 23.8776193,11.5176997 L24.0434353,11.5204688 C24.7815369,11.5204688 25.1549806,11.2937936 25.3716951,10.8917882 C25.4925235,10.6676515 25.5490845,10.4151636 25.5622914,10.2192668 L25.5700324,6.06395921 C25.5688213,4.7039908 25.566272,3.0163336 25.5623811,1.00193154 C25.5613143,0.449647816 26.008164,0.00106862286 26.5604477,-1.93982678e-06 Z M35,18 L5,18 C3.9456382,18 3.08183488,18.8158778 3.00548574,19.8507377 L3,20 L3,33.9549907 C3,34.4935256 3.21718091,35.0093037 3.60240565,35.3856304 C4.35094087,36.1168757 5.52679979,36.1420838 6.30479864,35.4708961 L6.43063973,35.3525851 L10.7768524,30.9036085 C11.2943016,30.3739245 11.9875177,30.0560457 12.7216738,30.0067442 L12.922812,30 L27.0325958,30 C27.7714386,30 28.4817927,30.2725288 29.0296548,30.7612969 L29.1749423,30.8999163 L33.571769,35.3852264 C33.9479221,35.7689494 34.4626597,35.9851706 35,35.9851706 C36.0543618,35.9851706 36.9181651,35.1692928 36.9945143,34.134433 L37,33.9851706 L37,20 C37,18.9456382 36.1841222,18.0818349 35.1492623,18.0054857 L35,18 Z M14,20 C14.5128358,20 14.9355072,20.3860402 14.9932723,20.8833789 L15,21 L14.9991148,23 L16.8841148,23 C17.4363995,23 17.8841148,23.4477153 17.8841148,24 C17.8841148,24.5128358 17.4980746,24.9355072 17.0007359,24.9932723 L16.8841148,25 L14.9991148,25 L15,27 C15,27.5522847 14.5522847,28 14,28 C13.4871642,28 13.0644928,27.6139598 13.0067277,27.1166211 L13,27 L12.9991148,25 L10.8841148,25 C10.33183,25 9.88411478,24.5522847 9.88411478,24 C9.88411478,23.4871642 10.270155,23.0644928 10.7674937,23.0067277 L10.8841148,23 L12.9991148,23 L13,21 C13,20.4477153 13.4477153,20 14,20 Z M26.5,21.5 C27.8807119,21.5 29,22.6192881 29,24 C29,25.3807119 27.8807119,26.5 26.5,26.5 C25.1192881,26.5 24,25.3807119 24,24 C24,22.6192881 25.1192881,21.5 26.5,21.5 Z" id="形状结合"></path>
                    </g>
                </g>
            </g>
        </g>
    </g>
</svg>