<?xml version="1.0" encoding="UTF-8"?>
<svg width="120px" height="40px" viewBox="0 0 120 40" version="1.1" xmlns="http://www.w3.org/2000/svg" xmlns:xlink="http://www.w3.org/1999/xlink">
    <title>OB游戏logo1</title>
    <defs>
        <linearGradient x1="0%" y1="50%" x2="160.494792%" y2="50%" id="linearGradient-1">
            <stop stop-color="#00AEFF" offset="0%"></stop>
            <stop stop-color="#7427E2" offset="100%"></stop>
        </linearGradient>
        <path d="M147.873156,12.0001778 C158.848711,12.0001778 167.746489,20.8975111 167.746489,31.8730667 C167.746489,42.8486222 158.848711,51.7464 147.873156,51.7464 C136.8976,51.7464 127.999822,42.8486222 127.999822,31.8730667 C127.999822,20.8975111 136.8976,12.0001778 147.873156,12.0001778 Z M184.600578,43.5579111 C185.121022,43.5579111 185.583244,43.7481333 185.9348,44.1005778 C186.39317,44.5585333 186.423728,45.0366212 186.425766,45.9980919 L186.425911,46.2116889 C186.425911,47.3183556 186.425911,47.8316889 185.9348,48.3228 C185.583244,48.6748 185.121022,48.8654667 184.600578,48.8654667 C184.080133,48.8654667 183.618356,48.6748 183.266356,48.3228 C182.80757,47.8644296 182.776985,47.3867012 182.774946,46.4252803 L182.7748,46.2116889 C182.7748,45.1050222 182.7748,44.5912444 183.266356,44.1005778 C183.618356,43.7481333 184.080133,43.5579111 184.600578,43.5579111 Z M233.887422,43.5581333 C234.554533,43.5581333 234.994533,43.7261333 235.441644,44.1296889 L235.082533,44.4883556 C234.759867,44.1954667 234.415422,44.0412444 233.865644,44.0412444 C233.1692,44.0412444 232.765644,44.4301333 232.765644,45.0092444 C232.765644,45.2656889 232.838978,45.4710222 233.000756,45.6105778 C233.161644,45.7496889 233.432756,45.8523556 233.704311,45.8963556 L234.276311,45.9843556 C234.766978,46.0576889 235.0092,46.1603556 235.228756,46.3510222 C235.514978,46.5928 235.6692,46.9519111 235.6692,47.3843556 C235.6692,48.3008 234.950533,48.8652444 233.865644,48.8652444 C233.080756,48.8652444 232.567867,48.6674667 232.076756,48.1759111 L232.458089,47.7950222 C232.890533,48.2274667 233.293644,48.3670222 233.880311,48.3670222 C234.642533,48.3670222 235.111867,48.0074667 235.111867,47.3990222 C235.111867,47.1283556 235.030978,46.8932444 234.862533,46.7465778 C234.693644,46.5999111 234.561644,46.5563556 234.180756,46.4972444 L233.572311,46.4021333 C233.161644,46.3363556 232.838978,46.2043556 232.611867,46.0061333 C232.347867,45.7714667 232.215867,45.4492444 232.215867,45.0310222 C232.215867,44.1443556 232.854089,43.5581333 233.887422,43.5581333 Z M197.067644,43.6015556 L198.298822,46.0991778 L199.516089,43.6015556 L200.117422,43.6015556 L198.577867,46.666 L198.577867,48.8215556 L198.020533,48.8215556 L198.020533,46.666 L196.466311,43.6015556 L197.067644,43.6015556 Z M209.7468,43.6018222 L209.7468,45.9404889 L212.224578,45.9404889 L212.224578,43.6018222 L212.781467,43.6018222 L212.781467,48.8213778 L212.224578,48.8213778 L212.224578,46.4391556 L209.7468,46.4391556 L209.7468,48.8213778 L209.189467,48.8213778 L209.189467,43.6018222 L209.7468,43.6018222 Z M217.680311,43.6018222 L217.680311,44.1004889 L214.9972,44.1004889 L214.9972,45.9404889 L217.284311,45.9404889 L217.284311,46.4391556 L214.9972,46.4391556 L214.9972,48.3227111 L217.680311,48.3227111 L217.680311,48.8213778 L214.439867,48.8213778 L214.439867,43.6018222 L217.680311,43.6018222 Z M231.2172,43.6018222 L231.2172,44.1004889 L228.534089,44.1004889 L228.534089,45.9404889 L230.8212,45.9404889 L230.8212,46.4391556 L228.534089,46.4391556 L228.534089,48.3227111 L231.2172,48.3227111 L231.2172,48.8213778 L227.9772,48.8213778 L227.9772,43.6018222 L231.2172,43.6018222 Z M208.0664,43.6018222 L208.0664,44.1004889 L206.556622,44.1004889 L206.556622,48.8213778 L205.999289,48.8213778 L205.999289,44.1004889 L204.489067,44.1004889 L204.489067,43.6018222 L208.0664,43.6018222 Z M193.958133,43.6018222 L193.958133,48.3227111 L196.626578,48.3227111 L196.626578,48.8213778 L193.4008,48.8213778 L193.4008,43.6018222 L193.958133,43.6018222 Z M188.414133,43.6018222 L191.185244,47.7733778 L191.185244,43.6018222 L191.742133,43.6018222 L191.742133,48.8213778 L191.214578,48.8213778 L188.443467,44.6351556 L188.443467,48.8213778 L187.886133,48.8213778 L187.886133,43.6018222 L188.414133,43.6018222 Z M224.896533,43.6019556 C225.805422,43.6019556 226.436089,44.1224 226.436089,44.9944 C226.436089,45.5446222 226.105867,45.9770667 225.665867,46.1384 C226.164533,46.3219556 226.516533,46.7539556 226.516533,47.3775111 C226.516533,48.3228444 225.885867,48.8215111 224.962311,48.8215111 L222.931644,48.8215111 L222.931644,43.6019556 L224.896533,43.6019556 Z M240.024267,43.6018222 L240.024267,44.1004889 L238.514489,44.1004889 L238.514489,48.8213778 L237.957156,48.8213778 L237.957156,44.1004889 L236.447378,44.1004889 L236.447378,43.6018222 L240.024267,43.6018222 Z M184.600578,44.0561333 C184.255689,44.0561333 183.925911,44.1956889 183.6988,44.4303556 C183.391007,44.7447852 183.338354,45.0723783 183.332701,46.0028577 L183.332133,46.2116889 C183.332133,47.3036889 183.369022,47.6561333 183.6988,47.9930222 C183.925911,48.2276889 184.255689,48.3668 184.600578,48.3668 C184.945022,48.3668 185.2748,48.2276889 185.502356,47.9930222 C185.810148,47.6785926 185.862415,47.3506123 185.868016,46.4204427 L185.868578,46.2116889 C185.868578,45.1192444 185.832133,44.7672444 185.502356,44.4303556 C185.2748,44.1956889 184.945022,44.0561333 184.600578,44.0561333 Z M224.9112,46.4095111 L223.488978,46.4095111 L223.488978,48.3228444 L224.9112,48.3228444 C225.556089,48.3228444 225.9592,47.9490667 225.9592,47.3628444 C225.9592,46.7757333 225.556089,46.4095111 224.9112,46.4095111 Z M244.931556,45.966 L244.931556,46.4571111 L242.922667,46.4571111 L242.922667,45.966 L244.931556,45.966 Z M179.540889,45.966 L179.540889,46.4571111 L177.532,46.4571111 L177.532,45.966 L179.540889,45.966 Z M153.452133,23.1166222 L143.823689,23.1166222 C143.737022,23.1166222 143.663936,23.1740296 143.641981,23.2901305 L143.635244,23.3668444 L143.635689,23.9575111 C143.635689,24.0597333 143.718356,24.1432889 143.820578,24.1441778 L144.008133,24.1457889 L144.008133,24.1457889 L144.186356,24.1464 L144.623133,24.1462333 C144.736578,24.1458444 144.857911,24.1452889 144.993911,24.1446222 C145.715467,24.1290914 146.472701,24.7922546 146.544128,25.5051042 L146.549467,25.6312889 L146.548904,26.2631485 L146.548813,26.3367566 L146.548813,26.3367566 L146.548025,26.9355404 C146.547937,26.9991146 146.547846,27.064456 146.547751,27.1314761 L146.547146,27.5530317 C146.547039,27.626412 146.546928,27.7012937 146.546815,27.7775884 L146.546101,28.2516017 C146.545977,28.3331933 146.545849,28.4160207 146.545719,28.4999951 L146.54491,29.0168976 C146.543792,29.7225639 146.542523,30.4903022 146.541166,31.2747505 L146.540133,31.8655111 L146.539689,32.2428444 L146.539689,38.5188444 C146.539689,38.6117333 146.644133,38.6664 146.718356,38.6104 C147.370356,38.1197333 149.400578,36.3615111 149.421467,33.4726222 C149.428467,32.5474556 149.432404,31.4895806 149.433875,30.2995927 L149.433837,28.5021344 C149.432523,27.394527 149.42953,26.1937651 149.424578,24.8992889 C149.423356,24.5175481 149.706334,24.1992951 150.074274,24.1489039 L150.176578,24.1419556 L153.580578,24.1419556 C154.064578,24.1419556 154.548578,24.2601778 154.951689,24.5281778 C155.157911,24.6646222 155.366356,24.8495111 155.545911,25.0988444 C156.173467,25.9704 156.6588,27.0761778 156.605022,29.0912889 C156.605022,30.3406222 155.949022,32.5295111 154.431689,33.1401778 C154.397022,33.1541037 154.367294,33.1775111 154.346586,33.2076346 L154.3228,33.2575111 L153.903244,34.6801778 C153.880133,34.7592889 153.947244,34.8317333 154.029022,34.8215111 C155.319244,34.6544 156.200133,35.4010667 156.816133,36.3579556 C157.459689,37.3570667 157.675689,38.4592889 157.751689,39.7921778 C157.751689,41.8211508 156.869386,44.9385912 154.449375,45.1056194 L154.244133,45.1126222 L151.063689,45.1126222 C150.098677,45.0761037 149.484111,44.4512779 149.418805,43.6346444 L149.413022,43.4886222 L149.413022,40.9521778 C149.413022,40.8628444 149.315244,40.8099556 149.240133,40.8588444 C148.436578,41.3779556 147.553467,41.8050667 146.667689,42.0366222 C146.601911,42.0540444 146.552347,42.1038933 146.535152,42.1663716 L146.528578,42.2152889 L146.528578,43.4886222 C146.528578,44.3930433 145.775869,45.0413757 144.924591,45.1071159 L144.781911,45.1126222 L143.823689,45.1126222 C143.737022,45.1126222 143.663936,45.1709556 143.641981,45.2505852 L143.635244,45.3006222 L143.635244,46.1544 C143.635244,46.2406963 143.693886,46.313721 143.773619,46.3356654 L143.823689,46.3424 L154.2348,46.3424 C154.973022,46.3392889 157.285911,46.1917333 158.952133,44.4908444 C160.196578,43.2206222 160.798356,41.6326222 160.798356,39.7921778 C160.798356,36.9064 158.384578,34.4228444 156.097467,33.8992889 C158.163244,33.1361778 159.7788,31.0526222 159.7308,28.6757333 C159.761911,26.9935111 158.980133,25.3948444 157.675689,24.3455111 C156.371689,23.2966222 155.000133,23.1224 153.452133,23.1166222 Z M224.852533,44.1006222 L223.488978,44.1006222 L223.488978,45.9112889 L224.852533,45.9112889 C225.431644,45.9112889 225.878756,45.6246222 225.878756,45.0019556 C225.878756,44.3792889 225.431644,44.1006222 224.852533,44.1006222 Z M144.376578,17.3623764 C141.943244,17.3561778 139.625022,18.5784 137.806356,20.8748444 C135.987689,23.1712889 135.072133,25.9672889 135.072133,29.3437333 C134.988578,32.0628444 135.973022,35.1624 137.223689,37.0144 C138.474356,38.8659556 140.8588,41.2997333 144.409467,41.2891016 C147.960133,41.2770667 149.905467,39.0232889 150.755244,38.1055111 C151.604578,37.1881778 152.631244,35.4561778 153.310356,32.9646222 C153.929467,30.5792889 153.897467,28.0281778 153.214356,25.3592889 C153.197289,25.2917333 153.144667,25.2398222 153.079927,25.22176 L153.029467,25.2148444 L150.747689,25.2148444 C150.627689,25.2148444 150.539244,25.3272889 150.564578,25.4446222 C150.8148,26.5904 151.008133,27.6228444 151.006356,28.8708444 C151.015244,30.3624 150.8988,31.5864 150.599689,33.1379556 C150.3508,34.4286222 149.635689,36.2192889 148.9348,37.3099556 C147.280578,39.8824 145.291244,39.8988444 144.397911,39.8988444 C142.422356,39.8988444 140.593467,38.6784 139.540133,36.7641778 C138.487689,34.8490667 137.779244,31.8059556 137.806356,29.2557333 C137.806356,26.5677333 138.3668,23.9810667 139.625022,21.7615111 C140.8828,19.5424 142.608578,18.7464 144.3588,18.7464 C146.109022,18.7464 147.1348,19.3197333 147.926356,20.0646222 C148.233467,20.3530667 148.940578,21.3077333 149.233022,21.8632889 C149.286,21.9646222 149.378231,22.0369422 149.48605,22.0618169 L149.569467,22.0712889 L151.642356,22.0712889 C151.728578,22.0712889 151.785022,21.9815111 151.743244,21.9064 C151.153022,20.8472889 148.673467,17.3566222 144.376578,17.3623764 Z M217.8116,20.6960444 L217.8116,22.4760444 L219.9676,22.4760444 L219.9676,24.0382667 L216.3876,24.0382667 L216.3876,24.9876 C216.3876,25.6733778 216.380933,26.1742667 216.368044,26.4911556 L219.592044,26.4911556 L219.592044,35.5293778 C219.592044,36.4391556 219.400489,37.0916 219.018267,37.4871556 C218.648933,37.8693778 218.022711,38.0609333 217.139156,38.0609333 L215.913378,38.0609333 L215.913378,36.5182667 L216.545822,36.5182667 C216.928489,36.5182667 217.198711,36.4324889 217.356933,36.2609333 C217.528044,36.0764889 217.614267,35.7667111 217.614267,35.3316 L217.614267,27.9742667 L216.348044,27.9742667 C216.282267,30.7827111 215.998711,32.9120444 215.497822,34.3627111 C214.996489,35.8129333 214.172933,37.1907111 213.025378,38.4960444 L213.025378,36.2413778 C213.565822,34.9756 213.921822,33.6969333 214.093822,32.4044889 C214.269044,31.0892667 214.361237,29.0243678 214.370018,26.2097922 L214.370711,24.0382667 L213.341822,24.0382667 L213.341822,22.4760444 L215.517822,22.4760444 L215.517822,20.6960444 L217.8116,20.6960444 Z M181.274311,21.0182667 C183.673422,21.0182667 185.618311,21.8649333 187.108533,23.5556 C188.545422,25.1907111 189.264089,27.2382667 189.264089,29.6982667 C189.264089,32.4796 188.545422,34.6320444 187.108533,36.1551556 C185.697422,37.6502667 183.739644,38.3982667 181.234756,38.3982667 C178.768978,38.3840444 176.817422,37.6018222 175.380089,36.0507111 C173.929422,34.4853778 173.204978,32.3742667 173.204978,29.7191556 C173.204978,27.1058222 173.9232,25.0089333 175.360533,23.4298222 C176.824089,21.8227111 178.7952,21.0182667 181.274311,21.0182667 Z M241.446133,20.4784889 C241.419467,22.1664889 241.426133,23.5633778 241.465689,24.6713778 L247.339911,24.6713778 L247.339911,26.2731556 L241.505244,26.2731556 C241.597689,28.1060444 241.749244,29.7936 241.960356,31.3367111 L242.079022,32.1473778 C243.094133,30.9607111 243.937689,29.4118222 244.610578,27.4998222 L246.944356,27.4998222 C245.942133,30.4664889 244.5048,32.7278222 242.6328,34.2833778 C242.922578,35.0878222 243.271911,35.6940444 243.6808,36.1029333 C244.049689,36.4718222 244.439022,36.6562667 244.847467,36.6562667 C245.230133,36.6562667 245.500356,36.5442667 245.659022,36.3207111 C245.8168,36.1096 245.896356,35.7402667 245.896356,35.2127111 L247.6368,35.2127111 C247.6368,36.3073778 247.412356,37.1047111 246.963911,37.6060444 C246.515467,38.1069333 245.8368,38.3576 244.927022,38.3576 C243.199467,38.3576 241.861689,37.4144889 240.911911,35.5291556 C240.107467,36.0171556 238.987022,36.5838222 237.549689,37.2300444 L237.549689,35.5887111 C238.643911,34.9824889 239.5408,34.4087111 240.239467,33.8678222 C240.0288,33.2220444 239.844356,32.4442667 239.685689,31.5340444 C239.421689,30.1500444 239.231022,28.3962667 239.112356,26.2731556 L237.134578,26.2731556 L237.134578,24.6713778 L239.0328,24.6713778 C238.980356,23.5509333 238.954133,22.1531556 238.954133,20.4784889 L241.446133,20.4784889 Z M223.764933,20.6764889 C223.672489,21.3751556 223.573822,21.8960444 223.468489,22.2387111 L227.4436,22.2387111 L227.4436,23.8009333 L222.8356,23.8009333 C222.492044,24.3684889 222.050711,24.8427111 221.510267,25.2249333 L226.6916,25.2249333 L226.6916,26.8867111 C226.309378,27.9147111 225.723156,28.8316 224.932044,29.6356 L224.932044,30.4858222 L227.483156,30.4858222 L227.483156,32.0484889 L224.932044,32.0484889 L224.932044,36.1622667 C224.932044,36.8871556 224.773378,37.4080444 224.456933,37.7244889 C224.140489,38.0409333 223.6196,38.1996 222.894711,38.1996 L221.312489,38.1996 L221.312489,36.5578222 L222.044044,36.5578222 C222.281822,36.5578222 222.452489,36.5049333 222.558711,36.3996 C222.664044,36.2942667 222.716489,36.1227111 222.716489,35.8853778 L222.716489,32.0484889 L220.125822,32.0484889 L220.125822,30.4858222 L222.716489,30.4858222 L222.716489,29.3191556 C223.494267,28.5018222 224.028489,27.6840444 224.318711,26.8667111 L221.0556,26.8667111 L221.0556,25.5413778 C220.699156,25.7658222 220.296933,25.9769333 219.848933,26.1742667 L219.848933,24.7902667 C220.4156,24.1969333 220.811156,23.6231556 221.0356,23.0693778 C221.285822,22.4760444 221.444044,21.6787111 221.510267,20.6764889 L223.764933,20.6764889 Z M213.045378,30.3080444 C212.887156,33.2351556 212.405822,35.8391556 211.601378,38.1204889 L209.327156,38.1204889 C210.316044,35.6813778 210.9156,33.0769333 211.126711,30.3080444 L213.045378,30.3080444 Z M199.963822,21.2491556 C201.730489,21.2491556 203.055378,21.6056 203.939378,22.3189333 C204.795822,23.0038222 205.224711,24.0096 205.224711,25.3376 C205.224711,26.4140444 204.994044,27.2522667 204.532711,27.8531556 C204.070933,28.4540444 203.326044,28.9153778 202.2976,29.2367111 C203.4576,29.4602667 204.354489,29.9287111 204.987378,30.6416 C205.606933,31.3407111 205.917156,32.2207111 205.917156,33.2833778 C205.917156,34.9740444 205.4616,36.1971556 204.552267,36.9518222 C203.615822,37.7202667 202.106489,38.1047111 200.022933,38.1047111 L192.428267,38.1047111 L192.428267,21.2491556 L199.963822,21.2491556 Z M236.739022,22.3576 L236.739022,23.8802667 C236.488356,27.8620444 235.723467,30.9082667 234.4448,33.0176 C235.130133,34.0856 236.019911,35.1602667 237.114578,36.2416 L237.114578,38.0611556 C235.439911,36.8078222 234.174578,35.6549333 233.317244,34.5993778 C232.447022,35.6549333 231.207911,36.8078222 229.599467,38.0611556 L229.599467,36.2216 C230.719467,35.0349333 231.583467,33.9669333 232.190133,33.0176 C231.029689,31.0793778 230.278133,28.3829333 229.935467,24.9287111 L232.091022,24.9287111 C232.341689,27.3549333 232.750578,29.3127111 233.317244,30.8024889 C233.990133,29.0887111 234.391911,26.8140444 234.523911,23.9789333 L229.895911,23.9789333 L229.895911,22.3576 L236.739022,22.3576 Z M199.469156,30.3691556 L195.118044,30.3691556 L195.118044,36.3229333 L199.666933,36.3229333 C200.906044,36.3229333 201.802933,36.0922667 202.356711,35.6313778 C202.910489,35.1696 203.187378,34.4291556 203.187378,33.4091556 C203.161156,31.4380444 201.922044,30.4247111 199.469156,30.3691556 Z M181.234756,22.9893778 C179.718311,22.9893778 178.472089,23.5973778 177.496533,24.8133778 C176.494311,26.0573778 175.993422,27.6853778 175.993422,29.6982667 C175.993422,31.8084889 176.500978,33.4578222 177.516533,34.6458222 C178.465867,35.7498222 179.698311,36.3018222 181.214756,36.3018222 C182.876089,36.3018222 184.168533,35.7431556 185.0912,34.6249333 C186.040533,33.4791556 186.5152,31.8360444 186.5152,29.6982667 C186.5152,27.6293778 186.033867,25.9947111 185.071644,24.7924889 C184.108978,23.5907111 182.829867,22.9893778 181.234756,22.9893778 Z M211.819156,25.5218222 C212.3596,26.6822667 212.755156,27.9480444 213.005822,29.3191556 L210.968933,29.3191556 C210.784044,28.1458222 210.428044,26.8800444 209.900489,25.5218222 L211.819156,25.5218222 Z M199.152711,23.0313778 L195.118044,23.0313778 L195.118044,28.3562667 L199.251822,28.3562667 C201.387378,28.3562667 202.455822,27.4482667 202.455822,25.6309333 C202.455822,24.7367111 202.191822,24.0798222 201.664267,23.6602667 C201.137156,23.2407111 200.299822,23.0313778 199.152711,23.0313778 Z M211.640933,20.9133778 C212.155156,22.0604889 212.544044,23.3267111 212.808044,24.7107111 L210.770711,24.7107111 C210.533378,23.4320444 210.177378,22.1662667 209.703156,20.9133778 L211.640933,20.9133778 Z M244.907022,20.9531556 C245.381689,21.8104889 245.724356,22.8193778 245.935911,23.9789333 L243.779911,23.9789333 C243.634578,22.9242667 243.357689,21.9153778 242.949244,20.9531556 L244.907022,20.9531556 Z" id="path-2"></path>
    </defs>
    <g id="WAP" stroke="none" stroke-width="1" fill="none" fill-rule="evenodd">
        <g id="wap-菜单展开" transform="translate(-128.000000, -56.000000)">
            <g id="OB游戏logo1" transform="translate(0.000000, 44.000000)">
                <use fill="#BB9E7B" xlink:href="#path-2"></use>
                <use fill="url(#linearGradient-1)" xlink:href="#path-2"></use>
            </g>
        </g>
    </g>
</svg>