<?xml version="1.0" encoding="UTF-8"?>
<svg width="120px" height="40px" viewBox="0 0 120 40" version="1.1" xmlns="http://www.w3.org/2000/svg" xmlns:xlink="http://www.w3.org/1999/xlink">
    <title>OB游戏logo白色</title>
    <defs>
        <path d="M147.933636,56 C158.942496,56 167.867273,64.9541424 167.867273,75.9997764 C167.867273,87.0454103 158.942496,96 147.933636,96 C136.924777,96 128,87.0454103 128,75.9997764 C128,64.9541424 136.924777,56 147.933636,56 Z M184.772503,87.759228 C185.294527,87.759228 185.758151,87.9506648 186.110774,88.3053596 C186.570535,88.7662391 186.601186,89.2473796 186.603229,90.2149892 L186.603375,90.42995 C186.603375,91.5436827 186.603375,92.0602936 186.110774,92.5545405 C185.758151,92.908788 185.294527,93.100672 184.772503,93.100672 C184.250479,93.100672 183.7873,92.908788 183.434232,92.5545405 C182.974055,92.0932434 182.943376,91.6124648 182.941331,90.6449052 L182.941185,90.42995 C182.941185,89.3162173 182.941185,88.7991591 183.434232,88.3053596 C183.7873,87.9506648 184.250479,87.759228 184.772503,87.759228 Z M234.208902,87.7594516 C234.878037,87.7594516 235.319372,87.9285243 235.76784,88.3346565 L235.407639,88.6956133 C235.083993,88.4008543 234.738504,88.2456474 234.187058,88.2456474 C233.4885,88.2456474 233.08372,88.6370193 233.08372,89.219828 C233.08372,89.4779099 233.157276,89.6845542 233.319544,89.8250008 C233.480922,89.9650002 233.752855,90.0683224 234.025235,90.1126033 L234.598971,90.2011652 C235.091126,90.2749667 235.334083,90.3782889 235.554305,90.570173 C235.841396,90.8134945 235.996086,91.1748985 235.996086,91.6101041 C235.996086,92.5324 235.275239,93.1004484 234.187058,93.1004484 C233.399787,93.1004484 232.885342,92.9014078 232.392741,92.4067137 L232.775231,92.0233929 C233.208988,92.4585984 233.613322,92.5990451 234.201769,92.5990451 C234.966304,92.5990451 235.437061,92.2371938 235.437061,91.6248644 C235.437061,91.3524696 235.355927,91.1158573 235.186972,90.9682541 C235.01757,90.820651 234.88517,90.7768174 234.503125,90.7173288 L233.892834,90.6216104 C233.480922,90.5554127 233.157276,90.4225699 232.929476,90.223082 C232.664674,89.986917 232.532274,89.6626374 232.532274,89.2417448 C232.532274,88.3494169 233.172433,87.7594516 234.208902,87.7594516 Z M197.277399,87.8031511 L198.512,90.317 L199.733273,87.8031511 L200.336431,87.8031511 L198.792204,90.8871619 L198.792204,93.0564806 L198.233179,93.0564806 L198.233179,90.8871619 L196.674241,87.8031511 L197.277399,87.8031511 Z M217.952612,87.8034195 L217.952612,88.3052701 L215.26136,88.3052701 L215.26136,90.1570184 L217.555411,90.1570184 L217.555411,90.658869 L215.26136,90.658869 L215.26136,92.554451 L217.952612,92.554451 L217.952612,93.0563016 L214.702335,93.0563016 L214.702335,87.8034195 L217.952612,87.8034195 Z M209.995028,87.8034195 L209.995028,90.1570184 L212.480324,90.1570184 L212.480324,87.8034195 L213.038903,87.8034195 L213.038903,93.0563016 L212.480324,93.0563016 L212.480324,90.658869 L209.995028,90.658869 L209.995028,93.0563016 L209.436003,93.0563016 L209.436003,87.8034195 L209.995028,87.8034195 Z M225.190731,87.8035537 C226.102378,87.8035537 226.734958,88.3273211 226.734958,89.2048888 C226.734958,89.7586242 226.403734,90.1938297 225.962399,90.3561932 C226.462579,90.5409207 226.815647,90.975679 226.815647,91.603216 C226.815647,92.5545852 226.183066,93.0564358 225.256708,93.0564358 L223.21988,93.0564358 L223.21988,87.8035537 L225.190731,87.8035537 Z M231.530577,87.8034195 L231.530577,88.3052701 L228.839324,88.3052701 L228.839324,90.1570184 L231.133375,90.1570184 L231.133375,90.658869 L228.839324,90.658869 L228.839324,92.554451 L231.530577,92.554451 L231.530577,93.0563016 L228.280746,93.0563016 L228.280746,87.8034195 L231.530577,87.8034195 Z M208.309529,87.8034195 L208.309529,88.3052701 L206.79517,88.3052701 L206.79517,93.0563016 L206.236145,93.0563016 L206.236145,88.3052701 L204.721341,88.3052701 L204.721341,87.8034195 L208.309529,87.8034195 Z M194.158453,87.8034195 L194.158453,92.554451 L196.834994,92.554451 L196.834994,93.0563016 L193.599428,93.0563016 L193.599428,87.8034195 L194.158453,87.8034195 Z M240.364367,87.8034195 L240.364367,88.3052701 L238.850008,88.3052701 L238.850008,93.0563016 L238.290984,93.0563016 L238.290984,88.3052701 L236.776625,88.3052701 L236.776625,87.8034195 L240.364367,87.8034195 Z M188.59763,87.8034195 L191.37715,92.0016102 L191.37715,87.8034195 L191.935729,87.8034195 L191.935729,93.0563016 L191.406572,93.0563016 L188.627053,88.8433506 L188.627053,93.0563016 L188.068028,93.0563016 L188.068028,87.8034195 L188.59763,87.8034195 Z M184.772503,88.2606313 C184.426567,88.2606313 184.095789,88.401078 183.867989,88.637243 C183.559262,88.9536802 183.506449,89.283365 183.500779,90.2197854 L183.50021,90.42995 C183.50021,91.5289224 183.53721,91.8836172 183.867989,92.2226571 C184.095789,92.4588221 184.426567,92.5988214 184.772503,92.5988214 C185.117993,92.5988214 185.448771,92.4588221 185.677017,92.2226571 C186.007795,91.8836172 186.04435,91.5289224 186.04435,90.42995 C186.04435,89.3305304 186.007795,88.9762829 185.677017,88.637243 C185.448771,88.401078 185.117993,88.2606313 184.772503,88.2606313 Z M225.205442,90.6290353 L223.778904,90.6290353 L223.778904,92.5545852 L225.205442,92.5545852 C225.852288,92.5545852 226.256622,92.1784209 226.256622,91.5884556 C226.256622,90.9975959 225.852288,90.6290353 225.205442,90.6290353 Z M179.697461,90.1826924 L179.697461,90.6769392 L177.682476,90.6769392 L177.682476,90.1826924 L179.697461,90.1826924 Z M245.286547,90.1826924 L245.286547,90.6769392 L243.271562,90.6769392 L243.271562,90.1826924 L245.286547,90.1826924 Z M153.529543,67.1874224 L143.871882,67.1874224 C143.784952,67.1874224 143.711644,67.2451964 143.689623,67.3620385 L143.682866,67.4392423 L143.683312,68.0336803 C143.683312,68.1365553 143.766229,68.2206443 143.868761,68.2215389 L144.056886,68.2231603 L144.056886,68.2231603 L144.235649,68.2237753 L144.349326,68.2242226 C144.558849,68.2242226 144.77283,68.223328 145.045655,68.2219862 C145.7694,68.2063561 146.528932,68.8737536 146.600576,69.5911547 L146.605931,69.7181451 L146.605179,70.5053312 C146.605113,70.5578376 146.605043,70.61239 146.60497,70.6688994 L146.60421,71.227911 C146.604116,71.295359 146.604018,71.3644964 146.603916,71.4352339 L146.603271,71.8781486 C146.603158,71.9549304 146.603041,72.033134 146.602922,72.1126704 L146.602172,72.6051679 C146.601781,72.8586996 146.601367,73.1226209 146.600933,73.3945243 L146.600038,73.9482606 C146.599323,74.3861126 146.598564,74.8393959 146.597775,75.2990487 L146.596569,75.9921726 L146.596123,82.6879871 C146.596123,82.7814691 146.700885,82.8364848 146.775332,82.7801273 C147.429311,82.2863277 149.465693,80.5168793 149.486646,77.609545 C149.493667,76.6784712 149.497616,75.6138417 149.499091,74.4162558 L149.499054,72.6073208 C149.497736,71.4926414 149.494733,70.2842127 149.489766,68.9814713 C149.48854,68.5972932 149.772377,68.2770081 150.141433,68.2262951 L150.244048,68.2193025 L153.658377,68.2193025 C154.143846,68.2193025 154.629314,68.3382795 155.033648,68.6079907 C155.240496,68.7453063 155.449573,68.9313757 155.629674,69.182301 C156.259134,70.0594214 156.74594,71.1722596 156.691999,73.2002371 C156.691999,74.4575473 156.034008,76.6604122 154.512071,77.2749779 C154.477299,77.2889928 154.44748,77.3125496 154.426709,77.3428654 L154.402851,77.3930604 L153.982023,78.8248107 C153.958841,78.904427 154.026156,78.977334 154.108182,78.9670465 C155.402319,78.7988684 156.285881,79.5503025 156.90375,80.5133011 C157.549259,81.5187914 157.765914,82.6280513 157.842145,83.9694506 C157.842145,86.0113785 156.957165,89.1487237 154.52981,89.3168184 L154.323946,89.3238659 L151.133851,89.3238659 C150.16591,89.2871142 149.54948,88.6582989 149.483976,87.8364512 L149.478175,87.6894967 L149.478175,85.1368572 C149.478175,85.0469534 149.380101,84.9937269 149.304762,85.0429279 C148.498768,85.5653535 147.612977,85.9951917 146.724512,86.2282257 C146.658534,86.2457592 146.60882,86.2959264 146.591573,86.3588035 L146.584979,86.4080332 L146.584979,87.6894967 C146.584979,88.5996924 145.829985,89.2521644 144.976125,89.3183244 L144.833012,89.3238659 L143.871882,89.3238659 C143.784952,89.3238659 143.711644,89.3825716 143.689623,89.4627097 L143.682866,89.5130662 L143.682866,90.3722953 C143.682866,90.4591426 143.741686,90.5326336 143.82166,90.5547181 L143.871882,90.5614957 L154.314584,90.5614957 C155.055047,90.5583647 157.374954,90.409867 159.046232,88.6981181 C160.294452,87.4197855 160.898056,85.8216462 160.898056,83.9694506 C160.898056,81.0652473 158.476954,78.5658343 156.182903,78.0389359 C158.254949,77.2709524 159.875407,75.1740934 159.827261,72.7820282 C159.858467,71.0890651 159.074317,69.480191 157.765914,68.4241577 C156.457957,67.3685717 155.08224,67.1932371 153.529543,67.1874224 Z M225.146598,88.3054043 L223.778904,88.3054043 L223.778904,90.127632 L225.146598,90.127632 C225.727466,90.127632 226.175934,89.839135 226.175934,89.2124926 C226.175934,88.5858502 225.727466,88.3054043 225.146598,88.3054043 Z M144.426449,61.396436 C141.985732,61.3901978 139.660475,62.6202239 137.83629,64.931331 C136.012105,67.2424381 135.093771,70.0562905 135.093771,73.4542934 C135.009962,76.1907659 135.997394,79.3101119 137.251855,81.1739369 C138.506317,83.0373145 140.897997,85.4866319 144.459437,85.4759322 C148.020878,85.4638205 149.972114,83.1956524 150.82447,82.2720147 C151.676381,81.3488242 152.706163,79.6057655 153.387335,77.0983014 C154.008324,74.6977379 153.976227,72.130338 153.291043,69.4444084 C153.273925,69.3764215 153.221143,69.324179 153.156207,69.3060014 L153.105594,69.2990417 L150.816892,69.2990417 C150.696528,69.2990417 150.607815,69.4122041 150.633225,69.5302866 C150.884207,70.6833801 151.078127,71.7224167 151.076344,72.9783851 C151.085259,74.4794642 150.968462,75.7112793 150.668443,77.2727415 C150.418799,78.571649 149.701518,80.373749 148.998502,81.4713795 C147.33926,84.0602489 145.343891,84.0767984 144.447847,84.0767984 C142.466297,84.0767984 140.631858,82.8485614 139.575329,80.922117 C138.519691,78.994778 137.809097,75.9322367 137.83629,73.3657315 C137.83629,70.6605687 138.398435,68.0573863 139.660475,65.823659 C140.922069,63.590379 142.653084,62.7892965 144.408617,62.7892965 C146.16415,62.7892965 147.19304,63.3662906 147.986998,64.1159355 C148.295041,64.4062217 149.004297,65.3669839 149.297629,65.9260866 C149.350768,66.028067 149.443279,66.1008487 149.551425,66.1258822 L149.635095,66.1354147 L151.714273,66.1354147 C151.800757,66.1354147 151.857373,66.0450637 151.815468,65.969473 C151.223455,64.9035995 148.736376,61.3906451 144.426449,61.396436 Z M218.084299,64.7513894 L218.084299,66.5427546 L220.246842,66.5427546 L220.246842,68.1149515 L216.655979,68.1149515 L216.655979,69.0703463 C216.655979,69.7605027 216.649292,70.2645898 216.636364,70.583502 L219.870146,70.583502 L219.870146,79.6794328 C219.870146,80.5950195 219.67801,81.2516298 219.294628,81.6497109 C218.924174,82.0343736 218.296051,82.2271523 217.409815,82.2271523 L216.180317,82.2271523 L216.180317,80.6746357 L216.814681,80.6746357 C217.198509,80.6746357 217.469551,80.5883103 217.628253,80.4156593 C217.799883,80.2300372 217.886367,79.9182815 217.886367,79.4803923 L217.886367,72.0760827 L216.616303,72.0760827 C216.550326,74.9024589 216.26591,77.045388 215.763501,78.5053171 C215.260646,79.9647989 214.434592,81.3513737 213.283554,82.6650415 L213.283554,80.3959789 C213.825638,79.1221192 214.182719,77.8352883 214.355241,76.5345917 C214.530995,75.2109718 214.623466,73.1328887 214.632274,70.3003422 L214.63297,68.1149515 L213.600959,68.1149515 L213.600959,66.5427546 L215.783554,66.5427546 L215.783554,64.7513894 L218.084299,64.7513894 Z M181.436143,65.075669 C183.842534,65.075669 185.793324,65.9277416 187.288068,67.6292031 C188.729317,69.2747543 189.450165,71.3353834 189.450165,73.8110904 C189.450165,76.6101824 188.729317,78.7763701 187.288068,80.3092062 C185.872676,81.8138635 183.908957,82.5666395 181.396468,82.5666395 C178.923208,82.5523264 176.96573,81.7651098 175.524036,80.2040949 C174.068967,78.628767 173.342324,76.5041765 173.342324,73.8321126 C173.342324,71.2020933 174.062726,69.0918159 175.504421,67.5026222 C176.972417,65.8852498 178.949509,65.075669 181.436143,65.075669 Z M241.790549,64.5324447 C241.763801,66.2312225 241.770488,67.6370305 241.810163,68.752105 L247.70221,68.752105 L247.70221,70.3641101 L241.849839,70.3641101 C241.942564,72.2087019 242.094579,73.9070324 242.306331,75.4599962 L242.425358,76.2758389 C243.443549,75.0815955 244.289664,73.522817 244.964595,71.598609 L247.305454,71.598609 C246.300191,74.5842176 244.858496,76.8599895 242.980816,78.4254772 C243.271473,79.235058 243.621866,79.8451509 244.031996,80.2566505 C244.402004,80.6278948 244.792519,80.8135169 245.202203,80.8135169 C245.586031,80.8135169 245.857073,80.7008018 246.016221,80.4758188 C246.174477,80.2633598 246.254274,79.8916683 246.254274,79.3607443 L248,79.3607443 C248,80.4624003 247.774875,81.2648246 247.325069,81.7693589 C246.875264,82.273446 246.194538,82.5257131 245.282,82.5257131 C243.549202,82.5257131 242.207365,81.5765803 241.254705,79.6792092 C240.44782,80.1703251 239.323976,80.7406099 237.882281,81.3909582 L237.882281,79.739145 C238.979823,79.1290521 239.879434,78.5516108 240.58022,78.0072683 C240.368915,77.3573673 240.18391,76.5746234 240.024762,75.6585895 C239.759961,74.2657527 239.568716,72.5007772 239.449689,70.3641101 L237.46591,70.3641101 L237.46591,68.752105 L239.369892,68.752105 C239.317289,67.6245066 239.290987,66.2178041 239.290987,64.5324447 L241.790549,64.5324447 Z M224.055697,64.731709 C223.962972,65.4348366 223.864006,65.9590513 223.758353,66.3039059 L227.745526,66.3039059 L227.745526,67.8761028 L223.123544,67.8761028 C222.778946,68.4472822 222.336274,68.9245323 221.794189,69.309195 L226.991245,69.309195 L226.991245,70.9815832 C226.607863,72.0161469 226.019862,72.9388901 225.22635,73.7480236 L225.22635,74.6036744 L227.785202,74.6036744 L227.785202,76.1763186 L225.22635,76.1763186 L225.22635,80.3163627 C225.22635,81.04588 225.067202,81.5700947 224.749797,81.8885596 C224.432393,82.2070246 223.909923,82.3667043 223.182835,82.3667043 L221.595811,82.3667043 L221.595811,80.7144439 L222.329587,80.7144439 C222.568086,80.7144439 222.739271,80.6612173 222.845815,80.5552114 C222.951468,80.4492055 223.004072,80.2765546 223.004072,80.0377059 L223.004072,76.1763186 L220.405544,76.1763186 L220.405544,74.6036744 L223.004072,74.6036744 L223.004072,73.4295586 C223.784209,72.6070067 224.320053,71.7840074 224.611156,70.9614555 L221.338143,70.9614555 L221.338143,69.6276599 C220.980617,69.8535374 220.577174,70.0659965 220.127815,70.2645898 L220.127815,68.871753 C220.696201,68.2746313 221.092957,67.6971899 221.318082,67.1398763 C221.569064,66.5427546 221.727766,65.7403303 221.794189,64.731709 L224.055697,64.731709 Z M213.303615,74.4247615 C213.144912,77.3705621 212.662119,79.9911885 211.855233,82.2870881 L209.57411,82.2870881 C210.566,79.8324034 211.167374,77.2113297 211.379126,74.4247615 L213.303615,74.4247615 Z M200.182365,65.3080321 C201.954392,65.3080321 203.283301,65.6667524 204.169984,66.3846403 C205.029027,67.0739022 205.459217,68.0861018 205.459217,69.422581 C205.459217,70.5058985 205.227851,71.3494728 204.765118,71.9541983 C204.301939,72.5589238 203.554789,73.0232028 202.523224,73.3465878 C203.686744,73.5715707 204.586355,74.0430062 205.221164,74.7604468 C205.842599,75.4640217 206.153763,76.3496405 206.153763,77.4190922 C206.153763,79.1205537 205.696825,80.3514744 204.784732,81.1109595 C203.845447,81.8843105 202.331533,82.2712096 200.241655,82.2712096 L192.623944,82.2712096 L192.623944,65.3080321 L200.182365,65.3080321 Z M237.069154,66.4235539 L237.069154,67.9559427 C236.817727,71.9631439 236.050517,75.0288162 234.767971,77.1516175 C235.455384,78.2264366 236.347861,79.307965 237.44585,80.3962026 L237.44585,82.2273759 C235.766101,80.9660401 234.496928,79.8057901 233.636994,78.7434948 C232.764131,79.8057901 231.52126,80.9660401 229.907935,82.2273759 L229.907935,80.3760749 C231.031333,79.1818314 231.897955,78.1070123 232.506463,77.1516175 C231.342497,75.2010198 230.588661,72.4873587 230.244954,69.0110814 L232.407051,69.0110814 C232.658478,71.452795 233.068608,73.4230731 233.636994,74.922363 C234.311924,73.1976428 234.714921,70.9084525 234.847322,68.0552394 L230.205279,68.0552394 L230.205279,66.4235539 L237.069154,66.4235539 Z M199.686197,74.4862628 L195.321883,74.4862628 L195.321883,80.4780552 L199.884575,80.4780552 C201.127446,80.4780552 202.027057,80.2459158 202.582515,79.7820841 C203.137973,79.3173579 203.415702,78.5721858 203.415702,77.5456731 C203.3894,75.5619765 202.146529,74.5421731 199.686197,74.4862628 Z M181.396468,67.0593655 C179.875422,67.0593655 178.625418,67.6712476 177.646902,68.8950117 C176.641639,70.1469546 176.13923,71.7853493 176.13923,73.8110904 C176.13923,75.9347863 176.648326,77.5946505 177.666963,78.7902358 C178.619177,79.9012848 179.855361,80.4568093 181.376407,80.4568093 C183.042781,80.4568093 184.339147,79.8945756 185.264614,78.7692136 C186.216828,77.6161201 186.692935,75.9625178 186.692935,73.8110904 C186.692935,71.7289917 186.210141,70.0838878 185.244999,68.8739894 C184.279411,67.6645383 182.996419,67.0593655 181.396468,67.0593655 Z M212.073672,69.6079795 C212.615756,70.7758333 213.012512,72.0496931 213.263939,73.4295586 L211.22087,73.4295586 C211.03542,72.2487336 210.67834,70.9748739 210.149183,69.6079795 L212.073672,69.6079795 Z M199.368793,67.1016337 L195.321883,67.1016337 L195.321883,72.4605218 L199.468205,72.4605218 C201.61024,72.4605218 202.681927,71.5467242 202.681927,69.7177873 C202.681927,68.8178555 202.417126,68.1567724 201.887969,67.734538 C201.359259,67.3123036 200.519385,67.1016337 199.368793,67.1016337 Z M211.894909,64.9701104 C212.410691,66.1245457 212.80076,67.3988527 213.065561,68.7916895 L211.022046,68.7916895 C210.783992,67.5048586 210.426912,66.2309989 209.951251,64.9701104 L211.894909,64.9701104 Z M245.261939,65.0101421 C245.738046,65.8729495 246.081753,66.8882801 246.29395,68.0552394 L244.131408,68.0552394 C243.985634,66.9938387 243.707905,65.9785081 243.298221,65.0101421 L245.261939,65.0101421 Z" id="path-1"></path>
    </defs>
    <g id="WAP" stroke="none" stroke-width="1" fill="none" fill-rule="evenodd">
        <g id="OB游戏logo白色" transform="translate(-128.000000, -56.000000)">
            <use fill="#BB9E7B" xlink:href="#path-1"></use>
            <use fill="#FFFFFF" xlink:href="#path-1"></use>
        </g>
    </g>
</svg>