<?xml version="1.0" encoding="UTF-8"?>
<svg width="34px" height="34px" viewBox="0 0 34 34" version="1.1" xmlns="http://www.w3.org/2000/svg" xmlns:xlink="http://www.w3.org/1999/xlink">
    <title>形状结合</title>
    <g id="控件" stroke="none" stroke-width="1" fill="none" fill-rule="evenodd">
        <g id="编组-12备份" transform="translate(-183.000000, -244.000000)" fill="#FFFFFF">
            <path d="M199.999502,244 C209.389057,244 217,251.610943 217,260.999502 C217,270.389057 209.389057,278 199.999502,278 C190.610943,278 183,270.389057 183,260.999502 C183,251.610943 190.610943,244 199.999502,244 Z M195.393455,250.999785 C192.307803,250.999785 189.807378,253.465326 189.807378,256.508108 C189.807378,257.52403 190.087529,258.474152 190.574055,259.292672 C190.444448,259.920769 190.379644,260.559833 190.379644,261.200891 C190.379644,266.446999 194.691581,270.697123 200.010468,270.697123 C200.613641,270.697123 201.201859,270.643287 201.775122,270.538604 C202.587661,270.969299 203.494912,271.193619 204.415125,271.192626 C207.49978,271.192626 210.000205,268.726094 210.000205,265.686303 C210.000205,264.806967 209.79084,263.97748 209.419963,263.239715 C209.565522,262.581708 209.641293,261.900771 209.641293,261.200891 C209.641293,255.957775 205.330352,251.705656 200.010468,251.705656 C199.450166,251.705656 198.90083,251.753511 198.364455,251.844237 C197.472158,251.290913 196.442278,250.997801 195.393455,250.999785 Z M200.042471,254.616738 C200.87794,254.616738 201.61072,254.711451 202.22486,254.89988 C202.840993,255.088309 203.359423,255.343536 203.767188,255.658581 C204.17894,255.975621 204.48601,256.313597 204.67743,256.665531 C204.870844,257.021453 204.970542,257.37538 204.970542,257.717345 C204.970542,258.046348 204.840935,258.346439 204.585708,258.60665 C204.330481,258.869853 204.006463,259.003448 203.625617,259.003448 C203.280662,259.003448 203.008486,258.919702 202.822051,258.7552 C202.645585,258.601666 202.464135,258.363387 202.262745,258.02242 C202.029452,257.585743 201.747307,257.241785 201.423288,256.998522 C201.108243,256.762238 200.584828,256.644594 199.861021,256.644594 C199.193045,256.644594 198.6467,256.776196 198.241926,257.038401 C197.852107,257.28964 197.661684,257.578764 197.661684,257.922722 C197.661684,258.132088 197.723496,258.307557 197.850113,258.4581 C197.981714,258.618614 198.169146,258.757194 198.407425,258.875835 C198.652682,258.997466 198.905914,259.095171 199.160144,259.162965 C199.419359,259.234748 199.854042,259.340428 200.453227,259.477014 C201.150116,259.620579 201.840026,259.799038 202.518969,260.010398 C203.143078,260.206803 203.68045,260.447075 204.120118,260.730217 C204.567762,261.017347 204.92169,261.38623 205.173926,261.826895 C205.426162,262.270551 205.553775,262.815899 205.553775,263.450975 C205.553775,264.210674 205.332446,264.902577 204.899757,265.507744 C204.468064,266.111914 203.829,266.589467 202.998516,266.92844 C202.179996,267.264422 201.197971,267.435903 200.078363,267.435903 C198.735431,267.435903 197.609841,267.203607 196.729508,266.743002 C196.10141,266.409014 195.583978,265.956385 195.191168,265.395085 C194.793373,264.831792 194.59298,264.272486 194.59298,263.730129 C194.59298,263.39315 194.724581,263.100038 194.982799,262.860763 C195.238026,262.621488 195.567029,262.502847 195.958842,262.502847 C196.27987,262.502847 196.55703,262.59756 196.782348,262.783996 C196.997695,262.965446 197.182136,263.231639 197.330686,263.5746 C197.496185,263.949465 197.676638,264.26451 197.867062,264.510764 C198.051503,264.752034 198.314705,264.953423 198.651685,265.111943 C198.989661,265.268469 199.447274,265.350221 200.009571,265.350221 C200.78223,265.350221 201.416309,265.186717 201.892866,264.865689 C202.359452,264.553635 202.58477,264.176776 202.58477,263.715175 C202.58477,263.352274 202.467126,263.066141 202.22486,262.840823 C201.968636,262.606533 201.632654,262.425083 201.225886,262.297469 C200.801173,262.167862 200.224919,262.026291 199.511081,261.878738 C198.539026,261.674357 197.715521,261.433088 197.060505,261.155928 C196.390535,260.875776 195.849175,260.485957 195.454371,259.998434 C195.052588,259.501938 194.849204,258.88082 194.849204,258.150034 C194.849204,257.454142 195.062558,256.826045 195.48428,256.285682 C195.901018,255.747313 196.512166,255.327584 197.29978,255.042448 C198.07543,254.759306 198.99664,254.616738 200.042471,254.616738 Z" id="形状结合"></path>
        </g>
    </g>
</svg>