<?xml version="1.0" encoding="UTF-8"?>
<svg width="34px" height="34px" viewBox="0 0 34 34" version="1.1" xmlns="http://www.w3.org/2000/svg" xmlns:xlink="http://www.w3.org/1999/xlink">
    <title>形状结合</title>
    <g id="控件" stroke="none" stroke-width="1" fill="none" fill-rule="evenodd">
        <g id="编组-12备份" transform="translate(-183.000000, -91.000000)" fill="#FFFFFF">
            <path d="M200,91 C209.388938,91 217,98.6120594 217,108.000997 C217,117.389935 209.388938,125 200,125 C190.611062,125 183,117.389935 183,108.000997 C183,98.6120594 190.611062,91 200,91 Z M200.001994,98.4206112 C194.817937,98.4206112 190.606077,102.634465 190.606077,107.815532 C190.606077,109.869611 191.268168,111.774122 192.394921,113.319667 L192.394921,113.319667 L191.224295,116.812599 L194.833891,115.658924 C196.366473,116.673998 198.164291,117.213444 200.001994,117.209477 C205.181066,117.209477 209.393923,112.995601 209.393923,107.815532 C209.393923,102.634465 205.181066,98.4206112 200.001994,98.4206112 L200.001994,98.4206112 Z M196.855034,102.625965 C197.403714,102.625965 197.524609,102.636953 197.705022,103.102409 C197.916124,103.650768 198.431325,105.00019 198.492703,105.138029 C198.745653,105.705366 198.234172,106.037977 197.864046,106.533398 C197.745941,106.681225 197.612026,106.843036 197.76175,107.118714 C197.910545,107.389397 198.425745,108.291343 199.182737,109.015497 C200.16106,109.951403 200.953391,110.250053 201.23703,110.376905 C201.448132,110.470795 201.700153,110.448821 201.854527,110.273027 C202.049819,110.046292 202.29347,109.669732 202.539911,109.297167 C202.714745,109.031478 202.936076,108.999515 203.168568,109.093406 C203.324802,109.151338 205.318647,110.146175 205.402344,110.304989 C205.464652,110.420854 205.464652,110.968214 205.253549,111.610463 C205.042447,112.252713 204.202689,112.784091 203.534044,112.939909 C203.075571,113.042789 202.477603,113.126691 200.464229,112.229739 C198.203484,111.223915 195.062991,107.639105 195.062991,105.253894 C195.062991,104.040312 195.714897,102.625965 196.855034,102.625965 Z" id="形状结合"></path>
        </g>
    </g>
</svg>