<?xml version="1.0" encoding="UTF-8"?>
<svg width="34px" height="34px" viewBox="0 0 34 34" version="1.1" xmlns="http://www.w3.org/2000/svg" xmlns:xlink="http://www.w3.org/1999/xlink">
    <title>Fill 1</title>
    <g id="控件" stroke="none" stroke-width="1" fill="none" fill-rule="evenodd">
        <g id="编组-12备份" transform="translate(-183.000000, -167.000000)" fill="#FFFFFF">
            <path d="M217,183.999502 C217,186.301528 216.551359,188.502859 215.65308,190.602498 C214.754802,192.702138 213.547459,194.510659 212.029059,196.028062 C210.511656,197.546462 208.702138,198.753805 206.602498,199.652083 C204.502859,200.550362 202.302525,200.999003 200.000498,200.999003 C197.698472,200.999003 195.497141,200.550362 193.397502,199.652083 C191.297862,198.753805 189.489341,197.546462 187.970941,196.028062 C186.453538,194.510659 185.245198,192.702138 184.347917,190.602498 C183.449638,188.502859 183,186.301528 183,183.999502 C183,181.697475 183.449638,179.496144 184.347917,177.396505 C185.245198,175.296865 186.453538,173.488344 187.970941,171.970941 C189.489341,170.452541 191.297862,169.245198 193.397502,168.34692 C195.497141,167.448641 197.698472,167 200.000498,167 C202.302525,167 204.502859,167.448641 206.602498,168.34692 C208.702138,169.245198 210.511656,170.452541 212.029059,171.970941 C213.547459,173.488344 214.754802,175.296865 215.65308,177.396505 C216.551359,179.496144 217,181.697475 217,183.999502 M206.408087,192.083013 L209.566519,177.191127 C209.696126,176.561036 209.621353,176.109404 209.341202,175.837228 C209.062047,175.565053 208.693165,175.515204 208.234554,175.686684 L189.6678,182.843005 C189.25206,183.000528 188.968918,183.179984 188.818374,183.380377 C188.668827,183.58077 188.649884,183.771193 188.765534,183.949653 C188.87919,184.129109 189.108495,184.268686 189.452453,184.368384 L194.202064,185.850893 L205.225669,178.910917 C205.526757,178.709527 205.756063,178.666657 205.913585,178.78131 C206.01428,178.853092 205.985368,178.960766 205.827845,179.103334 L196.909861,187.161921 L196.565903,192.062077 C196.894907,192.062077 197.217928,191.904554 197.532974,191.589508 L199.853942,189.35428 L204.667361,192.900537 C205.584582,193.415975 206.164824,193.1438 206.408087,192.083013" id="Fill-1"></path>
        </g>
    </g>
</svg>