<?xml version="1.0" encoding="UTF-8"?>
<svg width="34px" height="34px" viewBox="0 0 34 34" version="1.1" xmlns="http://www.w3.org/2000/svg" xmlns:xlink="http://www.w3.org/1999/xlink">
    <title>Fill 1</title>
    <g id="控件" stroke="none" stroke-width="1" fill="none" fill-rule="evenodd">
        <g id="Fill-1" transform="translate(-183.000000, -16.000000)" fill="#FFFFFF">
            <path d="M196.220617,29.8441322 C197.410174,28.6434165 198.4473,27.8994515 196.321241,25.2706421 C194.194186,22.6368463 192.792422,24.6702842 191.637736,25.8341008 C190.305711,27.179421 191.591907,32.16279 196.529463,37.0753527 C201.46702,41.9859209 206.450406,43.2374974 207.779441,41.8931746 C208.933132,40.7283607 210.951593,39.3072478 208.309462,37.1950254 C205.668327,35.0838002 204.936062,36.130936 203.746506,37.3306544 C202.915609,38.1723521 200.797521,36.4321122 198.968354,34.6130877 C197.13819,32.793066 195.389721,30.6838354 196.220617,29.8441322 M199.999502,50 C190.610572,50 183,42.3888188 183,32.9995014 C183,23.6101839 190.611569,16 199.999502,16 C209.388431,16 217,23.6101839 217,32.9995014 C217,42.3888188 209.388431,50 199.999502,50"></path>
        </g>
    </g>
</svg>