<?xml version="1.0" encoding="UTF-8"?>
<svg width="271px" height="90px" viewBox="0 0 271 90" version="1.1" xmlns="http://www.w3.org/2000/svg" xmlns:xlink="http://www.w3.org/1999/xlink">
    <title>彩票logo白色</title>
    <g id="pc" stroke="none" stroke-width="1" fill="none" fill-rule="evenodd">
        <path d="M45,0 C69.8528137,0 90,20.1471863 90,45 C90,69.8528137 69.8528137,90 45,90 C20.1471863,90 0,69.8528137 0,45 C0,20.1471863 20.1471863,0 45,0 Z M239.765414,66.8030862 C241.181571,66.8030862 242.145744,67.1383148 243.094935,67.9323267 L243.284703,68.0972828 L242.471553,68.9104327 C241.740926,68.2472325 240.960986,67.8980208 239.716102,67.8980208 C238.139114,67.8980208 237.226333,68.7785978 237.226333,70.0899027 C237.226333,70.6705803 237.392385,71.135525 237.757699,71.45052 C238.081527,71.73141 238.603351,71.9455067 239.146467,72.0602968 L239.350788,72.0986246 L240.645991,72.2968802 C241.757028,72.4629319 242.305502,72.6954042 242.803656,73.1271385 C243.450755,73.6746058 243.799966,74.4887622 243.799966,75.4669574 C243.799966,77.5431063 242.173667,78.8201946 239.716102,78.8201946 C238.038533,78.8201946 236.908537,78.4207356 235.851351,77.4395429 L235.665448,77.2603153 L236.528916,76.3968467 C237.508118,77.3770547 238.420899,77.6920496 239.749312,77.6920496 C241.475243,77.6920496 242.537974,76.8788997 242.537974,75.5011741 C242.537974,74.8872861 242.354814,74.3559208 241.973398,74.0238175 C241.620393,73.7172606 241.339418,73.6087866 240.619139,73.4886374 L240.429621,73.4582355 L239.051895,73.2428715 C238.122006,73.0939282 237.392385,72.7950352 236.877122,72.3471989 C236.279336,71.8148272 235.980443,71.0862127 235.980443,70.1382087 C235.980443,68.1304931 237.425595,66.8030862 239.765414,66.8030862 Z M128.163402,66.8026837 C129.341865,66.8026837 130.388494,67.2334116 131.184535,68.031466 C132.207615,69.0545455 132.289461,70.1202147 132.296009,72.2354654 L132.296009,73.3880345 C132.289461,75.5034155 132.207615,76.5698625 131.184535,77.5920161 C130.388494,78.3890641 129.341865,78.8207984 128.163402,78.8207984 C126.984938,78.8207984 125.939316,78.3890641 125.142268,77.5920161 C124.118262,76.5698625 124.036342,75.5034155 124.029788,73.3880345 L124.02929,72.5174026 C124.030999,70.2129621 124.07374,69.0990272 125.142268,68.031466 C125.939316,67.2334116 126.984938,66.8026837 128.163402,66.8026837 Z M156.39319,66.9024153 L159.181852,72.562261 L161.937303,66.9024153 L163.298927,66.9024153 L159.812848,73.841362 L159.812848,78.721268 L158.550855,78.721268 L158.550855,73.841362 L155.031567,66.9024153 L156.39319,66.9024153 Z M149.351996,66.9024153 L149.351996,77.5921167 L155.394264,77.5921167 L155.394264,78.721268 L148.090003,78.721268 L148.090003,66.9024153 L149.351996,66.9024153 Z M181.298625,66.9025159 L181.298625,68.0316672 L177.878967,68.0316672 L177.878967,78.7213687 L176.616974,78.7213687 L176.616974,68.0316672 L173.197316,68.0316672 L173.197316,66.9025159 L181.298625,66.9025159 Z M253.662227,66.9025159 L253.662227,68.0316672 L250.24257,68.0316672 L250.24257,78.7213687 L248.980577,78.7213687 L248.980577,68.0316672 L245.561926,68.0316672 L245.561926,66.9025159 L253.662227,66.9025159 Z M219.407179,66.9025159 C221.465213,66.9025159 222.893257,68.0809795 222.893257,70.0564911 C222.893257,71.3013754 222.145522,72.2815834 221.149212,72.6458906 C222.278363,73.061523 223.075411,74.0407246 223.075411,75.4516605 C223.075411,77.5208655 221.740983,78.6449681 219.763008,78.7176092 L219.556122,78.7213687 L214.958001,78.7213687 L214.958001,66.9025159 L219.407179,66.9025159 Z M233.719322,66.9025159 L233.719322,68.0316672 L227.643844,68.0316672 L227.643844,72.1980543 L232.822643,72.1980543 L232.822643,73.3272056 L227.643844,73.3272056 L227.643844,77.5922174 L233.719322,77.5922174 L233.719322,78.7213687 L226.382858,78.7213687 L226.382858,66.9025159 L233.719322,66.9025159 Z M203.067192,66.9025159 L203.067192,68.0316672 L196.991714,68.0316672 L196.991714,72.1980543 L202.170513,72.1980543 L202.170513,73.3272056 L196.991714,73.3272056 L196.991714,77.5922174 L203.067192,77.5922174 L203.067192,78.7213687 L195.729722,78.7213687 L195.729722,66.9025159 L203.067192,66.9025159 Z M185.103019,66.9021134 L185.103019,72.1976518 L190.713552,72.1976518 L190.713552,66.9021134 L191.974539,66.9021134 L191.974539,78.7209661 L190.713552,78.7209661 L190.713552,73.3268031 L185.103019,73.3268031 L185.103019,78.7209661 L183.841027,78.7209661 L183.841027,66.9021134 L185.103019,66.9021134 Z M136.799195,66.9021134 L143.072929,76.3479369 L143.072929,66.9021134 L144.334921,66.9021134 L144.334921,78.7209661 L143.139349,78.7209661 L136.864609,69.2419322 L136.864609,78.7209661 L135.602617,78.7209661 L135.602617,66.9021134 L136.799195,66.9021134 Z M128.163402,67.931835 C127.382456,67.931835 126.635726,68.2468299 126.121469,68.7781952 C125.40346,69.5116868 125.298617,70.2768137 125.291615,72.5336651 L125.291615,73.0897096 C125.298617,75.3457379 125.40346,76.1117952 126.121469,76.8452868 C126.635726,77.3766521 127.382456,77.6926535 128.163402,77.6926535 C128.943341,77.6926535 129.69007,77.3766521 130.205334,76.8452868 C130.923343,76.1117952 131.027255,75.3457379 131.034186,73.0897096 L131.034186,72.5336651 C131.027255,70.2768137 130.923343,69.5116868 130.205334,68.7781952 C129.69007,68.2468299 128.943341,67.931835 128.163402,67.931835 Z M219.440389,73.2597786 L216.219993,73.2597786 L216.219993,77.5922174 L219.440389,77.5922174 C220.900637,77.5922174 221.813418,76.7458571 221.813418,75.4184502 C221.813418,74.0900369 220.900637,73.2597786 219.440389,73.2597786 Z M44.7880407,65.5816356 C43.3610842,66.2459717 42.0349753,66.6900182 41.3588797,66.8437631 L41.3588797,66.8437631 L41.3588797,70.092643 L41.3536761,70.2855166 C41.2535037,72.1372566 39.7196276,73.6080471 37.8421956,73.6080471 C37.8007416,73.6080471 37.760768,73.6065664 37.720301,73.6080471 L37.720301,73.6080471 L35.1733452,73.6080471 L35.1733452,76.1538462 L53.6133648,76.1538462 L53.5172706,76.1312002 C52.49399,75.8573151 49.6302145,74.1653545 47.5966039,71.4781996 C46.0685023,69.45901 44.9652074,66.3106285 44.7880407,65.5816356 Z M59.5497682,48.3956286 C59.0396632,48.3956286 58.5362299,48.4241729 58.0404511,48.4780497 C56.7521811,51.7656229 52.9356252,60.057419 45.8624755,64.2788223 C46.8411552,70.9720313 52.5959344,76.1111017 59.5497682,76.1111017 C67.1905345,76.1111017 73.3846154,69.9067729 73.3846154,62.2533651 C73.3846154,54.5999574 67.1905345,48.3956286 59.5497682,48.3956286 Z M116.706642,72.2562227 L116.706642,73.3682657 L112.157833,73.3682657 L112.157833,72.2562227 L116.706642,72.2562227 Z M264.773398,72.2562227 L264.773398,73.3682657 L260.224589,73.3682657 L260.224589,72.2562227 L264.773398,72.2562227 Z M219.307548,68.0316672 L216.219993,68.0316672 L216.219993,72.1316337 L219.307548,72.1316337 C220.618853,72.1316337 221.631265,71.483529 221.631265,70.0725931 C221.631265,68.6626635 220.618853,68.0316672 219.307548,68.0316672 Z M61.8720909,53.5879363 C66.8904475,53.5879363 70.9586294,57.6561181 70.9586294,62.6744747 C70.9586294,67.6928314 66.8904475,71.7610132 61.8720909,71.7610132 C56.8537343,71.7610132 52.7855525,67.6928314 52.7855525,62.6744747 C52.7855525,57.6561181 56.8537343,53.5879363 61.8720909,53.5879363 Z M62.7140567,57.0500766 C59.4268335,57.0059426 57.8507676,59.3891785 57.985859,64.1997844 C57.9408285,67.5098344 59.3367726,69.1648593 62.1736913,69.1648593 C63.5696354,69.1207253 64.717912,68.7014524 65.6185211,67.9070404 C66.2489474,67.2008964 66.5866758,66.2520154 66.6317063,65.0603974 C66.4515845,62.8095635 65.213247,61.5958785 62.9166938,61.4193425 C61.9260238,61.4193425 61.1830213,61.7062135 60.6876863,62.2799555 C60.6876863,59.9849875 61.250567,58.8154365 62.3763283,58.7713025 C62.7816024,58.7713025 63.1193308,58.8595705 63.3895136,59.0361065 C63.5439037,59.2630814 63.6486684,59.5711187 63.7038077,59.9602184 L63.7038077,59.9602184 L63.727242,60.1615235 L66.2939779,60.1615235 L66.2852235,59.9638651 C66.165285,58.1491758 64.9748961,57.177913 62.7140567,57.0500766 Z M62.3087826,63.1405685 C63.3444831,63.1847025 63.8848486,63.9129134 63.929879,65.3252014 C63.8398181,66.7816234 63.2994526,67.5319014 62.3087826,67.5760354 C61.2730822,67.5319014 60.7327167,66.7816234 60.6876863,65.3252014 C60.7777472,63.9570474 61.3181126,63.2288365 62.3087826,63.1405685 Z M36.7502025,13.8461538 C25.6972732,13.8461538 16.6153846,25.3520996 16.6153846,39.5452503 C16.6153846,53.7379075 25.6972732,65.2441001 36.7502025,65.2441001 C37.0645623,65.2441001 37.3769481,65.231761 37.6883468,65.2127588 C38.9440587,65.1384775 40.1738618,64.9250114 41.3587564,64.5600214 C41.8744643,64.4013409 44.6199106,63.3477554 46.4969602,61.9473908 C49.1119157,59.9965147 50.3536372,58.61773 52.3966833,55.55845 C54.4397293,52.49917 55.8400332,47.7203847 55.8378125,47.7193976 C56.5161288,45.1513882 56.8845269,42.4029814 56.8845269,39.5452503 C56.8845269,36.4350617 56.4472855,33.4546802 55.6502823,30.6961554 L55.6502823,30.6961554 L49.929872,30.6961554 L50.0751938,31.3231702 C50.6354258,33.8483465 50.9415479,36.5766005 50.9415479,39.4240806 C50.9415479,42.6922094 50.536384,45.8026448 49.8101981,48.6305153 C49.8101981,48.6305153 47.2385673,55.7032763 43.9802307,59.6433914 C43.2843951,60.4849167 41.4581967,61.6647796 40.403833,62.1504458 C39.5458825,62.5452964 38.6417897,62.7789986 37.7204244,62.8846211 L37.7204244,62.8846211 L37.6891179,62.8873357 L37.6891179,62.8873357 L37.6579966,62.8900503 C37.6382566,62.8922713 37.6192568,62.8957263 37.59927,62.8952327 L37.59927,62.8952327 L37.3176732,62.919399 C37.1295399,62.9328532 36.9405292,62.9406405 36.7502025,62.9406405 C28.9124285,62.9406405 22.5593506,52.4117031 22.5593506,39.4240806 C22.5593506,26.4357177 28.9124285,15.9070271 36.7502025,15.9070271 C40.963956,15.9070271 44.7476239,18.9528057 47.3471374,23.7865171 L47.3471374,23.7865171 L52.6317869,23.7865171 L52.4162461,23.4400322 C48.7135067,17.5908435 43.0534653,13.8461538 36.7502025,13.8461538 Z M57.6367943,26.0889402 L57.5875985,26.0889402 L57.5875985,26.0889402 L57.5635095,26.0895571 L35.1733946,26.0895571 L35.1733946,28.2713533 L37.7203504,28.2713533 L37.7203504,28.2745615 L37.7808967,28.2724021 L37.7808967,28.2724021 L37.8419982,28.2713533 C39.7841692,28.2713533 41.3586823,29.8453264 41.3586823,31.7867574 L41.3586823,31.7867574 L41.3586823,59.8167062 L41.4547851,59.7443565 C42.6860712,58.8065873 45.5951953,56.1811065 47.4233092,51.2225366 L47.4233092,51.2225366 L47.4233092,28.2713533 L57.2486562,28.2713533 L57.2486562,28.2819649 L57.4342314,28.2992213 C60.5144099,28.6647606 62.9456253,32.9074023 62.9456253,38.0903 C62.9456253,42.4712571 61.4657383,44.9786524 59.5802641,46.8918031 C61.687984,47.0914604 62.7174692,47.3827895 64.3958971,47.9317081 C67.0300373,45.848654 69.5884582,42.5442053 69.6202736,38.0890661 C69.6665635,31.5023761 64.3089202,26.1566817 57.7335204,26.0895571 L57.7335204,26.0895571 L57.6609758,26.0895571 L57.6367943,26.0889402 Z M199.391915,30.7721905 L199.391915,33.6836297 L207.67739,33.6836297 L207.67739,37.3558873 L204.990372,37.3558873 C205.228883,40.0429051 205.661624,42.2529017 206.288594,43.9838645 C206.835642,45.4893995 207.684582,47.019458 208.833861,48.5748149 L209.154747,48.999631 L209.154747,51.2830929 C212.081281,49.6125126 214.349648,47.8352566 215.961858,45.9543442 C217.485452,44.1503634 218.900429,41.7063507 220.21018,38.6231539 L220.440221,38.0724254 L225.635122,38.0724254 C223.962529,42.8798725 221.888393,46.5068433 219.410701,48.9543442 C217.052879,51.3121659 213.491219,53.4058898 208.724822,55.2382118 L208.169507,55.4484737 L208.169507,51.9100637 C205.690808,50.1197249 203.914559,48.1633345 202.840758,46.0449178 C201.844927,44.0820099 201.162191,41.3623819 200.789071,37.883426 L200.735424,37.3558873 L199.391915,37.3558873 L199.391915,55.2693391 L194.331869,55.2693391 L194.331869,37.3558873 L192.98836,37.3558873 C192.569708,41.2968467 191.718316,44.4025159 190.43519,46.6708823 C189.215263,48.8267863 187.227864,50.8473608 184.472129,52.7334685 L184.030627,53.0301577 L184.030627,49.4927541 C185.463703,47.7899698 186.523415,46.0449178 187.210768,44.2525663 C187.851359,42.5806441 188.32363,40.4668836 188.625945,37.9104666 L188.688125,37.3558873 L185.240288,37.3558873 L185.240288,33.6836297 L194.331869,33.6836297 L194.331869,30.7721905 L199.391915,30.7721905 Z M270.418148,41.6556189 L270.418148,44.9696075 L253.803925,44.9696075 L253.803925,49.4026837 C253.803925,51.4627306 253.356089,52.9249916 252.460416,53.7914794 C251.585989,54.6373924 250.165785,55.0847441 248.199802,55.131839 L247.847199,55.1359946 L243.548977,55.1359946 L243.548977,51.7767192 L245.519457,51.7767192 C246.474505,51.7767192 247.130661,51.5814827 247.489936,51.1950352 C247.817427,50.8380242 247.995241,50.2315512 248.022602,49.3748412 L248.026333,49.1349883 L248.026333,44.9696075 L230.202449,44.9696075 L230.202449,41.6556189 L270.418148,41.6556189 Z M120.631399,15.7663536 C126.06481,15.7663536 130.468702,17.6824891 133.842066,21.511741 C137.095673,25.2131835 138.723985,29.8495471 138.723985,35.4198256 C138.723985,41.7177122 137.095673,46.5925864 133.842066,50.0404227 C130.64683,53.4268702 126.213754,55.1195907 120.541832,55.1195907 C114.95847,55.0873868 110.539483,53.3161691 107.284871,49.8039249 C104.001073,46.2604831 102.359678,41.480208 102.359678,35.4671251 C102.359678,29.5496478 103.985978,24.8015767 107.24059,21.2269373 C110.554579,17.5868836 115.017846,15.7663536 120.631399,15.7663536 Z M262.670782,46.4476686 C263.446696,47.9099296 264.402751,49.0602147 265.53794,49.8955049 C266.535041,50.6440312 267.919154,51.3274771 269.689473,51.9474539 L270.104864,52.0893995 L270.104864,55.0008386 C266.522174,54.4342503 263.789869,53.5375713 261.909963,52.3138209 C260.075567,51.1010287 258.563432,49.2894971 257.369318,46.8792258 L257.161892,46.4476686 L262.670782,46.4476686 Z M243.682321,46.4476686 C242.487756,49.1055015 240.920832,51.0598792 238.980543,52.3138209 C237.185127,53.4819463 234.587367,54.3520582 231.187262,54.9215309 L230.696075,55.0008386 L230.696075,52.0893995 C232.666555,51.4322375 234.203287,50.7016102 235.308286,49.8955049 C236.347954,49.1298222 237.237099,48.0994563 237.976496,46.8067326 L238.174438,46.4476686 L243.682321,46.4476686 Z M162.951023,16.2889634 C166.951359,16.2889634 169.951359,17.0960751 171.953036,18.7102986 C173.892318,20.2611204 174.863469,22.5395505 174.863469,25.5455887 C174.863469,27.9830258 174.341161,29.882053 173.296545,31.2416639 C172.250923,32.6032875 170.56424,33.6479034 168.235491,34.3755116 C170.862127,34.8817175 172.892989,35.9414291 174.326065,37.5566588 C175.72895,39.1386783 176.431399,41.1323046 176.431399,43.5375377 C176.431399,47.3667897 175.399866,50.1363301 173.340825,51.8441463 C171.293514,53.5251374 168.036908,54.3946155 163.568289,54.4525807 L163.084871,54.455686 L145.887957,54.455686 L145.887957,16.2889634 L162.951023,16.2889634 Z M161.830929,36.9387454 L151.978531,36.9387454 L151.978531,50.4201275 L162.278766,50.4201275 C165.084535,50.4201275 167.115398,49.8978195 168.369339,48.85421 C169.623281,47.8085877 170.250252,46.1319691 170.250252,43.8223415 C170.190876,39.3600805 167.385106,37.0645421 161.830929,36.9387454 Z M120.541832,20.2286146 C117.108085,20.2286146 114.286213,21.6053338 112.077222,24.3597786 C109.80785,27.1766186 108.673667,30.8629654 108.673667,35.4198256 C108.673667,40.1980879 109.822945,43.9327407 112.122509,46.6227776 C114.272123,49.1226099 117.062798,50.372526 120.496545,50.372526 C124.259376,50.372526 127.184904,49.1085206 129.274136,46.575478 C131.424757,43.9810466 132.498558,40.2614894 132.498558,35.4198256 C132.498558,30.7361624 131.408655,27.0337135 129.229856,24.3114727 C127.05005,21.5902382 124.153707,20.2286146 120.541832,20.2286146 Z M224.694867,26.1599799 C223.111842,30.310265 221.141362,33.4904059 218.783428,35.6993962 C216.465876,37.8452784 213.18802,39.6075943 208.951634,40.9845722 L208.393626,41.1619926 L208.393626,37.7584368 C211.319155,36.2961758 213.588527,34.7292519 215.199732,33.0566588 C216.739483,31.4338812 218.069607,29.3122411 219.189272,26.6909091 L219.410399,26.1599799 L224.694867,26.1599799 Z M267.059879,35.6544113 L267.059879,38.9683999 L233.651292,38.9683999 L233.651292,35.6544113 L267.059879,35.6544113 Z M270.284301,16.441731 L270.284301,19.8 L258.058873,19.8 L258.058873,22.7114391 L268.224254,22.7114391 L268.224254,28.0411942 C268.224254,29.8617243 267.835793,31.1750419 267.059879,31.9821536 C266.329607,32.740841 265.109033,33.1429448 263.399833,33.1876259 L263.073633,33.1918148 L232.531198,33.1918148 L232.531198,22.7114391 L242.608017,22.7114391 L242.608017,19.8 L230.695572,19.8 L230.695572,16.441731 L270.284301,16.441731 Z M161.114391,20.324522 L151.978531,20.324522 L151.978531,32.3808789 L161.338812,32.3808789 C166.174438,32.3808789 168.59376,30.3248574 168.59376,26.2097954 C168.59376,24.1859779 167.995975,22.6975512 166.801409,21.7485408 C165.60785,20.7975176 163.711842,20.324522 161.114391,20.324522 Z M207.677088,22.2191211 C206.853925,25.850218 205.775543,28.779236 204.441079,31.0087635 L204.228246,31.3549815 L200.332573,31.3549815 C201.703443,28.7245723 202.629405,25.8836501 203.108801,22.832215 L203.198725,22.2191211 L207.677088,22.2191211 Z M189.136565,22.2191211 C190.294049,25.0580239 191.094813,27.8712016 191.540439,30.6586543 L191.644448,31.3549815 L187.255652,31.3549815 C186.978109,28.776724 186.379501,25.9667797 185.458218,22.9251487 L185.239886,22.2191211 L189.136565,22.2191211 Z M252.99782,25.9368668 L247.668064,25.9368668 L247.668064,29.9663871 L252.99782,29.9663871 L252.99782,25.9368668 Z M263.1632,25.9368668 L258.058873,25.9368668 L258.058873,29.9663871 L261.14844,29.9663871 C261.894163,29.9663871 262.417477,29.8174438 262.71637,29.5185508 C262.983563,29.2513586 263.131741,28.8121671 263.158705,28.2053781 L263.1632,27.9969138 L263.1632,25.9368668 Z M242.608017,25.9368668 L237.592251,25.9368668 L237.592251,29.9663871 L242.608017,29.9663871 L242.608017,25.9368668 Z M197.062362,22.2188192 C197.938745,24.2990775 198.576661,26.5416974 198.975332,28.9482293 L199.078128,29.6086213 L194.734619,29.6086213 C194.515062,27.4739349 194.046043,25.2259337 193.324461,22.8653927 L193.121402,22.2188192 L197.062362,22.2188192 Z M223.530292,15.7709829 C221.857699,19.6827575 219.947601,22.5931902 217.797987,24.5032875 C215.741835,26.3312997 212.797143,27.8177079 208.966556,28.9616315 L208.438712,29.1154982 L208.438712,25.8015096 C211.005971,24.5475679 212.961355,23.2342503 214.304864,21.8605502 C215.648373,20.4896805 216.808789,18.6190637 217.784453,16.2511875 L217.977122,15.7709829 L223.530292,15.7709829 Z M252.99782,19.8 L247.668064,19.8 L247.668064,22.7114391 L252.99782,22.7114391 L252.99782,19.8 Z M207.542335,15.6806105 L207.542335,19.5762831 C205.200426,20.211692 202.704166,20.5512627 200.056723,20.5997446 L199.391714,20.6058034 L185.195807,20.6058034 L185.195807,16.9345522 L198.675176,16.9345522 C201.749648,16.9345522 204.706374,16.5169071 207.542335,15.6806105 Z" id="彩票logo白色" fill="#FFFFFF"></path>
    </g>
</svg>