<?xml version="1.0" encoding="UTF-8"?>
<svg width="271px" height="90px" viewBox="0 0 271 90" version="1.1" xmlns="http://www.w3.org/2000/svg" xmlns:xlink="http://www.w3.org/1999/xlink">
    <title>OB电竞白色</title>
    <g id="pc" stroke="none" stroke-width="1" fill="none" fill-rule="evenodd">
        <path d="M45,2.84217094e-13 C69.8523985,2.84217094e-13 90,20.1476015 90,45 C90,69.8523985 69.8523985,90 45,90 C20.1476015,90 2.27373675e-13,69.8523985 2.27373675e-13,45 C2.27373675e-13,20.1476015 20.1476015,2.84217094e-13 45,2.84217094e-13 Z M48.3938947,19.9198591 L41.8635357,19.9198591 L41.8635357,25.3784301 L35.4861456,25.3784301 L35.4861456,27.2120429 L35.877625,27.2251258 C36.9212345,27.2734317 37.9588058,27.4173432 38.977256,27.653841 C40.5170077,27.8762496 41.6884267,29.1120765 41.8645421,30.6266689 L41.8635357,39.5109359 L41.8746058,39.5109359 L41.8866823,60.877256 L41.8876887,60.8762496 L41.9229118,60.8551157 L41.953103,60.8354914 L42.0497149,60.7715867 C42.4089903,60.5280443 43.323784,59.8437102 44.3583361,58.6380745 C44.3895337,58.601845 44.4197249,58.5656156 44.4499161,58.5293861 C44.65421,58.2858437 44.861523,58.0261993 45.0708487,57.7413955 L45.0829252,57.7273063 L45.0829252,57.7262999 C46.4717209,55.8363301 47.9007716,53.0174774 48.427105,49.0382757 L48.427105,30.4052667 C48.6716538,29.0647769 49.7031869,27.9819188 51.0567595,27.6940959 L55.1023818,27.6951023 C55.3932238,27.7031533 59.9319691,27.8631667 61.9900034,29.9091245 C63.5951694,31.5002013 64.6780275,34.359309 64.558269,38.8900034 C64.558269,42.3126803 63.5951694,46.2989265 59.4821201,48.2321704 L58.7001677,51.7152298 L58.9104998,51.729319 C61.3600134,51.9114727 63.6163033,53.1442804 65.0996981,55.1187856 C66.5690037,57.4847702 67.2704462,60.2492788 67.1064072,63.031902 C67.1064072,66.9185173 65.5807447,75.1124119 57.4361624,75.1124119 L51.1352566,75.1124119 L50.9923516,75.1033546 C50.2808454,75.0389467 49.6186515,74.7018115 49.1446494,74.159376 C48.6394498,73.5807112 48.394901,72.8178799 48.4673599,72.0520295 L48.4673599,65.4079504 L48.128212,65.590104 C47.3432405,66.0023147 46.533794,66.3642872 45.7060557,66.6744757 L45.0819188,66.8973834 C44.8595102,66.9728615 44.6350889,67.0453204 44.4106676,67.1137538 C44.37947,67.1238175 44.3482724,67.1328749 44.3170748,67.1419322 C44.0745387,67.2153975 43.8309963,67.2828246 43.5864475,67.3472325 C43.5753774,67.3492452 43.5643073,67.3532707 43.5542435,67.3552835 C43.3439114,67.410634 43.1335793,67.45894 42.9222409,67.5072459 C42.8346863,67.526367 42.7471318,67.5464945 42.6625964,67.5646092 C42.4814492,67.6028514 42.2982892,67.6390808 42.1161355,67.6743039 L41.9641731,67.7024824 L41.9641731,77.7662194 L41.9722241,77.7833277 L41.9641731,77.7933915 L42.6374371,79.2727608 L45.0819188,84.7444146 L45.0819188,84.6478028 L45.128212,84.7484401 L48.3938947,77.7933915 L48.3938947,77.749111 L55.2281785,77.7501174 L55.2311976,77.7501174 C55.2684334,77.7541429 55.6911104,77.7883596 56.3865146,77.7923851 L56.5918148,77.7933915 C59.2919155,77.7853405 65.4207313,77.2982556 69.6142905,73.3804428 C72.5327742,70.6350554 74.1329084,66.7625294 74.0081181,62.7501174 C74.2305267,56.199631 69.4663536,50.5478363 62.9933579,49.6823549 C68.1439785,48.2331768 71.6672929,43.4720228 71.5596109,38.1050319 C71.6350889,34.311003 69.9886615,30.6890641 67.0862798,28.2586716 C64.2945991,26.1664207 60.8507883,25.1459577 57.3757799,25.3784301 L48.3938947,25.3784301 L48.3938947,19.9198591 Z M128.163402,67.6969473 C129.341865,67.6969473 130.388494,68.1276753 131.184535,68.9257296 C132.207615,69.9488091 132.289461,71.0144784 132.296009,73.129729 L132.296009,74.2822981 C132.289461,76.3976792 132.207615,77.4641261 131.184535,78.4862798 C130.388494,79.2833277 129.341865,79.7150621 128.163402,79.7150621 C126.984938,79.7150621 125.939316,79.2833277 125.142268,78.4862798 C124.118262,77.4641261 124.036342,76.3976792 124.029788,74.2822981 L124.02929,73.4116663 C124.030999,71.1072258 124.07374,69.9932908 125.142268,68.9257296 C125.939316,68.1276753 126.984938,67.6969473 128.163402,67.6969473 Z M239.765414,67.6974505 C241.181571,67.6974505 242.145744,68.0326791 243.094935,68.826691 L243.284703,68.9916471 L242.471553,69.804797 C241.740926,69.1415968 240.960986,68.7923851 239.716102,68.7923851 C238.139114,68.7923851 237.226333,69.6729621 237.226333,70.984267 C237.226333,71.5649446 237.392385,72.0298893 237.757699,72.3448843 C238.081527,72.6257743 238.603351,72.839871 239.146467,72.9546611 L239.350788,72.9929889 L240.645991,73.1912445 C241.757028,73.3572962 242.305502,73.5897685 242.803656,74.0215029 C243.450755,74.5689701 243.799966,75.3831265 243.799966,76.3613217 C243.799966,78.4374706 242.173667,79.7145589 239.716102,79.7145589 C238.038533,79.7145589 236.908537,79.3151 235.851351,78.3339072 L235.665448,78.1546796 L236.528916,77.291211 C237.508118,78.271419 238.420899,78.586414 239.749312,78.586414 C241.475243,78.586414 242.537974,77.773264 242.537974,76.3955384 C242.537974,75.7816505 242.354814,75.2502851 241.973398,74.9181818 C241.620393,74.6116249 241.339418,74.5031509 240.619139,74.3830017 L240.429621,74.3525998 L239.051895,74.1372358 C238.122006,73.9882925 237.392385,73.6893995 236.877122,73.2415632 C236.279336,72.7091915 235.980443,71.980577 235.980443,71.032573 C235.980443,69.0248574 237.425595,67.6974505 239.765414,67.6974505 Z M136.799195,67.7963771 L143.072929,77.2422006 L143.072929,67.7963771 L144.334921,67.7963771 L144.334921,79.6152298 L143.139349,79.6152298 L136.864609,70.1361959 L136.864609,79.6152298 L135.602617,79.6152298 L135.602617,67.7963771 L136.799195,67.7963771 Z M181.298625,67.7967796 L181.298625,68.9259309 L177.878967,68.9259309 L177.878967,79.6156323 L176.616974,79.6156323 L176.616974,68.9259309 L173.197316,68.9259309 L173.197316,67.7967796 L181.298625,67.7967796 Z M203.067192,67.7967796 L203.067192,68.9259309 L196.991714,68.9259309 L196.991714,73.092318 L202.170513,73.092318 L202.170513,74.2214693 L196.991714,74.2214693 L196.991714,78.486481 L203.067192,78.486481 L203.067192,79.6156323 L195.729722,79.6156323 L195.729722,67.7967796 L203.067192,67.7967796 Z M233.719322,67.7967796 L233.719322,68.9259309 L227.643844,68.9259309 L227.643844,73.092318 L232.822643,73.092318 L232.822643,74.2214693 L227.643844,74.2214693 L227.643844,78.486481 L233.719322,78.486481 L233.719322,79.6156323 L226.382858,79.6156323 L226.382858,67.7967796 L233.719322,67.7967796 Z M253.662227,67.7967796 L253.662227,68.9259309 L250.24257,68.9259309 L250.24257,79.6156323 L248.980577,79.6156323 L248.980577,68.9259309 L245.561926,68.9259309 L245.561926,67.7967796 L253.662227,67.7967796 Z M185.103019,67.7963771 L185.103019,73.0919155 L190.713552,73.0919155 L190.713552,67.7963771 L191.974539,67.7963771 L191.974539,79.6152298 L190.713552,79.6152298 L190.713552,74.2210668 L185.103019,74.2210668 L185.103019,79.6152298 L183.841027,79.6152298 L183.841027,67.7963771 L185.103019,67.7963771 Z M156.39319,67.796679 L159.181852,73.4565247 L161.937303,67.796679 L163.298927,67.796679 L159.812848,74.7356256 L159.812848,79.6155317 L158.550855,79.6155317 L158.550855,74.7356256 L155.031567,67.796679 L156.39319,67.796679 Z M219.407179,67.7967796 C221.465213,67.7967796 222.893257,68.9752432 222.893257,70.9507548 C222.893257,72.195639 222.145522,73.175847 221.149212,73.5401543 C222.278363,73.9557866 223.075411,74.9349883 223.075411,76.3459242 C223.075411,78.4151292 221.740983,79.5392318 219.763008,79.6118729 L219.556122,79.6156323 L214.958001,79.6156323 L214.958001,67.7967796 L219.407179,67.7967796 Z M149.351996,67.796679 L149.351996,78.4863804 L155.394264,78.4863804 L155.394264,79.6155317 L148.090003,79.6155317 L148.090003,67.796679 L149.351996,67.796679 Z M128.163402,68.8260986 C127.382456,68.8260986 126.635726,69.1410936 126.121469,69.6724589 C125.40346,70.4059505 125.298617,71.1710774 125.291615,73.4279288 L125.291615,73.9839732 C125.298617,76.2400016 125.40346,77.0060589 126.121469,77.7395505 C126.635726,78.2709158 127.382456,78.5869171 128.163402,78.5869171 C128.943341,78.5869171 129.69007,78.2709158 130.205334,77.7395505 C130.923343,77.0060589 131.027255,76.2400016 131.034186,73.9839732 L131.034186,73.4279288 C131.027255,71.1710774 130.923343,70.4059505 130.205334,69.6724589 C129.69007,69.1410936 128.943341,68.8260986 128.163402,68.8260986 Z M219.440389,74.1540423 L216.219993,74.1540423 L216.219993,78.486481 L219.440389,78.486481 C220.900637,78.486481 221.813418,77.6401208 221.813418,76.3127139 C221.813418,74.9843006 220.900637,74.1540423 219.440389,74.1540423 Z M264.773398,73.1507883 L264.773398,74.2628313 L260.224589,74.2628313 L260.224589,73.1507883 L264.773398,73.1507883 Z M116.706642,73.1507883 L116.706642,74.2628313 L112.157833,74.2628313 L112.157833,73.1507883 L116.706642,73.1507883 Z M219.307548,68.9259309 L216.219993,68.9259309 L216.219993,73.0258973 L219.307548,73.0258973 C220.618853,73.0258973 221.631265,72.3777927 221.631265,70.9668568 C221.631265,69.5569272 220.618853,68.9259309 219.307548,68.9259309 Z M37.4126468,12.2505871 C31.6390808,12.0513251 26.0949681,14.5320362 22.3854747,18.9761825 C18.3730627,23.9094264 16.5273734,31.7007716 16.5273734,39.3321033 C16.3391815,45.4790339 17.7209326,51.5706139 20.5387789,57.0311976 C24.0580678,62.9738343 30.4847702,66.565582 37.3723918,66.4347534 C38.9081181,66.4428044 40.4408252,66.2938611 41.9463603,65.9909426 C44.2710835,65.5471318 46.4820865,64.6363636 48.4475344,63.3129822 C51.0158001,61.5357263 53.1543442,59.202952 54.7071788,56.4877558 C55.5786984,55.0194566 56.2529688,53.442469 56.713888,51.7960416 C56.9735324,50.9305602 57.1949346,50.0449514 57.395203,49.1180812 C58.0181483,45.8946662 58.327105,42.6169071 58.3182411,39.3321033 C58.3079839,36.2727273 57.9376384,33.2244213 57.2150621,30.2515934 L57.1466286,30.2515934 C56.5518618,30.2475679 54.3670245,30.2012747 50.5941295,30.1107011 C51.0651124,33.0805099 51.2995975,36.083529 51.2965783,39.0905736 C51.3167058,42.4619255 51.0620933,45.8292519 50.5337471,49.1583361 C50.3928547,50.0046964 50.2328413,50.8299228 50.032573,51.6148943 C49.7618584,52.7631667 49.3995639,53.8872861 48.9487085,54.9771889 C48.8088225,55.2992284 48.6478028,55.5820195 48.4877893,55.8829252 C47.2539752,59.0177793 44.9493794,61.6081852 41.9866152,63.1922174 C40.5485072,63.840322 38.988628,64.1704126 37.4126468,64.1593425 C32.9584368,64.1593425 29.0054009,61.904059 26.458269,56.1053338 C24.4606172,50.701107 23.4673264,44.975847 23.5287152,39.2113385 C23.5287152,32.1848373 24.4716874,25.5608856 27.080208,21.0895673 C29.0929554,17.159678 33.0178128,14.5813485 37.4126468,14.3045958 C38.689735,14.3066085 39.936632,14.5219725 41.1100637,14.9255283 L47.665582,14.9255283 C44.6172761,13.0617243 41.0567259,12.1086884 37.4126468,12.2505871 Z M265.895304,33.6825226 L265.895304,39.8616572 C265.895304,41.802952 265.476652,43.205837 264.641362,44.0723247 C263.851526,44.8897238 262.556308,45.3211289 260.754859,45.3665399 L260.431701,45.3705468 L257.565548,45.3705468 L257.565548,49.3115062 C257.565548,50.2071788 257.774874,50.8492452 258.192519,51.2366991 C258.5684,51.5872191 259.113834,51.7779671 259.828823,51.8126115 L260.073432,51.8183831 L263.522274,51.8183831 C264.357565,51.8183831 264.96944,51.6261657 265.3579,51.2366991 C265.737577,50.8579366 265.94509,50.2920386 265.979682,49.5420293 L265.984871,49.3115062 L265.984871,47.8331432 L270.194532,47.8331432 L270.194532,50.1176115 C270.194532,52.0277088 269.761791,53.4004025 268.895304,54.2377055 C268.077905,55.0275411 266.71383,55.4448476 264.804776,55.4887772 L264.462227,55.4926535 L258.102952,55.4926535 C255.953338,55.4926535 254.415599,55.0438108 253.490741,54.1481382 C252.616314,53.3022252 252.154811,51.9365668 252.106232,50.0520107 L252.101946,49.7140557 L252.101946,45.3705468 L247.220027,45.3705468 C246.653438,48.7449178 245.116706,51.2528011 242.607816,52.8941966 C240.183529,54.5110366 236.308204,55.694352 230.982751,56.445961 L230.426669,56.5221738 L230.426669,53.4316001 C234.009359,52.6546796 236.666186,51.6704462 238.398155,50.4758806 C240.032953,49.3191658 241.136336,47.7378577 241.707457,45.7294127 L241.802717,45.3705468 L234.725897,45.3705468 L234.725897,33.6825226 L265.895304,33.6825226 Z M120.631399,16.6606172 C126.06481,16.6606172 130.468702,18.5767528 133.842066,22.4060047 C137.095673,26.1074472 138.723985,30.7438108 138.723985,36.3140892 C138.723985,42.6119758 137.095673,47.4868501 133.842066,50.9346863 C130.64683,54.3211338 126.213754,56.0138544 120.541832,56.0138544 C114.95847,55.9816505 110.539483,54.2104327 107.284871,50.6981885 C104.001073,47.1547467 102.359678,42.3744717 102.359678,36.3613888 C102.359678,30.4439114 103.985978,25.6958403 107.24059,22.1212009 C110.554579,18.4811473 115.017846,16.6606172 120.631399,16.6606172 Z M162.951023,17.1832271 C166.951359,17.1832271 169.951359,17.9903388 171.953036,19.6045622 C173.892318,21.1553841 174.863469,23.4338142 174.863469,26.4398524 C174.863469,28.8772895 174.341161,30.7763167 173.296545,32.1359275 C172.250923,33.4975512 170.56424,34.5421671 168.235491,35.2697752 C170.862127,35.7759812 172.892989,36.8356927 174.326065,38.4509225 C175.72895,40.032942 176.431399,42.0265683 176.431399,44.4318014 C176.431399,48.2610533 175.399866,51.0305938 173.340825,52.7384099 C171.293514,54.419401 168.036908,55.2888792 163.568289,55.3468444 L163.084871,55.3499497 L145.887957,55.3499497 L145.887957,17.1832271 L162.951023,17.1832271 Z M206.065582,15.6798054 L206.065582,19.8431734 L220.664039,19.8431734 L220.664039,38.1159007 C220.664039,40.6227776 220.126635,42.4302248 219.051828,43.5332103 C217.999449,44.6153017 216.324533,45.1807422 214.02708,45.23214 L213.677793,45.2359946 L206.065582,45.2359946 L206.065582,47.9230124 C206.065582,49.2675277 206.333277,50.2225763 206.870681,50.7881583 C207.341664,51.2890449 208.12243,51.5556415 209.211368,51.5911712 L209.468131,51.59527 L216.902214,51.59527 C217.978028,51.59527 218.752935,51.3718551 219.231969,50.9240188 C219.641563,50.5402549 219.864272,49.9323982 219.898546,49.0965729 L219.90322,48.8629654 L219.90322,47.3413284 L224.292016,47.3413284 L224.292016,49.3118081 C224.292016,51.4312311 223.828078,52.9538745 222.90322,53.8797383 C222.028793,54.7532148 220.635519,55.2155628 218.723396,55.2642388 L218.380577,55.268534 L207.139383,55.268534 C204.81164,55.268534 203.108856,54.7291177 202.034049,53.655317 C200.98167,52.6019792 200.430423,50.914238 200.38031,48.5903548 L200.376551,48.237001 L200.376551,45.2359946 L186.046796,45.2359946 L186.046796,19.8431734 L200.376551,19.8431734 L200.376551,15.6798054 L206.065582,15.6798054 Z M161.830929,37.8330091 L151.978531,37.8330091 L151.978531,51.3143911 L162.278766,51.3143911 C165.084535,51.3143911 167.115398,50.7920832 168.369339,49.7484737 C169.623281,48.7028514 170.250252,47.0262328 170.250252,44.7166052 C170.190876,40.2543442 167.385106,37.9588058 161.830929,37.8330091 Z M120.541832,21.1228782 C117.108085,21.1228782 114.286213,22.4995975 112.077222,25.2540423 C109.80785,28.0708823 108.673667,31.7572291 108.673667,36.3140892 C108.673667,41.0923516 109.822945,44.8270044 112.122509,47.5170413 C114.272123,50.0168735 117.062798,51.2667897 120.496545,51.2667897 C124.259376,51.2667897 127.184904,50.0027843 129.274136,47.4697417 C131.424757,44.8753103 132.498558,41.1557531 132.498558,36.3140892 C132.498558,31.630426 131.408655,27.9279772 129.229856,25.2057363 C127.05005,22.4845018 124.153707,21.1228782 120.541832,21.1228782 Z M260.431701,36.9965112 L240.1895,36.9965112 L240.1895,42.0565582 L258.192519,42.0565582 C258.998625,42.0565582 259.581315,41.8764173 259.939584,41.5191546 C260.236922,41.2209021 260.400353,40.7130576 260.427611,39.9941091 L260.431701,39.7720899 L260.431701,36.9965112 Z M200.376551,34.1739349 L191.375545,34.1739349 L191.375545,41.6080174 L200.376551,41.6080174 L200.376551,34.1739349 Z M215.156156,34.1749413 L206.065582,34.1749413 L206.065582,41.6080174 L212.109862,41.6080174 C213.214861,41.6080174 213.991781,41.3856089 214.439618,40.9367662 C214.879945,40.496439 215.117902,39.8005762 215.151905,38.850761 L215.156156,38.6080174 L215.156156,34.1749413 Z M161.114391,21.2187856 L151.978531,21.2187856 L151.978531,33.2751426 L161.338812,33.2751426 C166.174438,33.2751426 168.59376,31.2191211 168.59376,27.104059 C168.59376,25.0802415 167.995975,23.5918148 166.801409,22.6428044 C165.60785,21.6917813 163.711842,21.2187856 161.114391,21.2187856 Z M244.533512,23.0233143 C244.773253,24.4304484 245.164074,25.7302359 245.710216,26.9240906 L245.922308,27.3668232 L254.833747,27.3668232 C255.417891,26.1994297 255.848569,24.92628 256.125075,23.5459605 L256.221536,23.0233143 L261.686146,23.0233143 C261.417142,24.5286481 261.015267,25.8522006 260.48052,26.9932382 L260.29735,27.3668232 L270.641865,27.3668232 L270.641865,30.8609527 L230.068903,30.8609527 L230.068903,27.3668232 L240.502986,27.3668232 C239.900587,26.3004025 239.448711,24.993822 239.148133,23.4501822 L239.069909,23.0233143 L244.533512,23.0233143 Z M200.376551,23.5164374 L191.375545,23.5164374 L191.375545,30.5016773 L200.376551,30.5016773 L200.376551,23.5164374 Z M215.156156,23.5164374 L206.065582,23.5164374 L206.065582,30.5016773 L215.156156,30.5016773 L215.156156,23.5164374 Z M253.669473,15.7678631 L253.669473,18.4548809 L268.80634,18.4548809 L268.80634,21.9490104 L231.994197,21.9490104 L231.994197,18.4548809 L247.17635,18.4548809 L247.17635,15.7678631 L253.669473,15.7678631 Z" id="OB电竞白色" fill="#FFFFFF"></path>
    </g>
</svg>