<?xml version="1.0" encoding="UTF-8"?>
<svg width="271px" height="90px" viewBox="0 0 271 90" version="1.1" xmlns="http://www.w3.org/2000/svg" xmlns:xlink="http://www.w3.org/1999/xlink">
    <title>OB电游白色</title>
    <g id="pc" stroke="none" stroke-width="1" fill="none" fill-rule="evenodd">
        <path d="M45,2.84217094e-13 C69.8523985,2.84217094e-13 90,20.1476015 90,45 C90,69.8523985 69.8523985,90 45,90 C20.1476015,90 3.41060513e-13,69.8523985 3.41060513e-13,45 C3.41060513e-13,20.1476015 20.1476015,2.84217094e-13 45,2.84217094e-13 Z M126.386951,67.6969473 C127.565414,67.6969473 128.612043,68.1276753 129.408085,68.9257296 C130.520127,70.0377726 130.520127,71.2001342 130.520127,73.7060047 L130.520056,74.0003477 C130.518348,76.3048609 130.475646,77.4196847 129.408085,78.4862798 C128.612043,79.2833277 127.565414,79.7150621 126.386951,79.7150621 C125.208487,79.7150621 124.162865,79.2833277 123.365817,78.4862798 C122.252768,77.3752432 122.252768,76.2118752 122.252768,73.7060047 L122.252839,73.4116663 C122.254548,71.1072258 122.29729,69.9932908 123.365817,68.9257296 C124.162865,68.1276753 125.208487,67.6969473 126.386951,67.6969473 Z M237.989467,67.6974505 C239.500034,67.6974505 240.496344,68.0788662 241.508755,68.9916471 L241.508755,68.9916471 L240.695606,69.804797 C239.964978,69.1415968 239.185039,68.7923851 237.940154,68.7923851 C236.363167,68.7923851 235.450386,69.6729621 235.450386,70.984267 C235.450386,71.5649446 235.616437,72.0298893 235.981751,72.3448843 C236.346058,72.6608856 236.960953,72.8923516 237.574841,72.9929889 L237.574841,72.9929889 L238.870044,73.1912445 C239.98108,73.3572962 240.529554,73.5897685 241.027709,74.0215029 C241.674807,74.5689701 242.024019,75.3831265 242.024019,76.3613217 C242.024019,78.4374706 240.397719,79.7145589 237.940154,79.7145589 C236.163905,79.7145589 235.001543,79.2667226 233.8895,78.1546796 L233.8895,78.1546796 L234.752969,77.291211 C235.73217,78.271419 236.644951,78.586414 237.973365,78.586414 C239.699296,78.586414 240.762026,77.773264 240.762026,76.3955384 C240.762026,75.7816505 240.578866,75.2502851 240.197451,74.9181818 C239.815029,74.5860785 239.517142,74.4864475 238.653673,74.3525998 L238.653673,74.3525998 L237.275948,74.1372358 C236.346058,73.9882925 235.616437,73.6893995 235.101174,73.2415632 C234.503388,72.7091915 234.204495,71.980577 234.204495,71.032573 C234.204495,69.0248574 235.649648,67.6974505 237.989467,67.6974505 Z M135.022845,67.7963771 L141.296578,77.2422006 L141.296578,67.7963771 L142.558571,67.7963771 L142.558571,79.6152298 L141.362999,79.6152298 L135.088259,70.1361959 L135.088259,79.6152298 L133.826266,79.6152298 L133.826266,67.7963771 L135.022845,67.7963771 Z M217.631231,67.7967796 C219.689265,67.7967796 221.11731,68.9752432 221.11731,70.9507548 C221.11731,72.195639 220.369574,73.175847 219.373264,73.5401543 C220.502415,73.9557866 221.299463,74.9349883 221.299463,76.3459242 C221.299463,78.486481 219.871419,79.6156323 217.780174,79.6156323 L217.780174,79.6156323 L213.182053,79.6156323 L213.182053,67.7967796 Z M179.522274,67.7967796 L179.522274,68.9259309 L176.103623,68.9259309 L176.103623,79.6156323 L174.84163,79.6156323 L174.84163,68.9259309 L171.420966,68.9259309 L171.420966,67.7967796 L179.522274,67.7967796 Z M201.291245,67.7967796 L201.291245,68.9259309 L195.215767,68.9259309 L195.215767,73.092318 L200.394566,73.092318 L200.394566,74.2214693 L195.215767,74.2214693 L195.215767,78.486481 L201.291245,78.486481 L201.291245,79.6156323 L193.953774,79.6156323 L193.953774,67.7967796 L201.291245,67.7967796 Z M154.616739,67.796679 L157.405401,73.4565247 L160.160852,67.796679 L161.522476,67.796679 L158.036397,74.7356256 L158.036397,79.6155317 L156.774405,79.6155317 L156.774405,74.7356256 L153.255116,67.796679 L154.616739,67.796679 Z M183.327071,67.7963771 L183.327071,73.0919155 L188.937605,73.0919155 L188.937605,67.7963771 L190.198591,67.7963771 L190.198591,79.6152298 L188.937605,79.6152298 L188.937605,74.2210668 L183.327071,74.2210668 L183.327071,79.6152298 L182.065079,79.6152298 L182.065079,67.7963771 L183.327071,67.7963771 Z M251.88628,67.7967796 L251.88628,68.9259309 L248.466622,68.9259309 L248.466622,79.6156323 L247.204629,79.6156323 L247.204629,68.9259309 L243.785978,68.9259309 L243.785978,67.7967796 L251.88628,67.7967796 Z M147.575545,67.796679 L147.575545,78.4863804 L153.617813,78.4863804 L153.617813,79.6155317 L146.313552,79.6155317 L146.313552,67.796679 L147.575545,67.796679 Z M231.943375,67.7967796 L231.943375,68.9259309 L225.867897,68.9259309 L225.867897,73.092318 L231.046696,73.092318 L231.046696,74.2214693 L225.867897,74.2214693 L225.867897,78.486481 L231.943375,78.486481 L231.943375,79.6156323 L224.60691,79.6156323 L224.60691,67.7967796 L231.943375,67.7967796 Z M126.386951,68.8260986 C125.606005,68.8260986 124.859275,69.1410936 124.345018,69.6724589 C123.598289,70.4352902 123.51476,71.2323381 123.51476,73.7060047 C123.51476,76.1786649 123.598289,76.9767192 124.345018,77.7395505 C124.859275,78.2709158 125.606005,78.5869171 126.386951,78.5869171 C127.16689,78.5869171 127.91362,78.2709158 128.428883,77.7395505 C129.175612,76.9767192 129.258135,76.1786649 129.258135,73.7060047 C129.258135,71.2323381 129.175612,70.4352902 128.428883,69.6724589 C127.91362,69.1410936 127.16689,68.8260986 126.386951,68.8260986 Z M217.664441,74.1540423 L214.444046,74.1540423 L214.444046,78.486481 L217.664441,78.486481 C219.12469,78.486481 220.037471,77.6401208 220.037471,76.3127139 C220.037471,74.9843006 219.12469,74.1540423 217.664441,74.1540423 L217.664441,74.1540423 Z M45.4463267,66.7598121 C44.0458571,67.4116739 42.8855932,67.7610869 42.1586348,67.9365114 L42.0095606,67.9714861 L42.0095606,71.3881248 L42.0085542,71.4555518 C41.9733311,73.4662865 40.3309292,75.0845354 38.3111372,75.0845354 L38.2459745,75.0839064 L38.2459745,75.0839064 L38.1823214,75.0825226 L38.1823214,75.0845354 L35.5033546,75.0845354 L35.5033546,77.7624958 L56.9149614,77.7624958 L56.7197249,77.7222409 C55.8119758,77.5280107 54.9233479,77.2492452 54.0608856,76.8849379 C52.7465616,76.3294197 48.5499832,74.5662529 46.1890305,69.0120765 C45.8770547,68.2794364 45.6325059,67.5266689 45.4463267,66.7598121 Z M59.8193559,49.4994968 C58.9991614,49.4994968 58.1920496,49.5749748 57.3980208,49.7148608 C55.8129822,52.8929889 51.2943643,61.2348205 46.1125461,64.3716874 C46.2292855,65.8339483 46.5724589,67.254948 47.1440792,68.6085206 C47.8374706,70.2458906 48.8297551,71.717209 50.0927541,72.9812144 C51.3567595,74.2442134 52.8270715,75.2354914 54.4644415,75.9278766 C56.1601811,76.645421 57.9625964,77.0097283 59.8193559,77.0097283 C61.6761154,77.0097283 63.4775243,76.645421 65.173264,75.9278766 C66.810634,75.2354914 68.2819524,74.2442134 69.5459577,72.9812144 C70.8089567,71.717209 71.8002348,70.2458906 72.4926199,68.6085206 C73.2101644,66.9117746 73.5744717,65.111372 73.5744717,63.2546125 C73.5744717,61.3978531 73.2101644,59.5964441 72.4926199,57.8996981 C71.8002348,56.2623281 70.8089567,54.7910097 69.5459577,53.5280107 C68.2819524,52.2650117 66.810634,51.2727273 65.173264,50.5803422 C63.4775243,49.8627977 61.6761154,49.4994968 59.8193559,49.4994968 Z M114.930292,73.1507883 L114.930292,74.2628313 L110.381483,74.2628313 L110.381483,73.1507883 L114.930292,73.1507883 Z M262.997048,73.1507883 L262.997048,74.2628313 L258.448239,74.2628313 L258.448239,73.1507883 L262.997048,73.1507883 Z M217.5316,68.9259309 L214.444046,68.9259309 L214.444046,73.0258973 L217.5316,73.0258973 C218.842905,73.0258973 219.855317,72.3777927 219.855317,70.9668568 C219.855317,69.5569272 218.842905,68.9259309 217.5316,68.9259309 L217.5316,68.9259309 Z M61.9106005,57.9741697 C64.0630182,58.5884531 64.7107121,59.138168 65.9417271,58.251738 L66.0810131,58.147266 L66.7824556,58.7390138 C66.7685101,58.759285 66.672884,58.9058253 66.5188238,59.1588946 L66.3927168,59.3683308 C65.3747383,61.076968 62.7207968,65.9587126 62.8728904,70.1881524 L62.8908085,70.5206307 L57.6486078,70.5206307 L57.6486078,70.5186179 L57.6458634,70.4881646 C57.6083611,70.03044 57.3014045,64.7932713 62.0508299,61.3605933 L62.3101308,61.1784636 L62.4701442,61.071788 L62.4540423,61.0788326 C62.2463833,61.1831495 60.1809753,62.1516456 58.2734393,60.8552131 L58.0893995,60.7225763 L58.0814743,60.7186766 L58.0743039,60.7155317 L58.0561892,60.7074807 C57.9265683,60.6539416 57.4611853,60.492573 57.3677998,60.9033148 L57.3537404,61.0003355 L57.3537404,62.0801744 L55.8814156,62.0801744 L55.8814156,58.0778262 L57.3185173,58.0778262 L57.3185173,58.704797 L57.3195236,58.7037907 L57.3225428,58.7027843 L57.3326065,58.6967461 L57.4495683,58.6338537 L57.5897396,58.5634109 C58.2707425,58.2314939 60.1301577,57.4651124 61.9106005,57.9741697 Z M54.7099966,60.772895 L54.9135357,60.8339064 L54.9135357,60.8339064 L55.1034888,60.8926535 L55.1034888,62.0801744 L55.1044951,62.1204294 C55.1229453,62.4968131 55.4111526,62.803855 55.7792017,62.8524148 L55.8814156,62.8591077 L57.0709493,62.8591077 L57.0286817,62.9416303 C56.2628816,64.4598457 55.3090733,66.7864056 55.3493471,68.8919423 L55.3641396,69.2224086 L51.8690037,69.2224086 C51.8673264,69.2098289 51.860757,69.1294588 51.857449,68.9946932 L51.8559208,68.9074136 L51.8559208,68.832942 C51.8617815,67.806352 52.1387832,64.9813191 54.831824,63.0336748 L55.08,62.861 L55.0765683,62.8627558 L55.0712848,62.8651459 L55.0561892,62.8731969 C54.8438443,62.975847 53.4298893,63.5997987 52.1628648,62.6246226 C52.1628648,62.6246226 51.7709865,62.4316847 51.6861597,62.7273249 L51.6717544,62.8118081 L51.6717544,63.5384099 L50.6905401,63.5384099 L50.6905401,60.8433412 L51.6496142,60.8433412 L51.6496142,61.2650117 L51.6526333,61.262999 C51.7411942,61.2116739 53.264844,60.3562563 54.7099966,60.772895 Z M68.9844012,60.772895 C70.4051722,61.1840444 70.8420402,61.5493456 71.6464443,60.9786344 L71.7640054,60.8906407 L72.2319691,61.2881583 C72.2244213,61.2998994 72.1798334,61.3689478 72.1069412,61.4888973 L72.0598792,61.5669239 L72.013586,61.6424019 C71.3747011,62.7166246 69.5501592,66.0415221 69.6246506,68.9346358 L69.6385441,69.2224086 L66.1424019,69.2224086 C66.135504,69.1455468 65.7947583,65.4011828 69.1392445,63.0098594 L69.354,62.861 L69.3509728,62.8627558 L69.3456894,62.8651459 L69.3305938,62.8731969 C69.1257766,62.971741 67.8144829,63.5507167 66.5898153,62.7341036 L66.4372694,62.6246226 L66.4128526,62.6140324 C66.3261402,62.577528 66.0327368,62.4757958 65.9607008,62.7258284 L65.946159,62.8118081 L65.946159,63.5384099 L65.1561557,63.5384099 L65.2437102,63.3310969 C65.3332774,63.123784 65.4258638,62.9144582 65.5214693,62.7041261 C65.8002348,62.0982892 66.077994,61.5447836 66.3336129,61.0647434 C66.8981885,60.8212009 67.9609192,60.4780275 68.9844012,60.772895 Z M37.1618584,12.2364978 C25.5372358,12.2364978 15.9847367,24.3371352 15.9847367,39.2636699 C15.9847367,54.1891983 25.5372358,66.2888293 37.1618584,66.2888293 C37.4929554,66.2888293 37.8210332,66.2767528 38.149111,66.2566253 C39.4694733,66.1781281 40.7626635,65.9537068 42.0095606,65.5692721 C42.551996,65.402214 44.2004361,64.8537404 46.1125461,63.2546125 C48.6979202,61.0909091 51.7673599,57.5323717 53.2346528,55.338477 C55.3097954,52.238846 57.2400201,47.8611204 57.2380074,47.8601141 C57.9515263,45.159007 58.3389802,42.2687018 58.3389802,39.2636699 C58.3389802,36.211003 57.9383451,33.2766857 57.2033506,30.5409034 L57.0407581,29.9577323 L51.0236498,29.9577323 L51.0820195,30.2012747 C51.7321369,32.9718215 52.0883932,35.9849044 52.0883932,39.1358604 C52.0883932,42.3271433 51.7204711,45.3761168 51.0563397,48.1764205 L50.8978531,48.8181818 L50.8908085,48.8373029 C50.7348205,49.2609862 48.0900704,56.3800738 44.7670245,60.3995304 C44.0343844,61.2851392 42.113217,62.5249916 41.0051996,63.0362295 C40.215322,63.3990272 39.3884602,63.6323801 38.54484,63.7578623 L38.1823214,63.805099 L38.1823214,63.8071117 L38.1501174,63.8101308 L38.1169071,63.8131499 L38.0862127,63.8175528 L38.0862127,63.8175528 L38.0555183,63.8212009 L38.0555183,63.8191882 L37.8773901,63.8352902 C37.6408923,63.8544113 37.4023818,63.8664878 37.1618584,63.8664878 C28.9186515,63.8664878 22.2363301,52.7943643 22.2363301,39.1358604 C22.2363301,25.4773566 28.9186515,14.4042268 37.1618584,14.4042268 C41.4954378,14.4042268 45.3960528,17.4667278 48.1233238,22.3546278 L48.3074472,22.6907078 L53.8656491,22.6907078 L53.7489098,22.5005032 C49.8572627,16.2499161 43.8542435,12.2364978 37.1618584,12.2364978 Z M59.1048306,25.1110366 L59.0784133,25.1115398 L59.0784133,25.1115398 L59.0535055,25.1120429 L35.5033546,25.1120429 L35.5033546,27.406575 L38.1823214,27.406575 L38.1823214,27.4095941 L38.2467293,27.4075813 L38.3101308,27.406575 C40.2871682,27.406575 41.9013455,28.9569769 42.0034287,30.9076346 L42.0085542,31.1039919 L42.0085542,60.581684 L42.0467964,60.5535055 C43.2705468,59.6347122 46.2733013,56.9856415 48.2352778,51.9462653 L48.3879571,51.5434418 L48.3879571,27.406575 L58.7214022,27.406575 L58.7214022,27.4176451 L58.8220396,27.4267024 C62.1068433,27.7336464 64.7143576,32.2291177 64.7143576,37.7329755 C64.7143576,42.7799396 62.5214693,46.9775243 59.6251258,47.8772224 L59.5491446,48.1728447 L59.5491446,48.1728447 L59.4701442,48.4699765 L59.7026166,48.4629319 L59.8193559,48.4609192 C61.392318,48.4609192 62.9280443,48.7084871 64.4023818,49.1885273 C68.7297887,47.1868501 71.7338142,42.8111372 71.7338142,37.7319691 C71.7338142,30.9074937 66.3129469,25.3515657 59.5403938,25.1189367 L59.2316337,25.1120429 L59.1299899,25.1120429 L59.1048306,25.1110366 Z M248.976954,16.0286146 L248.976954,20.0591412 L253.857866,20.0591412 L253.857866,23.5965448 L245.752533,23.5965448 L245.752249,26.0970742 C245.749984,27.4710121 245.734263,28.4882951 245.708252,29.1497149 L245.708252,29.1497149 L253.006474,29.1497149 L253.006474,49.6143241 C253.006474,51.674371 252.573734,53.1517276 251.708252,54.0474002 C250.871956,54.9128816 249.453975,55.3456223 247.454311,55.3456223 L247.454311,55.3456223 L244.677726,55.3456223 L244.677726,51.8524992 L246.110802,51.8524992 C246.976283,51.8524992 247.588158,51.6592754 247.946427,51.2708152 C248.333881,50.8531701 248.529118,50.1517276 248.529118,49.1654814 L248.529118,49.1654814 L248.529118,32.5079839 L245.662965,32.5079839 C245.513016,38.8662529 244.871956,43.6887957 243.737773,46.9725931 C242.602583,50.2563905 240.736766,53.3751426 238.140322,56.3318685 L238.140322,56.3318685 L238.140322,51.2255283 C239.363066,48.3603824 240.169171,45.4650453 240.557632,42.5395169 C240.975277,39.4036565 241.184602,34.3888963 241.184602,27.4922174 L241.184602,23.5965448 L238.855854,23.5965448 L238.855854,20.0591412 L243.782053,20.0591412 L243.782053,16.0286146 L248.976954,16.0286146 Z M120.631399,16.6606172 C126.06481,16.6606172 130.468702,18.5767528 133.842066,22.4060047 C137.095673,26.1074472 138.723985,30.7438108 138.723985,36.3140892 C138.723985,42.6119758 137.095673,47.4868501 133.842066,50.9346863 C130.64683,54.3211338 126.213754,56.0138544 120.541832,56.0138544 C114.95847,55.9816505 110.539483,54.2104327 107.284871,50.6981885 C104.001073,47.1547467 102.359678,42.3744717 102.359678,36.3613888 C102.359678,30.4439114 103.985978,25.6958403 107.24059,22.1212009 C110.554579,18.4811473 115.017846,16.6606172 120.631399,16.6606172 Z M262.456021,15.9844348 C262.246696,17.5664542 262.022274,18.7459242 261.783764,19.5208319 L261.783764,19.5208319 L270.78477,19.5208319 L270.78477,23.0592419 L260.350688,23.0592419 C259.573767,24.3433747 258.574438,25.4181818 257.350688,26.2836632 L257.350688,26.2836632 L269.082992,26.2836632 L269.082992,30.0444817 C268.216505,32.3742368 266.889098,34.448373 265.097752,36.2699094 L265.097752,36.2699094 L265.097752,38.1951023 L270.874337,38.1951023 L270.874337,41.7335122 L265.097752,41.7335122 L265.097752,51.0475008 C265.097752,52.68789 264.739483,53.8683663 264.022945,54.5849044 C263.306407,55.3014425 262.126937,55.6597115 260.485542,55.6597115 L260.485542,55.6597115 L256.902851,55.6597115 L256.902851,51.9421671 L258.559343,51.9421671 C259.096746,51.9421671 259.4842,51.823415 259.723717,51.5849044 C259.962227,51.3453875 260.081986,50.9579336 260.081986,50.4195236 L260.081986,50.4195236 L260.081986,41.7335122 L254.215834,41.7335122 L254.215834,38.1951023 L260.081986,38.1951023 L260.081986,35.5533714 C261.84314,33.7026501 263.052801,31.8509225 263.709963,30.0002013 L263.709963,30.0002013 L256.320161,30.0002013 L256.320161,27.0002013 C255.515062,27.50842 254.603287,27.9844348 253.588863,28.4332774 L253.588863,28.4332774 L253.588863,25.2984233 C254.871989,23.9549145 255.767662,22.6566924 256.275881,21.4017444 C256.842469,20.0592419 257.200738,18.2538074 257.350688,15.9844348 L257.350688,15.9844348 Z M238.184602,37.7922509 C237.826333,44.4202281 236.736431,50.3155652 234.914894,55.4802751 L234.914894,55.4802751 L229.76528,55.4802751 C232.004462,49.9583026 233.363066,44.0609527 233.841094,37.7922509 L233.841094,37.7922509 Z M162.951023,17.183529 C166.951359,17.183529 169.951359,17.9896344 171.953036,19.6048641 C173.892318,21.155686 174.863469,23.4341161 174.863469,26.4401543 C174.863469,28.8775914 174.341161,30.7756122 173.296545,32.1362295 C172.249916,33.4978531 170.56424,34.542469 168.235491,35.2690708 C170.862127,35.7752768 172.892989,36.8359946 174.326065,38.450218 C175.727944,40.0332439 176.431399,42.0258638 176.431399,44.4321033 C176.431399,48.2603489 175.399866,51.0298893 173.339819,52.7387118 C171.220396,54.478732 167.802751,55.3492452 163.084871,55.3492452 L163.084871,55.3492452 L145.887957,55.3492452 L145.887957,17.183529 Z M206.076551,15.6707481 L206.076551,19.8351224 L220.675008,19.8351224 L220.675008,38.105837 C220.675008,40.6137202 220.137605,42.420161 219.062798,43.524153 C217.958806,44.6593425 216.167461,45.2259309 213.689769,45.2259309 L213.689769,45.2259309 L206.076551,45.2259309 L206.076551,47.9129487 C206.076551,49.2564576 206.345253,50.2115062 206.882657,50.779101 C207.389869,51.3154982 208.255351,51.5841999 209.480107,51.5841999 L209.480107,51.5841999 L216.913183,51.5841999 C217.987991,51.5841999 218.763905,51.360785 219.241932,50.9119423 C219.689769,50.4942972 219.91419,49.8089567 219.91419,48.8529017 L219.91419,48.8529017 L219.91419,47.3302583 L224.301979,47.3302583 L224.301979,49.300738 C224.301979,51.420161 223.839047,52.9428044 222.91419,53.8686682 C221.988326,54.7935257 220.480778,55.2564576 218.391546,55.2564576 L218.391546,55.2564576 L207.151359,55.2564576 C204.82261,55.2564576 203.120832,54.719054 202.047031,53.6442469 C200.942033,52.5402549 200.389534,50.7338142 200.389534,48.2269373 L200.389534,48.2269373 L200.389534,45.2259309 L186.059779,45.2259309 L186.059779,19.8351224 L200.389534,19.8351224 L200.389534,15.6707481 L206.076551,15.6707481 Z M161.830929,37.833311 L151.978531,37.833311 L151.978531,51.3146931 L162.278766,51.3146931 C165.084535,51.3146931 167.115398,50.7923851 168.369339,49.7487756 C169.623281,48.7031533 170.250252,47.0265347 170.250252,44.7169071 C170.190876,40.2536397 167.384099,37.9591077 161.830929,37.833311 L161.830929,37.833311 Z M120.541832,21.1228782 C117.108085,21.1228782 114.286213,22.4995975 112.077222,25.2540423 C109.80785,28.0708823 108.673667,31.7572291 108.673667,36.3140892 C108.673667,41.0923516 109.822945,44.8270044 112.122509,47.5170413 C114.272123,50.0168735 117.062798,51.2667897 120.496545,51.2667897 C124.259376,51.2667897 127.184904,50.0027843 129.274136,47.4697417 C131.424757,44.8753103 132.498558,41.1557531 132.498558,36.3140892 C132.498558,31.630426 131.408655,27.9279772 129.229856,25.2057363 C127.05005,22.4845018 124.153707,21.1228782 120.541832,21.1228782 Z M200.389534,34.1648776 L191.388527,34.1648776 L191.388527,41.5989601 L200.389534,41.5989601 L200.389534,34.1648776 Z M215.167125,34.1648776 L206.076551,34.1648776 L206.076551,41.5989601 L212.121838,41.5989601 C213.22583,41.5989601 214.002751,41.3745387 214.450587,40.9267024 C214.927608,40.4496813 215.167125,39.6727608 215.167125,38.5979537 L215.167125,38.5979537 L215.167125,34.1648776 Z M235.407816,26.9550151 C236.631567,29.5826568 237.527239,32.4488091 238.094834,35.553472 L238.094834,35.553472 L233.482623,35.553472 C233.063972,32.895639 232.257866,30.0304931 231.064307,26.9550151 L231.064307,26.9550151 Z M161.114391,21.2180812 L151.978531,21.2180812 L151.978531,33.2754445 L161.338812,33.2754445 C166.174438,33.2754445 168.59376,31.219423 168.59376,27.104361 C168.59376,25.0795371 167.995975,23.5921167 166.801409,22.6421 C165.60785,21.6920832 163.711842,21.2180812 161.114391,21.2180812 L161.114391,21.2180812 Z M200.389534,23.5073801 L191.388527,23.5073801 L191.388527,30.4926199 L200.389534,30.4926199 L200.389534,23.5073801 Z M215.167125,23.5073801 L206.076551,23.5073801 L206.076551,30.4926199 L215.167125,30.4926199 L215.167125,23.5073801 Z M235.005267,16.5217377 C236.169641,19.1181818 237.049212,21.9853405 237.646998,25.1191882 L237.646998,25.1191882 L233.034787,25.1191882 C232.497383,22.2238511 231.691278,19.3576988 230.616471,16.5217377 L230.616471,16.5217377 Z" id="OB电游白色" fill="#FFFFFF"></path>
    </g>
</svg>