<?xml version="1.0" encoding="UTF-8"?>
<svg width="271px" height="90px" viewBox="0 0 271 90" version="1.1" xmlns="http://www.w3.org/2000/svg" xmlns:xlink="http://www.w3.org/1999/xlink">
    <title>OB棋牌白色</title>
    <g id="pc" stroke="none" stroke-width="1" fill="none" fill-rule="evenodd">
        <path d="M45,2.84217094e-13 C69.8523985,2.84217094e-13 90,20.1476015 90,45 C90,69.8523985 69.8523985,90 45,90 C20.1476015,90 2.84217094e-13,69.8523985 2.84217094e-13,45 C2.84217094e-13,20.1476015 20.1476015,2.84217094e-13 45,2.84217094e-13 Z M128.163402,67.6969473 C129.341865,67.6969473 130.388494,68.1276753 131.184535,68.9257296 C132.207615,69.9488091 132.289461,71.0144784 132.296009,73.129729 L132.296009,74.2822981 C132.289461,76.3976792 132.207615,77.4641261 131.184535,78.4862798 C130.388494,79.2833277 129.341865,79.7150621 128.163402,79.7150621 C126.984938,79.7150621 125.939316,79.2833277 125.142268,78.4862798 C124.118262,77.4641261 124.036342,76.3976792 124.029788,74.2822981 L124.02929,73.4116663 C124.030999,71.1072258 124.07374,69.9932908 125.142268,68.9257296 C125.939316,68.1276753 126.984938,67.6969473 128.163402,67.6969473 Z M239.765414,67.6974505 C241.181571,67.6974505 242.145744,68.0326791 243.094935,68.826691 L243.284703,68.9916471 L242.471553,69.804797 C241.740926,69.1415968 240.960986,68.7923851 239.716102,68.7923851 C238.139114,68.7923851 237.226333,69.6729621 237.226333,70.984267 C237.226333,71.5649446 237.392385,72.0298893 237.757699,72.3448843 C238.081527,72.6257743 238.603351,72.839871 239.146467,72.9546611 L239.350788,72.9929889 L240.645991,73.1912445 C241.757028,73.3572962 242.305502,73.5897685 242.803656,74.0215029 C243.450755,74.5689701 243.799966,75.3831265 243.799966,76.3613217 C243.799966,78.4374706 242.173667,79.7145589 239.716102,79.7145589 C238.038533,79.7145589 236.908537,79.3151 235.851351,78.3339072 L235.665448,78.1546796 L236.528916,77.291211 C237.508118,78.271419 238.420899,78.586414 239.749312,78.586414 C241.475243,78.586414 242.537974,77.773264 242.537974,76.3955384 C242.537974,75.7816505 242.354814,75.2502851 241.973398,74.9181818 C241.620393,74.6116249 241.339418,74.5031509 240.619139,74.3830017 L240.429621,74.3525998 L239.051895,74.1372358 C238.122006,73.9882925 237.392385,73.6893995 236.877122,73.2415632 C236.279336,72.7091915 235.980443,71.980577 235.980443,71.032573 C235.980443,69.0248574 237.425595,67.6974505 239.765414,67.6974505 Z M181.298625,67.7967796 L181.298625,68.9259309 L177.878967,68.9259309 L177.878967,79.6156323 L176.616974,79.6156323 L176.616974,68.9259309 L173.197316,68.9259309 L173.197316,67.7967796 L181.298625,67.7967796 Z M185.103019,67.7963771 L185.103019,73.0919155 L190.713552,73.0919155 L190.713552,67.7963771 L191.974539,67.7963771 L191.974539,79.6152298 L190.713552,79.6152298 L190.713552,74.2210668 L185.103019,74.2210668 L185.103019,79.6152298 L183.841027,79.6152298 L183.841027,67.7963771 L185.103019,67.7963771 Z M156.39319,67.796679 L159.181852,73.4565247 L161.937303,67.796679 L163.298927,67.796679 L159.812848,74.7356256 L159.812848,79.6155317 L158.550855,79.6155317 L158.550855,74.7356256 L155.031567,67.796679 L156.39319,67.796679 Z M203.067192,67.7967796 L203.067192,68.9259309 L196.991714,68.9259309 L196.991714,73.092318 L202.170513,73.092318 L202.170513,74.2214693 L196.991714,74.2214693 L196.991714,78.486481 L203.067192,78.486481 L203.067192,79.6156323 L195.729722,79.6156323 L195.729722,67.7967796 L203.067192,67.7967796 Z M149.351996,67.796679 L149.351996,78.4863804 L155.394264,78.4863804 L155.394264,79.6155317 L148.090003,79.6155317 L148.090003,67.796679 L149.351996,67.796679 Z M136.799195,67.7963771 L143.072929,77.2422006 L143.072929,67.7963771 L144.334921,67.7963771 L144.334921,79.6152298 L143.139349,79.6152298 L136.864609,70.1361959 L136.864609,79.6152298 L135.602617,79.6152298 L135.602617,67.7963771 L136.799195,67.7963771 Z M219.407179,67.7967796 C221.465213,67.7967796 222.893257,68.9752432 222.893257,70.9507548 C222.893257,72.195639 222.145522,73.175847 221.149212,73.5401543 C222.278363,73.9557866 223.075411,74.9349883 223.075411,76.3459242 C223.075411,78.4151292 221.740983,79.5392318 219.763008,79.6118729 L219.556122,79.6156323 L214.958001,79.6156323 L214.958001,67.7967796 L219.407179,67.7967796 Z M233.719322,67.7967796 L233.719322,68.9259309 L227.643844,68.9259309 L227.643844,73.092318 L232.822643,73.092318 L232.822643,74.2214693 L227.643844,74.2214693 L227.643844,78.486481 L233.719322,78.486481 L233.719322,79.6156323 L226.382858,79.6156323 L226.382858,67.7967796 L233.719322,67.7967796 Z M253.662227,67.7967796 L253.662227,68.9259309 L250.24257,68.9259309 L250.24257,79.6156323 L248.980577,79.6156323 L248.980577,68.9259309 L245.561926,68.9259309 L245.561926,67.7967796 L253.662227,67.7967796 Z M128.163402,68.8260986 C127.382456,68.8260986 126.635726,69.1410936 126.121469,69.6724589 C125.40346,70.4059505 125.298617,71.1710774 125.291615,73.4279288 L125.291615,73.9839732 C125.298617,76.2400016 125.40346,77.0060589 126.121469,77.7395505 C126.635726,78.2709158 127.382456,78.5869171 128.163402,78.5869171 C128.943341,78.5869171 129.69007,78.2709158 130.205334,77.7395505 C130.923343,77.0060589 131.027255,76.2400016 131.034186,73.9839732 L131.034186,73.4279288 C131.027255,71.1710774 130.923343,70.4059505 130.205334,69.6724589 C129.69007,69.1410936 128.943341,68.8260986 128.163402,68.8260986 Z M219.440389,74.1540423 L216.219993,74.1540423 L216.219993,78.486481 L219.440389,78.486481 C220.900637,78.486481 221.813418,77.6401208 221.813418,76.3127139 C221.813418,74.9843006 220.900637,74.1540423 219.440389,74.1540423 Z M45.8001677,66.590842 C44.7598649,67.0946039 43.6774175,67.5089013 42.562332,67.823594 L42.0021134,67.9725931 L42.0021134,71.3892318 L42.001107,71.4707481 C41.9568266,73.4754445 40.3174438,75.0866488 38.3026837,75.0856424 L38.2391563,75.0845102 L38.2391563,75.0845102 L38.1748742,75.0826233 L38.1748742,75.0856424 L35.4979202,75.0856424 L35.4979202,77.7625964 L59.9829923,77.7625964 C59.8672593,77.7555518 54.0272727,77.3912445 50.1829252,74.2513586 C47.0712177,71.7092586 46.0255954,67.5368333 45.8001677,66.590842 Z M62.9678967,50.2090909 L62.5975512,52.0628313 L62.5884938,52.0990607 C62.5462261,52.2396655 62.4300207,52.3433015 62.2886766,52.3700422 L62.2161355,52.3768199 L57.7528682,52.3768199 L57.7166387,52.3748071 C57.5708583,52.3610054 57.4465198,52.2666117 57.3930558,52.1328197 L57.3724589,52.0628313 L57.0383428,50.4013083 L56.993056,50.4898692 C55.4563234,53.4385441 50.6257296,60.7689701 46.4452533,64.1574304 C46.5313541,68.618042 48.8566753,71.4720084 49.6868048,72.3512521 L49.75421,72.4217712 L51.2718215,71.2835626 L51.3050319,71.2624287 C51.4174103,71.1944985 51.554948,71.1880689 51.6716361,71.2431399 L51.7387789,71.2835626 L55.3073801,73.9564911 L55.3375713,73.9816505 C55.4039919,74.0420329 55.447266,74.1235491 55.4593425,74.2131164 C55.4706642,74.290104 55.4582103,74.3676577 55.4253774,74.436437 L55.3858772,74.5019457 L54.3462932,75.8867159 L54.491211,75.9440792 C59.1750978,77.7664654 63.6540482,76.4378334 65.1198876,75.8971538 L65.2151292,75.8615565 L64.1111372,74.0239181 L64.0920161,73.9876887 C64.0457229,73.8880577 64.0427038,73.7743375 64.0859779,73.6716874 C64.1342838,73.5579671 64.2339148,73.4734317 64.3546796,73.4452533 C65.2976518,73.2198256 67.1222073,71.6418316 67.7471654,71.0520966 C67.8670676,70.9390952 68.0431625,70.914819 68.1867248,70.9862393 L68.2553841,71.0299564 L69.8021805,72.2516941 L69.9179135,72.1570949 C73.6305698,69.0763591 73.2427944,63.7648185 73.0475711,62.2684094 L73.0356592,62.1799061 L71.136632,62.1799061 L71.1004025,62.1778933 C70.9192553,62.1617913 70.7713183,62.0198927 70.7501845,61.8357263 C70.4382781,59.1451688 69.7201461,58.2587032 69.57588,58.1056563 L69.5626635,58.0920161 L69.5536062,58.0829587 C69.4569943,57.9984233 69.4036565,57.873633 69.4147266,57.749849 C69.4235827,57.6500168 69.4678631,57.5572694 69.539839,57.4911869 L69.598893,57.4469306 L71.4969138,56.3097283 L71.4103656,56.1718551 C68.5542771,51.6592754 64.2258638,50.467729 62.9678967,50.2090909 Z M264.773298,73.1507883 L264.773298,74.2628313 L260.224488,74.2628313 L260.224488,73.1507883 L264.773298,73.1507883 Z M116.706541,73.1507883 L116.706541,74.2628313 L112.157732,74.2628313 L112.157732,73.1507883 L116.706541,73.1507883 Z M219.307548,68.9259309 L216.219993,68.9259309 L216.219993,73.0258973 L219.307548,73.0258973 C220.618853,73.0258973 221.631265,72.3777927 221.631265,70.9668568 C221.631265,69.5569272 220.618853,68.9259309 219.307548,68.9259309 Z M59.9860114,54.267796 C65.1154982,54.2748407 69.283898,58.455317 69.2768623,63.5878229 C69.2738343,66.0735659 68.3026837,68.4093593 66.5425361,70.164475 C64.8627671,71.8403935 62.6553996,72.7962735 60.2956254,72.8762254 L59.9729285,72.881684 L59.9598457,72.881684 L59.8068769,72.8796713 C54.7528682,72.7911104 50.6679973,68.6478698 50.6679973,63.57474 C50.6700101,61.0859779 51.6401543,58.7491781 53.4003019,56.9910433 C55.1584368,55.2359275 57.4942301,54.2688024 59.9779604,54.2688024 C59.9809795,54.2688024 59.985005,54.2667897 59.9860114,54.267796 Z M60.0564576,57.9541429 C60.0031198,58.0155317 59.9236162,58.1030862 59.8461255,58.1946662 C58.8628984,59.3479705 57.7196578,60.332204 56.5764173,61.3184502 C55.9434083,61.8659175 55.3788326,62.4747736 55.0759141,63.2738343 C54.7448172,64.1513922 54.8394163,64.9866823 55.4331768,65.7243542 C56.0520966,66.4922174 56.8914123,66.7267024 57.8404227,66.5858101 C58.5690372,66.4781281 59.1627977,66.1440121 59.494901,65.443576 C59.5036229,65.4264676 59.5152522,65.4107011 59.528335,65.3956055 L59.6126468,65.3077155 L59.6730292,65.3187856 L59.699344,65.4886019 L59.702214,65.5733982 C59.6518953,66.4600134 59.2825562,67.1815834 58.5700436,67.7209997 C58.4752208,67.7934586 58.3517723,67.8603514 58.4385993,67.9867044 L58.4814827,68.037001 L61.6887957,68.037001 L61.7109359,68.0098289 C61.821637,67.8679302 61.6928212,67.7894331 61.5941966,67.7149614 C61.2349212,67.4382087 60.9118752,67.1171754 60.7548809,66.6914794 C60.6160013,66.3181147 60.5515934,65.9155652 60.4640389,65.5240859 C60.4499497,65.4637035 60.4821536,65.3922509 60.5042939,65.2614223 C60.5898356,65.3530023 60.6512244,65.3922509 60.6753774,65.4476015 C61.088997,66.3845354 62.2553841,66.7468299 63.2154646,66.590842 C64.3305267,66.4086884 65.0571285,65.6690037 65.2493459,64.5569608 L65.2648189,64.518467 L65.2648189,64.518467 L65.2855753,64.4814827 L65.2855753,63.9189198 L65.244314,63.7689701 C65.2030527,63.6190205 65.1638041,63.4680644 65.1114727,63.3221402 C64.8810131,62.6740356 64.4704126,62.1416639 63.9772895,61.6807447 C63.3442804,61.088997 62.6669909,60.5445488 62.0390138,59.9487756 C61.3657497,59.3087219 60.7267024,58.6314324 60.0564576,57.9541429 Z M37.1554176,12.2365985 C25.5328078,12.2365985 15.9853405,24.3382422 15.9853405,39.2637705 C15.9853405,54.1903053 25.5448843,66.7780275 37.1574304,66.2899363 C41.7656156,66.0967125 43.5428715,65.0058034 45.5193895,63.57474 C48.7116068,61.2630996 55.3677625,52.4140557 56.8270044,47.6056021 C58.0930225,43.4351895 58.6606368,36.1944715 57.1567917,30.4225207 L57.0302918,29.9578329 L51.0141899,29.9578329 L51.0886615,30.2798725 C51.749849,33.184267 52.0215699,36.1560886 52.0779269,39.1359611 C52.334443,52.8436681 45.0864178,60.0782171 44.768105,60.389326 L44.7595773,60.3976182 C44.7579,60.4001342 44.7100973,60.4557643 44.6161691,60.5528607 L44.5542771,60.6160013 L44.5009393,60.6703455 C43.7240188,61.439215 41.204059,63.598893 37.1554176,63.8675948 C28.9313318,64.4110366 22.2329084,52.7944649 22.2329084,39.1359611 C22.2329084,25.4764509 28.9142234,14.4043274 37.1554176,14.4043274 C41.488013,14.4043274 45.3886061,17.4658663 48.1139951,22.3546643 L48.2979873,22.6908085 L53.8541765,22.6908085 L53.7374371,22.4995975 C49.8467964,16.2500168 43.84579,12.2365985 37.1554176,12.2365985 Z M59.220161,25.1121436 L35.4979202,25.1121436 L35.4979202,27.4066756 L38.1738678,27.4066756 L38.1738678,27.4107011 L38.2382757,27.407682 L38.3016773,27.4066756 C40.2777407,27.4066756 41.8928292,28.9570776 41.9958842,30.9077352 L42.001107,31.1040926 L42.001107,60.5817846 L42.0393492,60.5536062 C43.2630996,59.6338322 46.2639432,56.9847364 48.2248909,51.9462905 L48.3774908,51.5435424 L48.3774908,27.4066756 L58.7089232,27.4066756 L58.7089232,27.4177457 L58.8085542,27.4268031 C62.0923516,27.7337471 64.6988594,32.2292184 64.6988594,37.7330761 C64.6988594,42.7800403 62.5079839,46.9786313 59.6116404,47.8783294 C59.5311305,48.2074136 59.4445824,48.5354914 59.3540087,48.8625629 C59.5039584,48.857531 59.6549145,48.8504864 59.8058705,48.8504864 C61.20473,48.8504864 62.5542771,49.0547803 63.8333781,49.4281449 C68.5492452,47.5210668 71.6710164,42.9581684 71.7173096,37.8498155 C71.7827239,30.881684 66.1872861,25.180577 59.220161,25.1121436 Z M218.33529,47.6986917 C219.081013,49.2223415 219.962596,50.4018115 220.978028,51.2371016 C221.919993,51.9846935 223.222939,52.6307598 224.886059,53.1728831 L225.27625,53.2961422 L225.27625,56.4772895 C221.842503,55.8503187 219.246058,54.9244549 217.483898,53.6996981 C215.72963,52.4555024 214.32491,50.5944024 213.268885,48.1172538 L213.096109,47.6986917 L218.33529,47.6986917 Z M209.109661,47.6982892 C208.005669,50.4165045 206.557497,52.4161691 204.766152,53.6992955 C203.116658,54.8657306 200.695838,55.7610609 197.503694,56.3852864 L197.019088,56.476887 L197.019088,53.2967461 C198.9,52.7291513 200.33207,52.0428044 201.31731,51.2366991 C202.226762,50.4926019 203.035029,49.4303714 203.740527,48.0500078 L203.91476,47.6982892 L209.109661,47.6982892 Z M243.592855,16.2611875 L243.592855,26.6509896 L245.429487,26.6509896 L245.429487,30.1893995 L236.337907,30.1893995 L236.337907,35.0250252 L243.906843,35.0250252 L243.906843,55.8046293 L239.607615,55.8046293 L239.607615,38.4738678 L236.337907,38.4738678 L236.337907,40.0860785 C236.337907,44.5946327 235.859879,47.9971822 234.904831,50.2967461 C234.057252,52.3608715 232.484382,54.3057709 230.188787,56.1288772 L229.799497,56.4316001 L229.799497,52.4906407 C230.54522,51.0877558 231.068534,49.6405904 231.367427,48.1471318 C231.675,46.6083235 231.838398,44.5706527 231.857621,42.03329 L231.859544,41.5191546 L231.859544,17.337001 L236.337907,17.337001 L236.337907,26.6509896 L239.294633,26.6509896 L239.294633,16.2611875 L243.592855,16.2611875 Z M194.018081,15.7231801 L194.018081,22.1277424 L197.646058,22.1277424 L197.646058,25.7547132 L194.242503,25.7547132 C194.885009,29.4220018 196.027263,32.984034 197.668435,36.4399805 L198.003321,37.1297551 L198.003321,42.3246562 C196.359577,40.1239181 195.092799,38.1817958 194.202986,36.5007438 L194.018081,36.1445153 L194.018081,56.3867159 L189.002315,56.3867159 L189.002315,37.6671587 C188.043296,40.2334116 186.551966,43.1452638 184.528322,46.4044109 L184.165683,46.98316 L184.165683,40.9368668 C186.111283,36.595147 187.538035,31.8396058 188.444244,26.6710908 L188.598759,25.7547132 L184.792653,25.7547132 L184.792653,22.1277424 L189.002315,22.1277424 L189.002315,15.7231801 L194.018081,15.7231801 Z M259.267628,15.7232808 C259.025797,16.8799061 258.75951,17.82948 258.469503,18.57347 L258.371956,18.8138544 L269.03046,18.8138544 L269.03046,32.0698088 C269.03046,34.2184166 268.596713,35.7420664 267.731231,36.637739 C266.942346,37.4551381 265.632818,37.8865432 263.804342,37.9319542 L263.476283,37.9359611 L257.924119,37.9359611 C256.395681,40.0114507 253.476881,42.0869403 249.165909,44.1624299 L248.698692,44.3848038 L257.342435,44.3848038 L257.342435,39.3700436 L262.402482,39.3700436 L262.402482,44.3848038 L270.866085,44.3848038 L270.866085,48.0127809 L262.402482,48.0127809 L262.402482,56.207682 L257.342435,56.207682 L257.342435,48.0127809 L245.205569,48.0127809 L245.205569,44.3848038 L247.757732,44.3848038 L247.757732,41.5639383 C249.791278,40.4208319 251.370712,39.2917522 252.495217,38.1750627 L252.729218,37.9359611 L246.951627,37.9359611 L246.951627,18.8138544 L253.042201,18.8138544 C253.329269,18.0556776 253.582435,17.1726791 253.801698,16.1635103 L253.893593,15.7232808 L259.267628,15.7232808 Z M120.631399,16.6606172 C126.06481,16.6606172 130.468702,18.5767528 133.842066,22.4060047 C137.095673,26.1074472 138.723985,30.7438108 138.723985,36.3140892 C138.723985,42.6119758 137.095673,47.4868501 133.842066,50.9346863 C130.64683,54.3211338 126.213754,56.0138544 120.541832,56.0138544 C114.95847,55.9816505 110.539483,54.2104327 107.284871,50.6981885 C104.001073,47.1547467 102.359678,42.3744717 102.359678,36.3613888 C102.359678,30.4439114 103.985978,25.6958403 107.24059,22.1212009 C110.554579,18.4811473 115.017846,16.6606172 120.631399,16.6606172 Z M162.950923,17.1832271 C166.951258,17.1832271 169.951258,17.9903388 171.952935,19.6045622 C173.892217,21.1553841 174.863368,23.4338142 174.863368,26.4398524 C174.863368,28.8772895 174.34106,30.7763167 173.296444,32.1359275 C172.250822,33.4975512 170.56414,34.5421671 168.235391,35.2697752 C170.862026,35.7759812 172.892888,36.8356927 174.325964,38.4509225 C175.728849,40.032942 176.431298,42.0265683 176.431298,44.4318014 C176.431298,48.2610533 175.399765,51.0305938 173.340725,52.7384099 C171.293413,54.419401 168.036807,55.2888792 163.568189,55.3468444 L163.08477,55.3499497 L145.887856,55.3499497 L145.887856,17.1832271 L162.950923,17.1832271 Z M161.830829,37.8330091 L151.97843,37.8330091 L151.97843,51.3143911 L162.278665,51.3143911 C165.084435,51.3143911 167.115297,50.7920832 168.369239,49.7484737 C169.62318,48.7028514 170.250151,47.0262328 170.250151,44.7166052 C170.190775,40.2543442 167.385005,37.9588058 161.830829,37.8330091 Z M120.541832,21.1228782 C117.108085,21.1228782 114.286213,22.4995975 112.077222,25.2540423 C109.80785,28.0708823 108.673667,31.7572291 108.673667,36.3140892 C108.673667,41.0923516 109.822945,44.8270044 112.122509,47.5170413 C114.272123,50.0168735 117.062798,51.2667897 120.496545,51.2667897 C124.259376,51.2667897 127.184904,50.0027843 129.274136,47.4697417 C131.424757,44.8753103 132.498558,41.1557531 132.498558,36.3140892 C132.498558,31.630426 131.408655,27.9279772 129.229856,25.2057363 C127.05005,22.4845018 124.153707,21.1228782 120.541832,21.1228782 Z M206.065481,15.6798054 L206.065481,19.0380745 L216.230862,19.0380745 L216.230862,15.6798054 L221.424757,15.6798054 L221.424757,19.0380745 L224.47105,19.0380745 L224.47105,22.6650453 L221.424757,22.6650453 L221.424757,42.6838309 L225.143308,42.6838309 L225.143308,46.3108017 L196.929621,46.3108017 L196.929621,42.6838309 L200.87058,42.6838309 L200.87058,22.6650453 L197.780007,22.6650453 L197.780007,19.0380745 L200.87058,19.0380745 L200.87058,15.6798054 L206.065481,15.6798054 Z M216.231869,38.2497484 L206.065481,38.2497484 L206.065481,42.6828246 L216.231869,42.6828246 L216.231869,38.2497484 Z M216.231869,30.4573968 L206.065481,30.4573968 L206.065481,34.7566253 L216.231869,34.7566253 L216.231869,30.4573968 Z M255.639651,29.8306273 L251.206575,29.8306273 L251.206575,34.442838 L254.877826,34.442838 C255.326669,33.1888963 255.580275,31.6521637 255.639651,29.8306273 Z M264.730225,29.8306273 L260.252868,29.8306273 C260.197518,31.5280443 260.017859,32.960778 259.712342,34.1303787 L259.625897,34.442838 L262.178061,34.442838 C263.102918,34.442838 263.761087,34.2496142 264.148541,33.861154 C264.503707,33.5059879 264.696511,32.8988231 264.726179,32.0412098 L264.730225,31.801107 L264.730225,29.8306273 Z M161.114291,21.2187856 L151.97843,21.2187856 L151.97843,33.2751426 L161.338712,33.2751426 C166.174337,33.2751426 168.59366,31.2191211 168.59366,27.104059 C168.59366,25.0802415 167.995874,23.5918148 166.801308,22.6428044 C165.607749,21.6917813 163.711741,21.2187856 161.114291,21.2187856 Z M216.231869,22.6650453 L206.065481,22.6650453 L206.065481,26.9632674 L216.231869,26.9632674 L216.231869,22.6650453 Z M255.639651,22.3069775 L251.206575,22.3069775 L251.206575,26.4713519 L255.639651,26.4713519 L255.639651,22.3069775 Z M264.730225,22.3069775 L260.297149,22.3069775 L260.297149,26.4713519 L264.730225,26.4713519 L264.730225,22.3069775 Z" id="OB棋牌白色" fill="#FFFFFF"></path>
    </g>
</svg>