<?xml version="1.0" encoding="UTF-8"?>
<svg width="271px" height="90px" viewBox="0 0 271 90" version="1.1" xmlns="http://www.w3.org/2000/svg" xmlns:xlink="http://www.w3.org/1999/xlink">
    <title>OB体育体育</title>
    <g id="pc" stroke="none" stroke-width="1" fill="none" fill-rule="evenodd">
        <path d="M45,3.41060513e-13 C69.8523985,3.41060513e-13 90,20.1476015 90,45 C90,69.8523985 69.8523985,90 45,90 C20.1476015,90 2.84217094e-13,69.8523985 2.84217094e-13,45 C2.84217094e-13,20.1476015 20.1476015,3.41060513e-13 45,3.41060513e-13 Z M128.163402,67.5195236 C129.341865,67.5195236 130.388494,67.9502516 131.184535,68.7483059 C132.207615,69.7704596 132.289461,70.8369065 132.296009,72.9522876 L132.296009,74.1048567 C132.289461,76.2201073 132.207615,77.2857766 131.184535,78.3088561 C130.388494,79.1059041 129.341865,79.5376384 128.163402,79.5376384 C126.984938,79.5376384 125.939316,79.1059041 125.142268,78.3088561 C124.118262,77.2857766 124.036342,76.2201073 124.029788,74.1048567 L124.029788,72.9522876 C124.036342,70.8369065 124.118262,69.7704596 125.142268,68.7483059 C125.939316,67.9502516 126.984938,67.5195236 128.163402,67.5195236 Z M239.765616,67.5200268 C241.276182,67.5200268 242.272492,67.9004361 243.284904,68.8142234 L242.471754,69.626367 C241.741127,68.9631667 240.961188,68.613955 239.716303,68.613955 C238.139316,68.613955 237.225528,69.494532 237.225528,70.805837 C237.225528,71.3865146 237.39158,71.8514592 237.7579,72.1674606 C238.122207,72.4824556 238.736095,72.7149279 239.35099,72.8145589 L240.646193,73.0138209 C241.757229,73.1798725 242.305703,73.4123449 242.802851,73.8440792 C243.450956,74.3915465 243.800168,75.2046964 243.800168,76.183898 C243.800168,78.2590406 242.172861,79.5371352 239.716303,79.5371352 C237.939047,79.5371352 236.777692,79.0892989 235.665649,77.9762496 L236.529118,77.1137873 C237.508319,78.0929889 238.4211,78.4089903 239.749514,78.4089903 C241.475444,78.4089903 242.538175,77.5948339 242.538175,76.2171084 C242.538175,75.6042268 242.355015,75.0718551 241.973599,74.7397518 C241.591177,74.4076484 241.292284,74.3090238 240.429822,74.1751761 L239.052097,73.9598121 C238.122207,73.8108688 237.39158,73.5119758 236.877323,73.0631332 C236.279537,72.5317679 235.980644,71.8021469 235.980644,70.8551493 C235.980644,68.8474337 237.425797,67.5200268 239.765616,67.5200268 Z M156.39309,67.6183495 L159.181751,73.2781952 L161.937202,67.6183495 L163.298826,67.6183495 L159.812747,74.5572962 L159.812747,79.4382087 L158.550755,79.4382087 L158.550755,74.5572962 L155.031466,67.6183495 L156.39309,67.6183495 Z M219.407179,67.6192553 C221.465213,67.6192553 222.893257,68.7977189 222.893257,70.7722241 C222.893257,72.0181147 222.145522,72.9973163 221.149212,73.36263 C222.278363,73.7782623 223.075411,74.7564576 223.075411,76.1683999 C223.075411,78.3089567 221.647367,79.438108 219.556122,79.438108 L214.958001,79.438108 L214.958001,67.6192553 L219.407179,67.6192553 Z M136.798591,67.6189534 L143.073331,77.0647769 L143.073331,67.6189534 L144.334317,67.6189534 L144.334317,79.4378061 L143.139752,79.4378061 L136.865012,69.9587722 L136.865012,79.4378061 L135.603019,79.4378061 L135.603019,67.6189534 L136.798591,67.6189534 Z M253.661523,67.6189534 L253.661523,68.7481047 L250.242872,68.7481047 L250.242872,79.4378061 L248.980879,79.4378061 L248.980879,68.7481047 L245.562227,68.7481047 L245.562227,67.6189534 L253.661523,67.6189534 Z M233.719322,67.6189534 L233.719322,68.7481047 L227.643844,68.7481047 L227.643844,72.9144918 L232.822643,72.9144918 L232.822643,74.0436431 L227.643844,74.0436431 L227.643844,78.3086548 L233.719322,78.3086548 L233.719322,79.4378061 L226.382858,79.4378061 L226.382858,67.6189534 L233.719322,67.6189534 Z M203.067192,67.6189534 L203.067192,68.7481047 L196.991714,68.7481047 L196.991714,72.9144918 L202.170513,72.9144918 L202.170513,74.0436431 L196.991714,74.0436431 L196.991714,78.3086548 L203.067192,78.3086548 L203.067192,79.4378061 L195.729722,79.4378061 L195.729722,67.6189534 L203.067192,67.6189534 Z M181.298021,67.6189534 L181.298021,68.7481047 L177.879369,68.7481047 L177.879369,79.4378061 L176.617377,79.4378061 L176.617377,68.7481047 L173.197719,68.7481047 L173.197719,67.6189534 L181.298021,67.6189534 Z M185.103019,67.6189534 L185.103019,72.9144918 L190.713552,72.9144918 L190.713552,67.6189534 L191.974539,67.6189534 L191.974539,79.4378061 L190.713552,79.4378061 L190.713552,74.0436431 L185.103019,74.0436431 L185.103019,79.4378061 L183.841027,79.4378061 L183.841027,67.6189534 L185.103019,67.6189534 Z M149.352097,67.6189534 L149.352097,78.3086548 L155.394364,78.3086548 L155.394364,79.4378061 L148.090104,79.4378061 L148.090104,67.6189534 L149.352097,67.6189534 Z M128.163402,68.6476686 C127.382456,68.6476686 126.635726,68.9636699 126.121469,69.4950352 C125.40346,70.2285268 125.298617,70.9936537 125.291615,73.2505051 L125.291211,73.528581 C125.291211,76.0012412 125.37474,76.7992955 126.121469,77.5621268 C126.635726,78.0934921 127.382456,78.4084871 128.163402,78.4084871 C128.943341,78.4084871 129.69007,78.0934921 130.205334,77.5621268 C130.923343,76.8286352 131.027255,76.0625779 131.034186,73.8065495 L131.034586,73.528581 C131.034586,71.0549145 130.952063,70.2578665 130.205334,69.4950352 C129.69007,68.9636699 128.943341,68.6476686 128.163402,68.6476686 Z M219.440389,73.9765179 L216.219993,73.9765179 L216.219993,78.3089567 L219.440389,78.3089567 C220.900637,78.3089567 221.813418,77.4625964 221.813418,76.1351895 C221.813418,74.8057699 220.900637,73.9765179 219.440389,73.9765179 Z M43.8680309,67.352365 C43.2621939,67.5848373 42.6533378,67.7911439 42.0404562,67.9400872 C41.9579336,67.9612211 41.8995639,68.03368 41.8995639,68.1192217 L41.8995639,71.3104327 C41.8995639,73.4691043 40.0035559,74.9826904 37.9505535,74.9826904 L35.7828246,74.9826904 C35.5483395,74.9826904 35.3581349,75.1739014 35.3581349,75.4083864 L35.3581349,77.3376048 C35.3581349,77.5720899 35.5483395,77.7633009 35.7828246,77.7633009 L50.8542771,77.7633009 C51.1078833,77.7633009 51.2065079,77.4362295 50.9951694,77.2973499 C47.5916136,75.0531365 45.0827239,71.5700772 44.1145924,67.4831936 C44.0884267,67.3734988 43.9737001,67.31211 43.8680309,67.352365 Z M52.6493459,74.1163033 C52.5597786,74.1062395 52.4732305,74.1434753 52.4188863,74.2139215 L51.8593425,74.9324723 C51.7667561,75.0512244 51.7919155,75.2263334 51.9167058,75.3108688 C54.1880912,76.8697417 56.8932238,77.7634015 59.8600134,77.7634015 C60.1780275,77.7634015 60.4920161,77.7402549 60.8049983,77.7181147 C60.8643744,77.6899363 60.9167058,77.6637705 60.9760819,77.6365985 L61.5859443,76.9874874 C61.668467,76.8999329 61.6473331,76.7580342 61.5416639,76.6976518 L58.0082858,74.6818853 C57.9730627,74.6708152 57.9398524,74.6607514 57.9056357,74.6496813 L52.6493459,74.1163033 Z M64.6382757,67.9297216 L59.1958068,70.2705468 C59.118316,70.3027508 59.0619591,70.3711842 59.0438443,70.4537068 L58.3071788,73.9176451 C58.2840322,74.0263334 58.3333445,74.1400537 58.4309628,74.1954042 L61.9965448,76.2665213 C62.0679973,76.3077826 62.1545455,76.3128145 62.2300235,76.2806105 L67.2900704,74.0776585 C67.3635357,74.0454545 67.4178799,73.9810466 67.4380074,73.9045622 L68.4383428,70.0129151 C68.468534,69.8961758 68.4141899,69.7744046 68.3065079,69.7180476 L64.859678,67.9367662 C64.7912445,67.9015431 64.7097283,67.898524 64.6382757,67.9297216 Z M46.5166052,66.0575646 L46.0909091,66.5033881 C46.047635,66.5496813 46.0295203,66.6140892 46.0426032,66.675478 C46.7601476,69.9250587 48.4991614,72.6603824 51.0251593,74.6429386 C51.1368668,74.7304931 51.3009057,74.7103656 51.3914794,74.6006709 L51.956055,73.9113049 C52.0214693,73.8318014 52.0325394,73.7221067 51.9872526,73.6305267 L49.6866823,69.0565582 L49.6403891,68.9921503 L46.7853069,66.0565582 C46.7118417,65.9800738 46.5900704,65.9810802 46.5166052,66.0575646 Z M72.119054,65.2712848 C72.0224421,65.2642402 71.9298558,65.3115398 71.8785307,65.3940624 L69.1391815,69.8211003 L69.1079839,69.8945656 L68.1257632,73.8777927 C68.0985911,73.9884938 68.1760819,74.0971822 68.2887957,74.1082523 L69.1120094,74.1877558 C69.1824556,74.1656156 69.2448507,74.1444817 69.3152969,74.1213351 C71.736632,71.9455552 73.3860785,69.0612882 73.8540423,65.6828916 C73.8751761,65.532942 73.7624623,65.3960751 73.6115062,65.385005 L72.119054,65.2712848 Z M116.706541,72.9717544 L116.706541,74.0837974 L112.157732,74.0837974 L112.157732,72.9717544 L116.706541,72.9717544 Z M264.773298,72.9717544 L264.773298,74.0837974 L260.224488,74.0837974 L260.224488,72.9717544 L264.773298,72.9717544 Z M219.307548,68.7484066 L216.219993,68.7484066 L216.219993,72.848373 L219.307548,72.848373 C220.618853,72.848373 221.631265,72.199262 221.631265,70.7893324 C221.631265,69.3794029 220.618853,68.7484066 219.307548,68.7484066 Z M60.029688,57.7713854 L54.9313989,60.0357263 C54.8468635,60.0729621 54.7895002,60.153472 54.7794364,60.245052 L54.1574975,66.1353573 C54.1484401,66.2269373 54.1886951,66.3165045 54.2621603,66.3718551 L58.7143576,69.6486078 C58.7878229,69.7019457 58.8864475,69.7140221 58.9709829,69.6767863 L64.3258973,67.368165 C64.4114391,67.3309292 64.4708152,67.2514257 64.4808789,67.1588393 L65.1148943,61.3882925 C65.1249581,61.2946998 65.0836967,61.2031198 65.0072123,61.1487756 L60.2853069,57.7965448 C60.2108353,57.7442134 60.113217,57.7341496 60.029688,57.7713854 Z M53.1770882,59.2497484 C51.6604831,61.2836297 49.5470983,63.3436766 46.9969473,65.1279772 C46.9033546,65.1923851 46.8892653,65.3252264 46.9667561,65.4077491 L47.7185173,66.1967461 L49.8540423,68.4349212 C49.9415968,68.5254948 50.0834955,68.5405904 50.1881583,68.4691379 L53.3974841,66.261154 C53.4357263,66.1967461 53.4689366,66.1403891 53.5071788,66.0749748 L54.1250923,60.1232808 C54.135156,60.013586 54.0989265,59.9059041 54.0234485,59.8274069 L53.4588729,59.2336464 C53.3793693,59.149111 53.246528,59.157162 53.1770882,59.2497484 Z M37.0337471,12.2382557 C31.531902,12.2242201 26.2897014,14.9877222 22.1776585,20.1796042 C18.0656156,25.3714861 15.9965112,31.694532 15.9965112,39.3278766 C15.807313,45.4768199 18.0334116,52.4852063 20.8613217,56.6727273 C23.6882254,60.8592419 29.0803757,66.3620933 37.1082187,66.3360205 C45.1360617,66.3107682 49.5349212,61.2144918 51.4560886,59.1393492 C53.377256,57.0642066 55.6969473,53.1494129 57.23368,47.5147266 C58.6335458,42.1215699 58.5510231,36.3530359 57.0062395,30.3188192 C56.9579336,30.1296209 56.7838309,29.9937605 56.5875881,29.9937605 L51.4389802,29.9937605 C51.1672593,29.9937605 50.9669909,30.2473667 51.0253606,30.5130493 C51.5909426,33.1044616 52.0277088,35.4372358 52.0236833,38.2591077 C52.0438108,41.631466 51.7801409,44.4 51.1038578,47.9072123 C50.5412949,50.8256961 48.9250587,54.8753438 47.3400201,57.3409594 C43.6003355,63.156793 39.1028514,63.296679 37.082053,63.296679 C32.6157665,63.296679 28.4795706,60.4345522 26.0984904,56.1051325 C23.7184166,51.7777256 22.1162697,44.8951359 22.1776585,39.1296209 C22.1776585,33.0531365 23.4456894,27.2040926 26.2897014,22.1853069 C29.1347199,17.1675277 33.0364307,15.2634686 36.9934921,15.2634686 C40.9505535,15.2634686 43.2702449,16.6633345 45.0605837,18.348004 C45.7539752,19.0001342 47.353103,21.1598121 48.0152969,22.4157665 C48.1642402,22.7005703 48.4530694,22.8867494 48.775109,22.8867494 L53.1689366,22.8867494 C53.4970144,22.8867494 53.7063402,22.5335122 53.5392821,22.2507212 C51.9703455,19.5898692 46.4191882,12.2252264 37.0337471,12.2382557 Z M70.606575,54.7458235 L69.9192217,55.156424 C69.8377055,55.2057363 69.7893995,55.2942972 69.793425,55.3899027 L69.9856424,59.7797048 L71.9430392,64.5539416 C71.9802751,64.6435089 72.0658168,64.7059041 72.1634351,64.713955 L73.7706139,64.8347199 C73.8722576,64.8427709 73.9628313,64.7652801 73.9708823,64.66263 C74.0000671,64.3073801 74.0151627,63.9853405 74.0151627,63.606944 C74.0151627,60.2808789 72.8668903,57.2235156 70.9467293,54.8072123 C70.865213,54.7045622 70.7182825,54.6794029 70.606575,54.7458235 Z M64.7407246,51.8654814 L60.5059041,52.9141228 C60.3881583,52.9433076 60.3066421,53.0499832 60.3086184,53.1707481 L60.3811137,56.9969809 C60.3831265,57.0784971 60.4233814,57.1549815 60.4908085,57.2032875 L65.4099631,60.6873532 C65.4733646,60.7326401 65.5538745,60.7467293 65.6293526,60.7255954 L69.1576988,59.7383428 C69.2734317,59.7051325 69.3519289,59.5974505 69.346897,59.477692 L69.1768199,55.3747065 C69.1426032,55.3072794 69.1124119,55.2499161 69.0792016,55.1814827 L64.9641396,51.9147937 C64.900738,51.864475 64.8182154,51.8473667 64.7407246,51.8654814 Z M57.55421,25.2485914 L35.7833277,25.2485914 C35.5478363,25.2485914 35.3576317,25.4398189 35.3576317,25.6732976 L35.3576317,27.147635 C35.3576317,27.3821201 35.5518618,27.5763502 35.7873532,27.578363 C35.980577,27.5803757 36.1626188,27.5792575 36.3400388,27.5785866 L36.8601476,27.578363 C37.0174774,27.578363 37.1759253,27.5786984 37.340076,27.5790339 L38.1327211,27.5794113 C38.2285083,27.5792016 38.3274405,27.5788662 38.4300906,27.578363 C40.1570278,27.5411271 41.9745387,29.2197585 41.9463603,30.9346193 L41.9460165,31.7815142 L41.9459459,31.8642995 L41.9459459,31.8642995 L41.9450369,32.7334871 L41.9449069,32.8432338 L41.9449069,32.8432338 L41.9441761,33.428938 C41.9440699,33.5110269 41.9439604,33.5946762 41.9438474,33.6798407 L41.9431312,34.2086493 C41.942754,34.4817837 41.9423489,34.7677424 41.9419187,35.0653064 L41.9410256,35.6755468 C41.9371717,38.2796786 41.9317022,41.6332906 41.9262328,45.0308957 L41.9242201,45.8832942 L41.9242201,59.6504864 C41.9242201,60.0017108 42.3247568,60.2039919 42.6045287,59.9906407 C44.3032875,58.6974505 48.3962093,54.82895 48.4404898,48.6639047 C48.4586045,46.2727608 48.4676619,43.4911439 48.4686682,40.319054 L48.4696746,39.8510902 L48.4696746,39.1405904 L48.4686682,38.6595438 C48.4676619,35.7632003 48.4606172,32.5669574 48.446528,29.0698088 C48.4435089,28.2476015 49.1097283,27.578363 49.9319356,27.578363 L58.2878564,27.578363 C58.6803422,27.578363 59.0718215,27.6276753 59.4482053,27.7403891 C60.2251258,27.9738678 61.410634,28.5122778 62.2881919,29.7299899 C63.7071788,31.7004696 64.8041261,34.2013083 64.6833613,38.7581684 C64.6833613,41.4280778 63.3368333,46.0845689 60.1949346,47.7279772 C60.09631,47.7793022 60.1275075,47.9272392 60.2382087,47.9362965 C60.7866823,47.9825897 61.7598457,48.0701442 62.3606508,48.1576988 C63.2341832,48.2855082 63.8430392,48.346897 65.0134519,48.745421 C65.1704462,48.7987588 65.3465616,48.7826568 65.4874539,48.6951023 C69.8178799,46.0141228 71.8306273,41.7964106 71.7511238,37.8182154 C71.8195572,34.0141228 70.052365,30.3992284 67.10369,28.0272056 C64.1550151,25.6561892 61.0916136,25.2455887 57.55421,25.2485914 Z M212.693056,15.6809124 L212.693056,21.6376384 L223.39584,21.6376384 L223.39584,25.3088896 L219.678296,25.3088896 C219.708487,30.2350889 220.081852,34.3863804 220.79839,37.7587387 C221.484737,41.0435424 222.650117,44.3414291 224.291513,47.6554176 L224.291513,52.493056 C221.335793,49.3883932 219.171084,46.0301241 217.797383,42.4162362 C216.125797,38.0576317 215.199933,32.3555183 215.021805,25.3088896 L212.693056,25.3088896 L212.693056,44.1622945 L218.469641,44.1622945 L218.469641,47.6111372 L212.693056,47.6111372 L212.693056,56.0757464 L207.273734,56.0757464 L207.273734,47.6111372 L201.22744,47.6111372 L201.22744,44.4320027 C199.944314,47.1783965 198.063402,49.8805099 195.585709,52.5383428 L195.585709,47.6554176 C197.286481,44.2236833 198.465951,40.923784 199.124119,37.7587387 C199.779269,34.5343173 200.137538,30.3850386 200.19792,25.3088896 L196.839651,25.3088896 L196.839651,21.6376384 L207.273734,21.6376384 L207.273734,15.6809124 L212.693056,15.6809124 Z M197.690037,15.6809124 C196.704797,20.0405233 195.465951,23.3987924 193.972492,25.7567259 L193.972492,56.0757464 L188.777591,56.0757464 L188.777591,30.6386448 C187.584032,31.3551828 186.046293,32.0274405 184.165381,32.6544113 L184.165381,29.3847031 C186.404562,27.7131164 188.10634,25.9207648 189.271721,24.0096612 C190.525663,21.9496142 191.509896,19.1740356 192.226434,15.6809124 L197.690037,15.6809124 Z M266.164106,32.8778262 L266.164106,50.2085877 C266.164106,52.2394498 265.745455,53.672526 264.910164,54.5078162 C264.073868,55.3431063 262.655887,55.7617578 260.656223,55.7617578 L256.266421,55.7617578 L256.266421,52.3592083 L258.371754,52.3592083 C259.207045,52.3592083 259.774639,52.194163 260.073532,51.8660852 C260.372425,51.5380074 260.521369,50.9251258 260.521369,50.0294532 L260.521369,48.9546461 L240.279168,48.9546461 L240.279168,56.0304596 L234.680711,56.0304596 L234.680711,32.8778262 L266.164106,32.8778262 Z M120.6316,16.4820865 C126.064005,16.4820865 130.467897,18.3992284 133.842268,22.227474 C137.095874,25.9299228 138.72318,30.5662865 138.72318,36.1365649 C138.72318,42.4344515 137.095874,47.3083194 133.842268,50.757162 C130.647031,54.1426032 126.213955,55.8363301 120.542033,55.8363301 C114.958672,55.8041261 110.539685,54.0329084 107.285072,50.5206642 C104.000268,46.976216 102.359879,42.195941 102.359879,36.1838645 C102.359879,30.2663871 103.986179,25.518316 107.240792,21.9426702 C110.55478,18.3036229 115.018048,16.4820865 120.6316,16.4820865 Z M162.951023,17.0048977 C166.951359,17.0048977 169.951359,17.8120094 171.953036,19.4272392 C173.892318,20.9780611 174.863469,23.2554847 174.863469,26.2625294 C174.863469,28.6999665 174.341161,30.5979873 173.296545,31.9586045 C172.250923,33.3192217 170.56424,34.3638376 168.235491,35.0914458 C170.862127,35.5976518 172.892989,36.6583697 174.326065,38.2725931 C175.72895,39.8556189 176.431399,41.8482388 176.431399,44.2544784 C176.431399,48.0827239 175.399866,50.8522643 173.340825,52.5610869 C171.220396,54.301107 167.802751,55.1716203 163.084871,55.1716203 L145.887957,55.1716203 L145.887957,17.0048977 L162.951023,17.0048977 Z M59.8601141,49.4509896 C59.1486078,49.4509896 58.4723247,49.5103656 57.8121436,49.602952 C57.7366655,49.6140221 57.6762831,49.6683663 57.6581684,49.7418316 C57.4911104,50.4130829 57.2787655,51.1457229 57.0150956,51.9206307 C56.975847,52.0363636 57.0543442,52.1591412 57.175109,52.169205 L60.1469306,52.3966454 C60.1741027,52.3946327 60.2012747,52.3916136 60.2294532,52.3896008 L64.2479034,51.3852399 C64.3968467,51.348004 64.4813821,51.1900034 64.4280443,51.0440792 L64.123113,50.2148272 C64.0939282,50.1373365 64.0305267,50.0759477 63.9500168,50.0517947 C62.6558202,49.6613217 61.2821201,49.4509896 59.8601141,49.4509896 Z M161.830929,37.655686 L151.978531,37.655686 L151.978531,51.1370681 L162.278766,51.1370681 C165.084535,51.1370681 167.115398,50.6147601 168.369339,49.5711506 C169.623281,48.5255283 170.250252,46.8489098 170.250252,44.5392821 C170.190876,40.0760148 167.385106,37.7814827 161.830929,37.655686 Z M120.542033,20.9453539 C117.108286,20.9453539 114.286414,22.3220731 112.077424,25.0755116 C109.808051,27.8923516 108.673868,31.5786984 108.673868,36.1365649 C108.673868,40.9148272 109.823147,44.64948 112.12271,47.3395169 C114.272325,49.8393492 117.062999,51.0892653 120.496746,51.0892653 C124.258571,51.0892653 127.185106,49.8242536 129.274337,47.2922174 C131.423952,44.697786 132.498759,40.9772224 132.498759,36.1365649 C132.498759,31.4518953 131.408856,27.7504529 129.230057,25.028212 C127.050252,22.3069775 124.153908,20.9453539 120.542033,20.9453539 Z M260.521369,42.5963771 L240.279168,42.5963771 L240.279168,45.819792 L260.521369,45.819792 L260.521369,42.5963771 Z M207.273734,25.3088896 L204.811137,25.3088896 C204.691379,33.1012412 203.527004,39.386045 201.317008,44.1622945 L207.273734,44.1622945 L207.273734,25.3088896 Z M260.521369,36.2813821 L240.279168,36.2813821 L240.279168,39.4162362 L260.521369,39.4162362 L260.521369,36.2813821 Z M161.114391,21.0404562 L151.978531,21.0404562 L151.978531,33.0978195 L161.338812,33.0978195 C166.174438,33.0978195 168.59376,31.0417981 168.59376,26.926736 C168.59376,24.9019121 167.995975,23.4144918 166.801409,22.464475 C165.60785,21.5144582 163.711842,21.0404562 161.114391,21.0404562 Z M253.580409,15.6809124 L253.580409,18.5913452 L270.373767,18.5913452 L270.373767,22.2193224 L248.743777,22.2193224 C246.773298,23.8919155 244.458638,25.4437437 241.801811,26.8768199 C248.817243,26.9070111 254.564643,26.7278766 259.043006,26.3384099 C258.476417,25.5624958 257.759879,24.6980208 256.894398,23.7419658 L261.77531,23.7419658 C263.924925,25.832204 265.820933,28.3984569 267.462328,31.4447501 L261.910164,31.4447501 C261.550889,30.6094599 261.267092,29.9965783 261.058772,29.6081181 C255.147333,30.1757128 248.354311,30.4585039 240.681718,30.4585039 L234.545857,30.4585039 L234.545857,26.8768199 C237.531768,25.3249916 239.935995,23.772157 241.757531,22.2193224 L230.292922,22.2193224 L230.292922,18.5913452 L247.08628,18.5913452 L247.08628,15.6809124 L253.580409,15.6809124 Z" id="OB体育体育" fill="#FFFFFF"></path>
    </g>
</svg>