<?xml version="1.0" encoding="UTF-8"?>
<svg width="272px" height="90px" viewBox="0 0 272 90" version="1.1" xmlns="http://www.w3.org/2000/svg" xmlns:xlink="http://www.w3.org/1999/xlink">
    <title>OB视讯白色</title>
    <g id="pc" stroke="none" stroke-width="1" fill="none" fill-rule="evenodd">
        <path d="M45,6.39488462e-14 C69.8531648,6.39488462e-14 90,20.1478416 90,45 C90,69.8521584 69.8531648,90 45,90 C20.1478416,90 -1.76925141e-12,69.8521584 -1.76925141e-12,45 C-1.76925141e-12,20.1478416 20.1478416,6.39488462e-14 45,6.39488462e-14 Z M243.11556,68.8301852 L243.308085,69.0041937 L242.502896,69.8103892 C241.76011,69.1118877 240.763688,68.7465332 239.745124,68.8039029 C238.164941,68.8039029 237.249038,69.679546 237.249038,70.9879781 C237.215824,71.5002796 237.412089,72.0015097 237.782476,72.3557929 C238.191109,72.6596259 238.66139,72.8671351 239.158256,72.9655093 L239.372724,73.0009506 L240.671091,73.2022478 C241.437028,73.258611 242.165724,73.5464661 242.764583,74.0265601 C243.42987,74.6213934 243.798244,75.4809327 243.771069,76.371673 C243.771069,78.4460412 242.140561,79.7232722 239.684735,79.7232722 C238.266655,79.8132639 236.880671,79.3139353 235.848164,78.3503143 L235.65879,78.164225 L236.524368,77.2976403 C237.352706,78.2044845 238.550425,78.6815589 239.775319,78.5960076 C241.506475,78.5960076 242.563286,77.7817602 242.563286,76.4028741 C242.599519,75.8513196 242.393189,75.3108365 241.999653,74.9233393 C241.615679,74.6177449 241.153875,74.4285098 240.668856,74.3738391 L240.459729,74.3587005 L239.080843,74.1473384 C238.287732,74.0557482 237.53488,73.7457504 236.906833,73.2525721 C236.289857,72.6859204 235.960736,71.873686 236.01106,71.0383024 C236.01106,69.0343883 237.450335,67.7058264 239.795448,67.7058264 C241.009137,67.6400693 242.197399,68.0451331 243.11556,68.8301852 Z M128.176124,67.7058264 C129.307414,67.6907291 130.396433,68.1335831 131.195583,68.9347461 C132.223406,69.9523843 132.305632,71.0219877 132.31221,73.1389046 L132.31221,74.291967 C132.305632,76.4079758 132.223406,77.4768754 131.195583,78.4963655 C129.515757,80.1329121 126.836491,80.1329121 125.156665,78.4963655 C124.128841,77.4768754 124.046616,76.4079758 124.040037,74.291967 L124.040037,73.1389046 C124.046616,71.0219877 124.128841,69.9523843 125.156665,68.9347461 C125.955815,68.1335831 127.044833,67.6907291 128.176124,67.7058264 Z M136.811575,67.8069783 L143.092049,77.2478193 L143.092049,67.8069783 L144.350157,67.8069783 L144.350157,79.6231268 L143.153444,79.6231268 L136.882029,70.1420264 L136.882029,79.6231268 L135.613856,79.6231268 L135.613856,67.8069783 L136.811575,67.8069783 Z M156.407862,67.8071796 L159.195829,73.4636323 L161.953601,67.8071796 L163.312357,67.8071796 L159.829915,74.7418698 L159.829915,79.6233281 L158.571807,79.6233281 L158.571807,74.7418698 L155.049105,67.8071796 L156.407862,67.8071796 Z M181.319101,67.8071796 L181.319101,68.9344442 L177.896041,68.9344442 L177.896041,79.6233281 L176.637933,79.6233281 L176.637933,68.9344442 L173.21588,68.9344442 L173.21588,67.8071796 L181.319101,67.8071796 Z M203.088996,67.8073809 L203.088996,68.9346455 L197.009819,68.9346455 L197.009819,73.1014985 L202.192217,73.1014985 L202.192217,74.2287631 L197.009819,74.2287631 L197.009819,78.4962648 L203.088996,78.4962648 L203.088996,79.6235294 L195.751711,79.6235294 L195.751711,67.8073809 L203.088996,67.8073809 Z M219.43393,67.8071796 C221.487162,67.8071796 222.917379,68.9445091 222.917379,70.9574815 C222.943547,72.1008499 222.246052,73.1385372 221.175151,73.5441512 C222.361798,73.957817 223.140819,75.096153 223.09754,76.3522478 C223.09754,78.424603 221.762022,79.5470476 219.791036,79.6195747 L219.584903,79.6233281 L214.985261,79.6233281 L214.985261,67.8071796 L219.43393,67.8071796 Z M233.746567,67.8073809 L233.746567,68.9346455 L227.66739,68.9346455 L227.66739,73.1014985 L232.849788,73.1014985 L232.849788,74.2287631 L227.66739,74.2287631 L227.66739,78.4962648 L233.746567,78.4962648 L233.746567,79.6235294 L226.409282,79.6235294 L226.409282,67.8073809 L233.746567,67.8073809 Z M253.694722,67.8071796 L253.694722,68.9344442 L250.272668,68.9344442 L250.272668,79.6233281 L249.005502,79.6233281 L249.005502,68.9344442 L245.592507,68.9344442 L245.592507,67.8071796 L253.694722,67.8071796 Z M149.372825,67.807079 L149.372825,78.4959629 L155.411742,78.4959629 L155.411742,79.6232275 L148.104652,79.6232275 L148.104652,67.807079 L149.372825,67.807079 Z M185.123015,67.8068777 L185.123015,73.1009953 L190.729143,73.1009953 L190.729143,67.8068777 L191.997316,67.8068777 L191.997316,79.6230262 L190.729143,79.6230262 L190.729143,74.2282599 L185.123015,74.2282599 L185.123015,79.6230262 L183.864907,79.6230262 L183.864907,67.8068777 L185.123015,67.8068777 Z M126.102762,69.7187989 C125.386609,70.4446304 125.28462,71.21792 125.277834,73.4676037 L125.277834,74.0219485 C125.28462,76.2717539 125.386609,77.0351797 126.102762,77.7706889 C126.102762,77.7716954 126.103769,77.7716954 126.103769,77.7727019 C127.186909,78.8548759 128.915643,78.8981628 130.050431,77.9007818 L130.189096,77.7706889 L130.219291,77.7505592 C130.935445,77.0160178 131.009517,76.2703097 131.014155,74.0218658 L131.014415,73.7447439 C131.014415,71.2798591 130.933896,70.484735 130.189096,69.7187989 C130.189096,69.7187989 130.18809,69.7187989 130.18809,69.7177924 C129.058812,68.5905278 127.231033,68.5905278 126.102762,69.7187989 Z M219.61914,74.1586424 L219.464124,74.1681727 L216.243368,74.1681727 L216.243368,78.4960635 L219.464124,78.4960635 C219.604026,78.5091478 219.742921,78.5091478 219.881816,78.4960635 C221.077522,78.3803176 221.953165,77.3174681 221.836412,76.1237754 C221.73165,75.0320442 220.836498,74.2071326 219.772257,74.1600256 L219.61914,74.1586424 Z M68.5015545,58.9099418 C70.4460859,61.0688548 71.1989376,64.0470476 70.514527,66.871248 C69.5784947,71.3491053 66.0356632,73.1507157 63.046399,74.0877544 C60.9821872,74.6230221 58.8614126,74.9070841 56.7309587,74.9331348 L52.3373854,74.9332029 C50.3475621,74.9553456 48.7160479,73.3600649 48.6939052,71.371248 L48.6939052,65.0696377 L48.5328674,65.1793447 C46.6034332,66.4988481 44.462637,67.4761463 42.2020689,68.0689667 L42.2020689,71.340047 C42.0883359,73.4174346 40.3259785,75.0187542 38.2465779,74.9332029 L35.6397786,74.9332029 L35.6397786,77.7111049 L60.2282375,77.7111049 C63.5496421,77.7111049 70.5346567,75.8893648 72.6684075,69.8303176 C74.0905726,65.7439834 72.7016216,62.1035227 68.5015545,58.9099418 Z M264.806531,73.1614851 L264.806531,74.2776784 L260.257213,74.2776784 L260.257213,73.1614851 L264.806531,73.1614851 Z M116.72221,73.1614851 L116.72221,74.2776784 L112.172892,74.2776784 L112.172892,73.1614851 L116.72221,73.1614851 Z M59.7349586,50.2341311 C59.1270409,51.738828 59.0032431,53.3955044 59.3826884,54.9746813 C59.6725565,56.7428763 58.3020604,57.2681172 57.9337193,57.7525447 L57.8930888,57.8129725 L57.8930888,57.9327444 C57.6314024,58.3856632 57.4804294,58.7983225 58.7486021,59.0408857 C60.0167748,59.2824424 59.121002,60.5697383 59.121002,60.7519123 C59.121002,60.9330798 58.9599642,61.7583986 60.3187206,61.6668083 C59.4833371,61.8087229 59.63431,62.311966 59.7248938,62.4619325 C59.9060613,62.8242675 60.5602773,62.7437486 60.73138,63.0456945 C60.8823529,63.444263 60.9336837,63.8730262 60.8823529,64.2937374 C60.8823529,64.8785059 61.2648177,65.3908074 62.4021472,65.4713263 C63.5394766,65.5518452 65.6732275,64.3752628 66.730038,65.2297696 C67.646947,66.0842764 67.9217177,67.4259226 67.4144487,68.571304 C67.0521136,69.7186983 65.5524491,72.738157 59.3625587,74.2378215 C62.3820174,73.7446433 66.6495191,72.9102662 69.0248267,69.0252293 C71.118318,64.5664952 69.7092373,60.6210691 67.0722433,58.7791993 C66.5186759,58.395728 65.9147842,58.0535227 65.3008276,57.7113174 L65.11966,57.6116752 L65.0290763,57.6116752 L64.8579736,57.5100201 C61.9784165,56.1673675 60.0278461,53.3975173 59.7349586,50.2341311 Z M219.333281,68.9344442 L216.243368,68.9344442 L216.243368,72.9603892 L219.333281,72.9603892 C220.652785,72.9603892 221.659271,72.3263028 221.659271,70.9474167 C221.659271,69.5685305 220.641713,68.9344442 219.333281,68.9344442 Z M57.8326996,25.2529412 L35.6900022,25.2529412 L35.6900022,27.5678595 L38.709461,27.5678595 C40.5603892,27.6292552 42.0691121,29.0725565 42.2120331,30.9194587 L42.2120331,60.5705435 C42.2120331,60.5705435 48.6736748,56.4137553 48.7239991,48.6336166 L48.7239991,27.5577947 L58.8895102,27.5577947 C60.3418698,27.7540595 61.6513084,28.5350928 62.5128607,29.7217401 C63.9320063,31.6843883 65.0190114,34.190539 64.8982331,38.7801163 C64.8398569,41.4 63.9682398,43.9363453 62.4021472,46.0368821 C61.9864684,46.5662939 61.5436144,47.073563 61.0735853,47.5566764 L61.0031313,47.616059 L60.9125475,47.7076493 L60.8420935,47.7781033 L60.7414449,47.8888168 L59.8959964,48.7443301 L59.8959964,49.0664057 C60.182845,50.9042496 60.9387162,52.6374189 62.0901364,54.0988369 C63.6904496,55.9105122 65.1095952,56.4439499 67.4245135,57.4403713 C71.4323418,58.9360098 73.9827779,62.8844554 73.6949228,67.1529635 C74.6148513,64.152628 74.4477745,60.9228137 73.2218743,58.0341982 C71.6276001,53.9015656 68.1834042,50.7583091 63.9219414,49.5495191 C68.7681727,47.6704093 71.964773,43.0113845 71.9738314,37.8138895 C72.0161038,34.0144039 70.3091031,30.4071572 67.3439946,28.0308432 C64.6747931,25.8668978 61.2477074,24.865444 57.8326996,25.2529412 Z M37.3605681,12.1983026 C31.8752181,12.1983026 26.6616193,14.9460188 22.5652203,20.1294229 C18.4688213,25.3128271 16.4055245,31.6436256 16.4055245,39.2526616 C16.3380899,45.370085 18.0179155,51.3788079 21.2467233,56.5742899 C24.0648848,60.7612726 29.4395214,66.2566875 37.4310221,66.236613 C45.4225229,66.2164281 49.7604786,61.1749385 51.6728025,59.1005703 C53.5851264,57.0272087 55.8899799,53.1230485 57.419839,47.4857191 C58.8359651,41.7447215 58.732297,35.7329792 57.1178931,30.0433125 C56.61465,30.0433125 54.8834936,29.9829233 51.9344889,29.9829233 L51.1292999,29.9829233 L51.1796242,30.22448 C51.822769,32.8614739 52.1599418,35.562883 52.1861105,38.2763699 C52.2374413,41.4981324 51.9495862,44.7158689 51.3305972,47.8792552 C50.6039141,51.2066987 49.3357414,54.3922277 47.5764035,57.3100313 C43.8524044,63.1164505 39.3735406,64.0021584 37.3605681,64.0021584 C32.9118989,64.0021584 28.7953702,60.3989376 26.4301275,56.0710467 C23.83138,50.7970588 22.4947663,44.9916462 22.5249609,39.1117535 C22.3981436,33.1976403 23.8052114,27.3509618 26.611295,22.1423954 C29.4395214,17.1099642 33.3245583,14.4729703 37.2699843,14.4729703 C41.2154104,14.4729703 43.5202639,16.616786 45.3218743,18.3076828 C46.5759562,19.6674458 47.6398121,21.1912659 48.4822411,22.8368709 L54.1084992,22.8368709 L54.1084992,22.7865466 C53.1624021,20.8842876 47.5160143,12.1882465 37.3605681,12.1983026 Z M264.816998,17.7241221 C264.400313,27.7628159 264.25236,35.8408745 264.374144,41.9603109 C264.339924,44.7452583 264.623753,47.5241669 265.218586,50.2436927 C265.581928,51.6024491 265.994587,52.2566652 266.829971,52.2566652 C267.630547,52.2566652 268.052135,51.3323054 268.085878,49.4835859 L268.088079,49.2372064 L271.490002,49.267401 C271.490002,51.7101431 271.117602,53.4543838 270.372803,54.5011295 C269.558555,55.5669984 268.257168,56.1437151 266.920555,56.0309886 C264.662,56.1678707 262.536301,54.9550548 261.505659,52.9410758 C260.316998,50.6805077 259.586289,46.6545627 259.310512,40.8632409 C259.077479,36.3712613 258.984242,30.1922909 259.03446,22.3254146 L259.039767,21.5588347 L252.366764,21.5588347 L252.366764,32.7509618 L257.831984,32.7509618 L257.831984,36.3843771 L252.366764,36.3843771 L252.366764,56.443648 L247.042451,56.443648 L247.042451,36.3843771 L241.124312,36.3843771 L241.124312,32.7509618 L247.042451,32.7509618 L247.042451,21.538705 L241.616484,21.538705 L241.616484,17.7241221 L264.816998,17.7241221 Z M198.217804,23.6121673 L198.217804,26.9939611 C197.476023,29.8704988 196.361843,32.6383359 194.906464,35.2270186 C196.084053,36.8703361 197.461275,38.3606012 199.007128,39.6630292 L199.475911,40.0480877 L199.475911,43.5003355 C198.069706,42.7575486 196.712306,41.9275056 195.410681,41.0146431 L194.764549,40.5513308 L194.764549,56.3632297 L189.57108,56.3632297 L189.57108,41.265936 C188.120015,42.3443142 186.611271,43.3435701 185.051822,44.2579996 L184.267904,44.708119 L184.267904,41.1753523 C186.343279,39.2801387 188.167032,37.1252516 189.691859,34.7640349 C190.954457,32.5983862 191.917754,30.2740819 192.558,27.852869 L192.711317,27.2455826 L185.001633,27.2455826 L185.001633,23.6121673 L198.217804,23.6121673 Z M214.039465,24.0143592 L214.039241,33.2208461 C214.022516,34.7044383 213.908272,36.1857659 213.699057,37.6546382 L213.586547,38.3879893 L215.599519,38.3879893 L215.599519,49.4583315 C215.527052,50.1024827 215.683057,50.7506598 216.042373,51.2901364 C216.458153,51.6370722 216.986437,51.8160658 217.523771,51.7977678 L217.703075,51.7843212 L218.548524,51.7843212 C219.174558,51.8507493 219.801599,51.6736077 220.29981,51.2901364 C220.652181,50.8037016 220.830087,50.2145448 220.807849,49.617317 L220.792988,49.418072 L220.803053,48.211295 L224.657895,48.211295 L224.657895,50.2242675 C224.79679,51.6736077 224.358969,53.1199284 223.440047,54.2502125 C222.418933,55.0543279 221.144435,55.4603936 219.852227,55.3972167 L219.57514,55.3764706 L215.861206,55.3764706 C214.450112,55.5063073 213.052102,55.0342653 212.006363,54.0791098 C211.118454,52.9005773 210.671963,51.4513551 210.738213,49.9843854 L210.75832,49.6908298 L210.75832,46.056408 C208.468656,49.5318965 204.35431,52.8673161 198.417119,56.0635846 L197.855167,56.3628271 L197.855167,52.5885037 C202.032085,49.7612838 204.96096,46.8726683 206.631727,43.9528517 C208.30687,40.656478 209.129289,36.9954404 209.026756,33.3044546 L209.007034,32.8009841 L209.007034,24.0143592 L214.039465,24.0143592 Z M133.862671,22.4042832 C137.185082,26.2782487 138.92429,31.2643816 138.734064,36.3642474 C138.68072,42.7584545 137.053232,47.6328674 133.852606,50.9884925 C130.651979,54.3431112 126.22042,56.0209237 120.556922,56.0209237 C115.008164,56.000794 110.589689,54.2293782 107.301499,50.7066764 C104.013308,47.1839745 102.369716,42.4031648 102.369716,36.3642474 C102.309327,30.5064974 103.936815,25.7589018 107.251174,22.122467 C110.56654,18.4860322 115.031313,16.6673116 120.647506,16.6673116 C125.691009,16.4931894 130.545292,18.6007716 133.862671,22.4042832 Z M162.939857,17.1804183 C166.905413,17.1804183 169.924871,17.9956721 171.937844,19.6060501 C173.941758,21.2909081 175.025744,23.8282599 174.85766,26.4400917 C174.979445,28.4611161 174.426884,30.4650302 173.286535,32.1368038 C171.970051,33.6737083 170.212726,34.7697719 168.254104,35.2770409 C170.599217,35.6111944 172.76115,36.73242 174.383605,38.4575375 C175.816842,40.1122008 176.568687,42.2489711 176.487162,44.4360658 C176.567681,48.2405838 175.537039,51.0124469 173.397249,52.7496421 C171.331245,54.4279059 168.0727,55.2955042 163.622519,55.353343 L163.141154,55.3564415 L145.940304,55.3564415 L145.940304,17.1804183 L162.939857,17.1804183 Z M238.798725,28.0912324 L238.798725,47.7982331 C240.353998,47.1782375 241.8561,46.435718 243.290872,45.576743 L243.90161,45.2014985 L243.90161,49.4176694 C240.93662,51.750823 237.626597,53.6025348 234.089856,54.9073539 L233.424089,55.1455826 L233.424089,31.7246477 L229.842004,31.7246477 L229.842004,28.0912324 L238.798725,28.0912324 Z M161.832722,37.833516 L151.979222,37.833516 L151.979222,51.3304965 L162.295706,51.3304965 C165.106822,51.3304965 167.136904,50.8041042 168.384947,49.7503131 C169.640036,48.7106128 170.260031,47.0338068 170.248127,44.7178819 C170.179512,40.2561284 167.375442,37.9613397 161.832722,37.833516 Z M120.893847,21.1103407 L120.566987,21.1159808 C117.248602,21.0596175 114.102326,22.5935026 112.102438,25.2425744 C109.834824,28.0748267 108.700514,31.7646052 108.700514,36.3139231 C108.700514,41.0917133 109.844889,44.8287967 112.132633,47.5261798 C114.205994,49.9870387 117.289868,51.3659248 120.506598,51.2713151 C123.868262,51.4504697 127.120219,50.0474279 129.293223,47.4758555 C131.440058,44.8861664 132.516998,41.1521024 132.524078,36.2736636 C132.531089,31.6106128 131.440058,27.9198278 129.252964,25.2023149 C127.314309,22.6977875 124.361846,21.2061875 121.219555,21.1147855 L120.893847,21.1103407 Z M222.765701,17.2509729 L222.765701,42.8761127 L217.743335,42.8761127 L217.743335,20.7032208 L205.655435,20.7032208 L205.655435,42.8761127 L200.633069,42.8761127 L200.633069,17.2509729 L222.765701,17.2509729 Z M161.109058,21.2164281 L151.979222,21.2164281 L151.979222,33.2841982 L161.339544,33.2841982 C166.177723,33.2781592 168.59631,31.2178819 168.59631,27.1043726 C168.736211,25.4195146 168.070924,23.7668642 166.805771,22.6456386 C165.607045,21.6995415 163.705793,21.2164281 161.109058,21.2164281 Z M236.866674,16.0434914 C238.089136,18.593592 239.061261,21.2553288 239.769873,23.9914896 L239.956587,24.7395325 L234.60208,24.7395325 C234.038364,22.0002964 233.211626,19.3227983 232.134271,16.7442504 L231.834243,16.0434914 L236.866674,16.0434914 Z M192.701856,16.0432901 C193.767474,17.9189611 194.580218,19.9274114 195.118383,22.0143734 L195.258331,22.5854507 L190.326549,22.5854507 C190.04783,20.4829783 189.446654,18.4371074 188.545186,16.5198762 L188.313576,16.0432901 L192.701856,16.0432901 Z" id="OB视讯白色" fill="#FFFFFF"></path>
    </g>
</svg>